<?xml version="1.0" encoding="utf-8"?>
<!-- Generator: Adobe Illustrator 16.0.0, SVG Export Plug-In . SVG Version: 6.00 Build 0)  -->
<!DOCTYPE svg PUBLIC "-//W3C//DTD SVG 1.1//EN" "http://www.w3.org/Graphics/SVG/1.1/DTD/svg11.dtd">
<svg version="1.1" xmlns="http://www.w3.org/2000/svg" xmlns:xlink="http://www.w3.org/1999/xlink" x="0px" y="0px" width="305px"
	 height="232px" viewBox="0 0 305 232" enable-background="new 0 0 305 232" xml:space="preserve">
<g id="svg2" sodipodi:docname="LM.svg" inkscape:version="0.48.2 r9819" xmlns:dc="http://purl.org/dc/elements/1.1/" xmlns:cc="http://creativecommons.org/ns#" xmlns:rdf="http://www.w3.org/1999/02/22-rdf-syntax-ns#" xmlns:svg="http://www.w3.org/2000/svg" xmlns:inkscape="http://www.inkscape.org/namespaces/inkscape" xmlns:sodipodi="http://sodipodi.sourceforge.net/DTD/sodipodi-0.dtd">
	<g id="layer11" transform="translate(-104.18562,-11.25)" inkscape:groupmode="layer" inkscape:label="A" display="none">
		<g id="path3825" inkscape:connector-curvature="0" display="inline">
			<polyline opacity="0" points="357.436,157.564 363.691,162.243 369.489,169.058 375.972,174.37 381.375,182.456 382.357,221.607 
				402.101,234.196 			"/>
			<g>
				<polyline fill="none" stroke="#8F3B85" stroke-width="4.218" points="358.884,158.647 363.691,162.243 369.489,169.058 
					375.972,174.37 381.375,182.456 382.357,221.607 400.449,233.144 				"/>
				<g>
					<circle fill="#8F3B85" cx="358.96" cy="158.705" r="1.903"/>
				</g>
				<g>
					<circle fill="#8F3B85" cx="400.362" cy="233.088" r="2.062"/>
				</g>
			</g>
		</g>
		
			<text transform="matrix(0.8506 0 0 1 388.7374 237.0615)" display="inline" font-family="'ArialRoundedMTBold'" font-size="3.2529">LA PAZ</text>
		
			<text transform="matrix(0.8506 0 0 1 374.1475 230.6162)" display="inline" font-family="'ArialRoundedMTBold'" font-size="3.2529">LOS REYES</text>
		
			<text transform="matrix(0.8506 0 0 1 360.962 222.5049)" display="inline" font-family="'ArialRoundedMTBold'" font-size="3.2529">SANTA MARTA</text>
		
			<text transform="matrix(0.8506 0 0 1 366.7452 213.417)" display="inline" font-family="'ArialRoundedMTBold'" font-size="3.2529">ACATITLA</text>
		
			<text transform="matrix(0.8506 0 0 1 361.6924 203.8379)" display="inline" font-family="'ArialRoundedMTBold'" font-size="3.2863">PEÑON VIEJO</text>
		
			<text transform="matrix(0.8506 0 0 1 364.8839 194.0273)" display="inline" font-family="'ArialRoundedMTBold'" font-size="3.2863">GUELATAO</text>
		
			<text transform="matrix(0.8506 0 0 1 361.9688 184.4258)" display="inline" font-family="'ArialRoundedMTBold'" font-size="3.2863">TEPALCATES</text>
		
			<text transform="matrix(0.8506 0 0 1 380.7579 172.499)" display="inline" font-family="'ArialRoundedMTBold'" font-size="3.2863">CANAL DE </text>
		
			<text transform="matrix(0.8506 0 0 1 380.7579 176.6064)" display="inline" font-family="'ArialRoundedMTBold'" font-size="3.2863">SAN JUAN</text>
		
			<text transform="matrix(0.8506 0 0 1 372.0391 167.6357)" display="inline" font-family="'ArialRoundedMTBold'" font-size="3.2863">AGRICOLA ORIENTAL</text>
		
			<text transform="matrix(0.9067 0 0 1 360.2989 156.6006)" display="inline" font-family="'ArialRoundedMTBold'" font-size="4.1122">PANTITLAN</text>
	</g>
	<g id="layer12" transform="translate(-104.18562,-11.25)" inkscape:groupmode="layer" inkscape:label="B" display="none">
		
			<path id="path3828" inkscape:connector-curvature="0" display="inline" fill="none" stroke="#BAD980" stroke-width="2.1089" stroke-miterlimit="4.0015" d="
			M379.706,15.74l-22.646,69.412l-14.438,14.09l-44.256,28.036l-13.625-11.704l-24.271-4.436l-9.258-0.866l-5.452,0.058
			l-6.582,0.463l-11.887-2.6l-12.279-2.426l-9.354-1.504l-5.071-6.493"/>
		
			<path id="path3828-1" sodipodi:nodetypes="ccccccccccccc" inkscape:connector-curvature="0" display="inline" fill="none" stroke="#8B938B" stroke-width="2.1089" stroke-miterlimit="4.0015" d="
			M380.595,16.172l-23.26,69.196l-14.805,14.988l-44.257,28.036l-13.625-11.704l-24.269-4.436l-9.259-0.866l-5.452,0.058
			l-6.582,0.463l-11.888-2.6l-12.278-2.426l-9.72-1.668l-5.245-6.655"/>
		
			<text transform="matrix(0.8506 0 0 1 185.3282 103.1748)" display="inline" font-family="'ArialRoundedMTBold'" font-size="2.744">BUENAVISTA</text>
		<text transform="matrix(0.8506 0 0 1 243.525 109.1602)" display="inline" font-family="'ArialRoundedMTBold'" font-size="2.744">LAGUNILLA</text>
		
			<text transform="matrix(0.8506 0.0057 -0.0049 1 255.293 115.7432)" display="inline" font-family="'ArialRoundedMTBold'" font-size="2.744">TEPITO</text>
		<text transform="matrix(0.8506 0 0 1 321.628 118.5391)" display="inline" font-family="'ArialRoundedMTBold'" font-size="2.744">FLORES</text>
		<text transform="matrix(0.8506 0 0 1 321.628 121.9688)" display="inline" font-family="'ArialRoundedMTBold'" font-size="2.744">MAGON</text>
		
			<text transform="matrix(0.8506 0 0 1 334.7706 110.0537)" display="inline" font-family="'ArialRoundedMTBold'" font-size="2.744">ROMERO</text>
		
			<text transform="matrix(0.8506 0 0 1 334.7706 113.4834)" display="inline" font-family="'ArialRoundedMTBold'" font-size="2.744">RUBIO</text>
		<text transform="matrix(0.8506 0 0 1 351.4424 95.6748)" display="inline" font-family="'ArialRoundedMTBold'" font-size="2.744">DEPOTIVO OCEANIA</text>
		<text transform="matrix(0.8506 0 0 1 326.7061 88.5938)" display="inline" font-family="'ArialRoundedMTBold'" font-size="2.744">BOSQUE DE ARAGON</text>
		<text transform="matrix(0.8506 0 0 1 336.2686 78.6143)" display="inline" font-family="'ArialRoundedMTBold'" font-size="2.744">CONSTITUYENTES</text>
		<text transform="matrix(0.8506 0 0 1 364.9571 72.1729)" display="inline" font-family="'ArialRoundedMTBold'" font-size="2.744">IMPULSORA</text>
		<text transform="matrix(0.8506 0 0 1 348.4112 61.0557)" display="inline" font-family="'ArialRoundedMTBold'" font-size="2.744">RIO DE LOS</text>
		<text transform="matrix(0.8506 0 0 1 348.4112 64.4854)" display="inline" font-family="'ArialRoundedMTBold'" font-size="2.744">REMEDIOS</text>
		<text transform="matrix(0.8506 0 0 1 370.0342 56.583)" display="inline" font-family="'ArialRoundedMTBold'" font-size="2.744">MUZQUIZ</text>
		<text transform="matrix(0.8506 0 0 1 350.9581 46.4639)" display="inline" font-family="'ArialRoundedMTBold'" font-size="2.744">TECNOLÓGICO</text>
		<text transform="matrix(0.8506 0 0 1 375.4864 39.96)" display="inline" font-family="'ArialRoundedMTBold'" font-size="2.744">OLIMPICA</text>
		<text transform="matrix(0.8506 0 0 1 354.4268 29.4756)" display="inline" font-family="'ArialRoundedMTBold'" font-size="2.744">PLAZA ARAGON</text>
		<text transform="matrix(0.8506 0 0 1 380.6436 23.917)" display="inline" font-family="'ArialRoundedMTBold'" font-size="2.744">CIUDAD</text>
		<text transform="matrix(0.8506 0 0 1 228.8614 106.123)" display="inline" font-family="'ArialRoundedMTBold'" font-size="2.744">GARIBALDI</text>
	</g>
	<g id="layer10" transform="translate(-104.18562,-11.25)" inkscape:groupmode="layer" inkscape:label="9" display="none">
		<path id="path3822" inkscape:connector-curvature="0" display="inline" fill="none" stroke="#976B1D" stroke-width="4.2178" d="
			M358.06,157.672l-5.141,15.026l-23.271-2.613l-48.207-2.123l-14.656-1.226l-45.567-2.694l-16.046-0.979l-18.686-4.899
			l-12.227-1.879h-9.309l-7.154,2.123"/>
	</g>
	<g id="layer9" transform="translate(-104.18562,-11.25)" inkscape:groupmode="layer" inkscape:label="8" display="none">
		<path id="path3819" inkscape:connector-curvature="0" display="inline" fill="none" stroke="#34944B" stroke-width="4.2178" d="
			M227.331,100.587l-1.042,19.437l-0.973,30.952l9.447,6.941l14.032,8.084l25.354,18.865l1.527,34.055l7.293,4.818l17.264,1.158
			l8.007-5.023l6.926,3.406l28.39-4.851"/>
	</g>
	<g id="layer2" transform="translate(-104.18562,-11.25)" inkscape:groupmode="layer" inkscape:label="7" display="none">
		<path id="path3030" inkscape:connector-curvature="0" display="inline" fill="none" stroke="#F07329" stroke-width="4.2178" d="
			M133.139,36.97l-3.682,5.471l5.558,9.883l13.823,11.514l8.059,22.377l6.043,8.003l-12.713,51.532l14.032,23.438l-0.278,38.71"/>
	</g>
	<g id="layer3" transform="translate(-104.18562,-11.25)" inkscape:groupmode="layer" inkscape:label="6" display="none">
		<path id="path3801" inkscape:connector-curvature="0" display="inline" fill="none" stroke="#E33B27" stroke-width="4.2178" d="
			M124.109,39.745l29.87,14.619l4.584,2.857l5.766,0.163l4.375-0.816l6.877-4.409l15.768-2.858l5.001,3.757h6.183l8.752-9.475
			l47.443,2.205l5.278,3.186l7.642,1.388l15.628-4.165l26.467,13.639"/>
	</g>
	<g id="layer4" transform="translate(-104.18562,-11.25)" inkscape:groupmode="layer" inkscape:label="5" display="none">
		<path id="path3804" inkscape:connector-curvature="0" display="inline" fill="none" stroke="#FFE81F" stroke-width="4.2178" d="
			M198.087,29.864l11.321,21.479l21.673,26.623l0.903,2.286l12.155,9.474l14.865-2.94l16.88,2.695l9.516,8.902l4.1,1.796
			l4.515,0.082l22.298-5.554l26.743,5.88l6.113,3.104l1.25,2.613l-0.625,5.472l-3.959,6.615l-10.837,8.9l0.347,9.229l7.711,9.146
			l5.558,2.695l8.475,8.575"/>
	</g>
	<g id="layer5" transform="translate(-104.18562,-11.25)" inkscape:groupmode="layer" inkscape:label="4" display="none">
		<path id="path3807" inkscape:connector-curvature="0" display="inline" fill="none" stroke="#C8E0C5" stroke-width="4.2178" d="
			M309.853,43.911l-2.152,4.166l-5.21,5.472l-15.214,28.583l-2.014,25.234l-0.417,9.474l-1.111,11.679l-12.295,29.48l-4.724,8.901
			l-5.903,16.089"/>
	</g>
	<g id="layer6" transform="translate(-104.18562,-11.25)" inkscape:groupmode="layer" inkscape:label="3">
		<path id="path3810" inkscape:connector-curvature="0" fill="none" stroke="#B7C16A" stroke-width="4.2178" d="M264.147,23.331
			l0.139,10.371l-5.418,11.516l-41.33,33.074l-2.5,28.664l-5.904,30.055l-0.417,13.475l-4.237,5.309l0.418,26.705l-4.377,8.901
			l-0.277,10.698l-2.152,10.208l3.195,7.104l13.822,5.228l3.543,4.655"/>
	</g>
	<g id="linea2" transform="translate(-104.18562,-11.25)" inkscape:groupmode="layer" inkscape:label="2" display="none">
		<path id="path3813" inkscape:connector-curvature="0" display="inline" fill="none" stroke="#0083C7" stroke-width="4.2178" d="
			M117.024,104.092l4.813-2.425l7.122,0.173l8.154-3.638l25.836-4.447l12.623,10.279l14.932,6.93l8.152,3.58l6.877,5.313
			l43.125,0.116l-0.785,98.747l5.402,6.698l4.027,1.964"/>
		
			<text transform="matrix(0.8506 0 0 1 237.0142 228.4844)" display="inline" font-family="'ArialRoundedMTBold'" font-size="3.2863">TASQUEÑA</text>
		
			<text transform="matrix(0.8506 0 0 1 223.1295 220.4971)" display="inline" font-family="'ArialRoundedMTBold'" font-size="3.2863">GENERAL ANAYA</text>
		
			<text transform="matrix(0.8506 0 0 1 235.0518 212.5107)" display="inline" font-family="'ArialRoundedMTBold'" font-size="3.2863">ERMITA</text>
		
			<text transform="matrix(0.8506 0 0 1 231.5543 205.5664)" display="inline" font-family="'ArialRoundedMTBold'" font-size="3.2863">PORTALES</text>
		
			<text transform="matrix(0.8506 0 0 1 232.0836 199.3643)" display="inline" font-family="'ArialRoundedMTBold'" font-size="3.2863">NATIVITAS</text>
		
			<text transform="matrix(0.8506 0 0 1 219.7325 191.7451)" display="inline" font-family="'ArialRoundedMTBold'" font-size="3.2863"> VILLA DE CORTÉS</text>
		
			<text transform="matrix(0.8506 0 0 1 238.8028 183.7109)" display="inline" font-family="'ArialRoundedMTBold'" font-size="3.2863">XOLA</text>
		
			<text transform="matrix(0.8506 0 0 1 231.8809 174.6318)" display="inline" font-family="'ArialRoundedMTBold'" font-size="3.2863">VIADUCTO</text>
		
			<text transform="matrix(0.8506 0 0 1 250.0567 163.0938)" display="inline" font-family="'ArialRoundedMTBold'" font-size="3.2863">CHABACANO</text>
		
			<text transform="matrix(0.8506 0 0 1 250.4747 152.5127)" display="inline" font-family="'ArialRoundedMTBold'" font-size="3.2863">SAN ANTONIO</text>
		
			<text transform="matrix(0.8506 0 0 1 250.4747 156.6201)" display="inline" font-family="'ArialRoundedMTBold'" font-size="3.2863">ABAD</text>
		
			<text transform="matrix(0.8506 0 0 1 250.4835 125.6504)" display="inline" font-family="'ArialRoundedMTBold'" font-size="3.2863">ZÓCALO</text>
		
			<text transform="matrix(0.8506 0 0 1 233.7789 124.0127)" display="inline" font-family="'ArialRoundedMTBold'" font-size="3.2863">ALLENDE</text>
		
			<text transform="matrix(0.8506 0 0 1 215.4386 113.4268)" display="inline" font-family="'ArialRoundedMTBold'" font-size="3.2863">BELLAS </text>
		
			<text transform="matrix(0.8506 0 0 1 215.4386 117.5352)" display="inline" font-family="'ArialRoundedMTBold'" font-size="3.2863">ARTES</text>
		
			<text transform="matrix(0.8506 0 0 1 201.1856 114.5107)" display="inline" font-family="'ArialRoundedMTBold'" font-size="2.744">HIDALGO</text>
		<text transform="matrix(0.8506 0 0 1 188.6856 123.042)" display="inline" font-family="'ArialRoundedMTBold'" font-size="2.744">REVOLUCIÓN</text>
		
			<text transform="matrix(0.8506 0 0 1 185.2301 119.0449)" display="inline" font-family="'ArialRoundedMTBold'" font-size="2.744">SAN COSME</text>
		<text transform="matrix(0.8506 0 0 1 181.918 114.8184)" display="inline" font-family="'ArialRoundedMTBold'" font-size="2.744">NORMAL</text>
		<text transform="matrix(0.8506 0 0 1 171.3438 110.498)" display="inline" font-family="'ArialRoundedMTBold'" font-size="2.744">COLEGIO</text>
		
			<text transform="matrix(0.8506 0 0 1 171.3438 113.9287)" display="inline" font-family="'ArialRoundedMTBold'" font-size="2.744">MILITAR</text>
		
			<text transform="matrix(0.8506 0 0 1 164.1729 107.1191)" display="inline" font-family="'ArialRoundedMTBold'" font-size="2.744">POPOTLA</text>
		<text transform="matrix(0.8506 0 0 1 171.2628 98.043)" display="inline" font-family="'ArialRoundedMTBold'" font-size="2.744">CUITLAHUAC</text>
		<text transform="matrix(0.8506 0 0 1 163.8751 91.9727)" display="inline" font-family="'ArialRoundedMTBold'" font-size="2.744">TACUBA</text>
		
			<text transform="matrix(0.8506 0 0 1 134.9366 103.2949)" display="inline" font-family="'ArialRoundedMTBold'" font-size="3.2863">PANTEONES</text>
		
			<text transform="matrix(0.8506 0 0 1 117.8575 107.7559)" display="inline" font-family="'ArialRoundedMTBold'" font-size="3.2863">CUATRO</text>
		
			<text transform="matrix(0.8506 0 0 1 117.8575 111.8643)" display="inline" font-family="'ArialRoundedMTBold'" font-size="3.2863">CAMINOS</text>
		
			<path id="path3430-52" sodipodi:type="arc" sodipodi:cx="90.917969" sodipodi:cy="389.8299" sodipodi:rx="2.8320312" sodipodi:ry="2.6367188" display="inline" fill="#FFFFFF" d="
			M254.047,225.011c0,0.666-0.492,1.205-1.102,1.205s-1.102-0.539-1.102-1.205s0.492-1.205,1.102-1.205
			S254.047,224.345,254.047,225.011z"/>
		
			<path id="path3430-76" sodipodi:type="arc" sodipodi:cx="90.917969" sodipodi:cy="389.8299" sodipodi:rx="2.8320312" sodipodi:ry="2.6367188" display="inline" fill="#FFFFFF" d="
			M249.047,218.466c0,0.666-0.494,1.205-1.103,1.205s-1.103-0.539-1.103-1.205s0.494-1.207,1.103-1.207
			S249.047,217.8,249.047,218.466z"/>
		
			<path id="path3430-14" sodipodi:type="arc" sodipodi:cx="90.917969" sodipodi:cy="389.8299" sodipodi:rx="2.8320312" sodipodi:ry="2.6367188" display="inline" fill="#FFFFFF" d="
			M249.036,211.792c0,0.666-0.493,1.206-1.103,1.206c-0.608,0-1.102-0.54-1.102-1.206s0.493-1.205,1.102-1.205
			C248.543,210.587,249.036,211.126,249.036,211.792z"/>
		
			<path id="path3430-23" sodipodi:type="arc" sodipodi:cx="90.917969" sodipodi:cy="389.8299" sodipodi:rx="2.8320312" sodipodi:ry="2.6367188" display="inline" fill="#FFFFFF" d="
			M249.112,204.646c0,0.666-0.493,1.205-1.103,1.205c-0.608,0-1.102-0.539-1.102-1.205c0-0.665,0.493-1.205,1.102-1.205
			C248.619,203.44,249.112,203.98,249.112,204.646z"/>
		
			<path id="path3430-22" sodipodi:type="arc" sodipodi:cx="90.917969" sodipodi:cy="389.8299" sodipodi:rx="2.8320312" sodipodi:ry="2.6367188" display="inline" fill="#FFFFFF" d="
			M249.184,197.501c0,0.665-0.492,1.205-1.102,1.205s-1.102-0.54-1.102-1.205c0-0.666,0.492-1.207,1.102-1.207
			S249.184,196.835,249.184,197.501z"/>
		
			<path id="path3430-16" sodipodi:type="arc" sodipodi:cx="90.917969" sodipodi:cy="389.8299" sodipodi:rx="2.8320312" sodipodi:ry="2.6367188" display="inline" fill="#FFFFFF" d="
			M249.26,189.997c0,0.666-0.492,1.206-1.102,1.206s-1.102-0.54-1.102-1.206s0.492-1.206,1.102-1.206S249.26,189.331,249.26,189.997
			z"/>
		
			<path id="path3430-85" sodipodi:type="arc" sodipodi:cx="90.917969" sodipodi:cy="389.8299" sodipodi:rx="2.8320312" sodipodi:ry="2.6367188" display="inline" fill="#FFFFFF" d="
			M249.338,182.94c0,0.666-0.494,1.206-1.103,1.206s-1.103-0.54-1.103-1.206s0.494-1.206,1.103-1.206
			S249.338,182.274,249.338,182.94z"/>
		
			<path id="path3430-761" sodipodi:type="arc" sodipodi:cx="90.917969" sodipodi:cy="389.8299" sodipodi:rx="2.8320312" sodipodi:ry="2.6367188" display="inline" fill="#FFFFFF" d="
			M249.413,172.49c0,0.666-0.493,1.205-1.102,1.205s-1.103-0.539-1.103-1.205s0.493-1.206,1.103-1.206
			C248.92,171.284,249.413,171.824,249.413,172.49z"/>
		
			<path id="path3430-89" sodipodi:type="arc" sodipodi:cx="90.917969" sodipodi:cy="389.8299" sodipodi:rx="2.8320312" sodipodi:ry="2.6367188" display="inline" fill="#FFFFFF" d="
			M249.444,151.32c0,0.666-0.493,1.206-1.103,1.206c-0.608,0-1.102-0.54-1.102-1.206s0.493-1.206,1.102-1.206
			C248.951,150.114,249.444,150.654,249.444,151.32z"/>
		
			<path id="path3430-27" sodipodi:type="arc" sodipodi:cx="90.917969" sodipodi:cy="389.8299" sodipodi:rx="2.8320312" sodipodi:ry="2.6367188" display="inline" fill="#FFFFFF" d="
			M249.629,125.06c0,0.666-0.494,1.205-1.103,1.205s-1.103-0.539-1.103-1.205s0.494-1.206,1.103-1.206
			S249.629,124.394,249.629,125.06z"/>
		
			<path id="path3430-95" sodipodi:type="arc" sodipodi:cx="90.917969" sodipodi:cy="389.8299" sodipodi:rx="2.8320312" sodipodi:ry="2.6367188" display="inline" fill="#FFFFFF" d="
			M241.816,119.942c0,0.666-0.493,1.206-1.103,1.206c-0.608,0-1.102-0.54-1.102-1.206s0.493-1.206,1.102-1.206
			C241.322,118.736,241.816,119.276,241.816,119.942z"/>
		
			<path id="path3430-43" sodipodi:type="arc" sodipodi:cx="90.917969" sodipodi:cy="389.8299" sodipodi:rx="2.8320312" sodipodi:ry="2.6367188" display="inline" fill="#FFFFFF" d="
			M206.336,119.558c0,0.666-0.494,1.207-1.103,1.207s-1.103-0.541-1.103-1.207s0.494-1.205,1.103-1.205
			S206.336,118.892,206.336,119.558z"/>
		
			<path id="path3430-12" sodipodi:type="arc" sodipodi:cx="90.917969" sodipodi:cy="389.8299" sodipodi:rx="2.8320312" sodipodi:ry="2.6367188" display="inline" fill="#FFFFFF" d="
			M200.092,114.829c0,0.666-0.494,1.206-1.103,1.206s-1.103-0.54-1.103-1.206s0.494-1.206,1.103-1.206
			S200.092,114.163,200.092,114.829z"/>
		
			<path id="path3430-3" sodipodi:type="arc" sodipodi:cx="90.917969" sodipodi:cy="389.8299" sodipodi:rx="2.8320312" sodipodi:ry="2.6367188" display="inline" fill="#FFFFFF" d="
			M191.922,110.983c0,0.666-0.492,1.206-1.102,1.206s-1.102-0.54-1.102-1.206s0.492-1.206,1.102-1.206
			S191.922,110.317,191.922,110.983z"/>
		
			<path id="path3430-34" sodipodi:type="arc" sodipodi:cx="90.917969" sodipodi:cy="389.8299" sodipodi:rx="2.8320312" sodipodi:ry="2.6367188" display="inline" fill="#FFFFFF" d="
			M184.477,107.589c0,0.666-0.493,1.207-1.102,1.207c-0.609,0-1.103-0.541-1.103-1.207s0.493-1.205,1.103-1.205
			C183.982,106.384,184.477,106.923,184.477,107.589z"/>
		
			<path id="path3430-113" sodipodi:type="arc" sodipodi:cx="90.917969" sodipodi:cy="389.8299" sodipodi:rx="2.8320312" sodipodi:ry="2.6367188" display="inline" fill="#FFFFFF" d="
			M177.899,104.72c0,0.666-0.493,1.205-1.102,1.205c-0.609,0-1.103-0.539-1.103-1.205s0.494-1.207,1.103-1.207
			C177.404,103.513,177.899,104.054,177.899,104.72z"/>
		
			<path id="path3430-87" sodipodi:type="arc" sodipodi:cx="90.917969" sodipodi:cy="389.8299" sodipodi:rx="2.8320312" sodipodi:ry="2.6367188" display="inline" fill="#FFFFFF" d="
			M170.867,99.435c0,0.666-0.494,1.205-1.102,1.205c-0.608,0-1.103-0.539-1.103-1.205s0.493-1.206,1.103-1.206
			S170.867,98.769,170.867,99.435z"/>
		
			<path id="path3430-42" sodipodi:type="arc" sodipodi:cx="90.917969" sodipodi:cy="389.8299" sodipodi:rx="2.8320312" sodipodi:ry="2.6367188" display="inline" fill="#FFFFFF" d="
			M138.239,98.284c0,0.666-0.493,1.206-1.103,1.206c-0.608,0-1.102-0.54-1.102-1.206s0.493-1.206,1.102-1.206
			C137.746,97.078,138.239,97.618,138.239,98.284z"/>
		
			<path id="path3430-77" sodipodi:type="arc" sodipodi:cx="90.917969" sodipodi:cy="389.8299" sodipodi:rx="2.8320312" sodipodi:ry="2.6367188" display="inline" fill="#FFFFFF" d="
			M122.892,99.694c0,0.666-0.494,1.206-1.102,1.206c-0.608,0-1.102-0.54-1.102-1.206s0.493-1.206,1.102-1.206
			C122.399,98.488,122.892,99.028,122.892,99.694z"/>
	</g>
	<g id="linea1" transform="translate(-104.18562,-11.25)" inkscape:groupmode="layer" inkscape:label="1" display="none">
		<path id="path3816" inkscape:connector-curvature="0" display="inline" fill="none" stroke="#F16C9B" stroke-width="4.2178" d="
			M357.308,157.739l-16.602,6.121l-22.595-15.822l-1.965-1.039l-9.038-10.973l-8.718-7.183l-14.865-1.062l-20.979,8.411
			l-53.557,0.653l-22.662,4.318l-4.617,0.691l-8.792,1.79l-6.778,4.793l-8.301,9.702l-18.37,5.141"/>
		
			<text transform="matrix(0.8506 0 0 1 116.044 161.4795)" display="inline" font-family="'ArialRoundedMTBold'" font-size="3.6587">OBSERVATORIO</text>
		
			<text transform="matrix(0.8506 0 0 1 138.6221 156.9756)" display="inline" font-family="'ArialRoundedMTBold'" font-size="2.744">TACUBAYA</text>
		
			<text transform="matrix(0.8506 0 0 1 154.087 147.9609)" display="inline" font-family="'ArialRoundedMTBold'" font-size="3.2863">JUANACATLAN</text>
		
			<text transform="matrix(0.7534 0.5457 -0.4642 0.8857 157.253 131.5283)" display="inline" font-family="'ArialRoundedMTBold'" font-size="2.6375">CHAPULTEPEC</text>
		
			<text transform="matrix(0.7531 0.5466 -0.4649 0.8854 166.7296 129.8916)" display="inline" font-family="'ArialRoundedMTBold'" font-size="2.6373">INSURGENTES</text>
		
			<text transform="matrix(0.772 0.4934 -0.4197 0.9077 184.0274 128.6924)" display="inline" font-family="'ArialRoundedMTBold'" font-size="2.6561">CUAUHTEMOC</text>
		
			<text transform="matrix(0.7666 0.5093 -0.4332 0.9013 180.9595 133.9043)" display="inline" font-family="'ArialRoundedMTBold'" font-size="2.6506">SEVILLA</text>
		
			<text transform="matrix(0.7536 0.5453 -0.4638 0.8859 196.671 128.5234)" display="inline" font-family="'ArialRoundedMTBold'" font-size="2.6376">BALDERAS</text>
		
			<text transform="matrix(0.8506 0 0 1 213.9044 126.5293)" display="inline" font-family="'ArialRoundedMTBold'" font-size="3.2863">SALTO</text>
		
			<text transform="matrix(0.8506 0 0 1 213.9044 130.6377)" display="inline" font-family="'ArialRoundedMTBold'" font-size="3.2863"> DEL </text>
		
			<text transform="matrix(0.8506 0 0 1 213.9044 134.7451)" display="inline" font-family="'ArialRoundedMTBold'" font-size="3.2863">AGUA</text>
		
			<text transform="matrix(0.8506 0 0 1 227.2305 128.4561)" display="inline" font-family="'ArialRoundedMTBold'" font-size="3.2863">SAN JUAN</text>
		
			<text transform="matrix(0.8506 0 0 1 227.2305 132.5635)" display="inline" font-family="'ArialRoundedMTBold'" font-size="3.2863">DE LETRAN</text>
		
			<text transform="matrix(0.8506 0 0 1 228.7774 140.8662)" display="inline" font-family="'ArialRoundedMTBold'" font-size="3.2863">ISABEL</text>
		
			<text transform="matrix(0.8506 0 0 1 228.7774 144.9736)" display="inline" font-family="'ArialRoundedMTBold'" font-size="3.2863">LA CATÓLICA</text>
		
			<text transform="matrix(0.8506 0 0 1 250.8858 140.7822)" display="inline" font-family="'ArialRoundedMTBold'" font-size="3.2863">PINO </text>
		
			<text transform="matrix(0.8506 0 0 1 250.8858 144.8896)" display="inline" font-family="'ArialRoundedMTBold'" font-size="3.2863">SUAREZ</text>
		
			<text transform="matrix(0.8506 0 0 1 262.3663 140.1943)" display="inline" font-family="'ArialRoundedMTBold'" font-size="3.2863">MERCED</text>
		
			<text transform="matrix(0.8506 0 0 1 262.3663 127.5781)" display="inline" font-family="'ArialRoundedMTBold'" font-size="3.2863">CANDELARIA</text>
		
			<text transform="matrix(0.8506 0 0 1 291.4571 134.2646)" display="inline" font-family="'ArialRoundedMTBold'" font-size="3.2863">SAN </text>
		
			<text transform="matrix(0.8506 0 0 1 291.4571 138.3721)" display="inline" font-family="'ArialRoundedMTBold'" font-size="3.2863">LÁZARO</text>
		
			<text transform="matrix(0.8506 0 0 1 309.5381 134.4824)" display="inline" font-family="'ArialRoundedMTBold'" font-size="3.2863">MOCTEZUMA</text>
		
			<text transform="matrix(0.8506 0 0 1 314.877 141.5684)" display="inline" font-family="'ArialRoundedMTBold'" font-size="3.2863">BALBUENA</text>
		
			<text transform="matrix(0.8506 0 0 1 330.0401 150.8975)" display="inline" font-family="'ArialRoundedMTBold'" font-size="3.2863">GOMEZ</text>
		
			<text transform="matrix(0.8506 0 0 1 330.0401 155.0059)" display="inline" font-family="'ArialRoundedMTBold'" font-size="3.2863">FARIAS</text>
		
			<text transform="matrix(0.8506 0 0 1 308.1915 154.3564)" display="inline" font-family="'ArialRoundedMTBold'" font-size="3.2863">BLV. PTO.</text>
		
			<text transform="matrix(0.8506 0 0 1 308.1915 158.4648)" display="inline" font-family="'ArialRoundedMTBold'" font-size="3.2863">AEREO</text>
		
			<text transform="matrix(0.8506 0 0 1 331.8956 167.9912)" display="inline" font-family="'ArialRoundedMTBold'" font-size="3.2863">ZARAGOZA</text>
	</g>
	
		<path id="path3430" sodipodi:type="arc" sodipodi:cx="90.917969" sodipodi:cy="389.8299" sodipodi:rx="2.8320312" sodipodi:ry="2.6367188" fill="#FFFFFF" d="
		M39.355,151.191c0,0.666-0.492,1.205-1.102,1.205s-1.102-0.539-1.102-1.205s0.493-1.206,1.102-1.206
		C38.861,149.985,39.355,150.525,39.355,151.191z"/>
	
		<path id="path3430-1" sodipodi:type="arc" sodipodi:cx="90.917969" sodipodi:cy="389.8299" sodipodi:rx="2.8320312" sodipodi:ry="2.6367188" fill="#FFFFFF" d="
		M63.023,137.123c0,0.666-0.494,1.205-1.103,1.205c-0.609,0-1.103-0.539-1.103-1.205s0.494-1.206,1.103-1.206
		S63.023,136.457,63.023,137.123z"/>
	
		<path id="path3430-7" sodipodi:type="arc" sodipodi:cx="90.917969" sodipodi:cy="389.8299" sodipodi:rx="2.8320312" sodipodi:ry="2.6367188" fill="#FFFFFF" d="
		M70.24,132.21c0,0.666-0.494,1.206-1.103,1.206s-1.103-0.54-1.103-1.206s0.494-1.205,1.103-1.205S70.24,131.544,70.24,132.21z"/>
	
		<path id="path3430-4" sodipodi:type="arc" sodipodi:cx="90.917969" sodipodi:cy="389.8299" sodipodi:rx="2.8320312" sodipodi:ry="2.6367188" fill="#FFFFFF" d="
		M78.977,130.425c0,0.666-0.494,1.205-1.102,1.205c-0.608,0-1.102-0.539-1.102-1.205s0.492-1.207,1.102-1.207
		S78.977,129.759,78.977,130.425z"/>
	
		<path id="path3430-0" sodipodi:type="arc" sodipodi:cx="90.917969" sodipodi:cy="389.8299" sodipodi:rx="2.8320312" sodipodi:ry="2.6367188" fill="#FFFFFF" d="
		M87.259,129.084c0,0.666-0.494,1.205-1.103,1.205c-0.607,0-1.102-0.539-1.102-1.205c0-0.665,0.493-1.206,1.102-1.206
		C86.766,127.878,87.259,128.419,87.259,129.084z"/>
	
		<path id="path3430-9" sodipodi:type="arc" sodipodi:cx="90.917969" sodipodi:cy="389.8299" sodipodi:rx="2.8320312" sodipodi:ry="2.6367188" fill="#FFFFFF" d="
		M97.363,127.118c0,0.666-0.494,1.206-1.103,1.206s-1.103-0.54-1.103-1.206s0.494-1.205,1.103-1.205S97.363,126.452,97.363,127.118z
		"/>
	
		<path id="path3430-48" sodipodi:type="arc" sodipodi:cx="90.917969" sodipodi:cy="389.8299" sodipodi:rx="2.8320312" sodipodi:ry="2.6367188" fill="#FFFFFF" d="
		M133.148,125.247c0,0.666-0.494,1.206-1.103,1.206s-1.103-0.54-1.103-1.206s0.493-1.206,1.103-1.206
		C132.654,124.041,133.148,124.581,133.148,125.247z"/>
	
		<path id="path3430-8" sodipodi:type="arc" sodipodi:cx="90.917969" sodipodi:cy="389.8299" sodipodi:rx="2.8320312" sodipodi:ry="2.6367188" fill="#FFFFFF" d="
		M159.281,125.02c0,0.665-0.492,1.206-1.102,1.206s-1.102-0.541-1.102-1.206c0-0.666,0.492-1.206,1.102-1.206
		S159.281,124.354,159.281,125.02z"/>
	
		<path id="path3430-2" sodipodi:type="arc" sodipodi:cx="90.917969" sodipodi:cy="389.8299" sodipodi:rx="2.8320312" sodipodi:ry="2.6367188" fill="#FFFFFF" d="
		M204.031,124.886c0,0.666-0.493,1.207-1.102,1.207c-0.609,0-1.102-0.541-1.102-1.207s0.491-1.205,1.102-1.205
		C203.538,123.679,204.031,124.22,204.031,124.886z"/>
	
		<path id="path3430-45" sodipodi:type="arc" sodipodi:cx="90.917969" sodipodi:cy="389.8299" sodipodi:rx="2.8320312" sodipodi:ry="2.6367188" fill="#FFFFFF" d="
		M210.338,131.763c0,0.666-0.493,1.205-1.103,1.205c-0.608,0-1.102-0.539-1.102-1.205s0.493-1.205,1.102-1.205
		C209.845,130.558,210.338,131.097,210.338,131.763z"/>
	
		<path id="path3430-5" sodipodi:type="arc" sodipodi:cx="90.917969" sodipodi:cy="389.8299" sodipodi:rx="2.8320312" sodipodi:ry="2.6367188" fill="#FFFFFF" d="
		M218.315,139.445c0,0.666-0.493,1.206-1.102,1.206c-0.609,0-1.103-0.54-1.103-1.206s0.492-1.206,1.103-1.206
		C217.821,138.239,218.315,138.779,218.315,139.445z"/>
	
		<path id="path3430-17" sodipodi:type="arc" sodipodi:cx="90.917969" sodipodi:cy="389.8299" sodipodi:rx="2.8320312" sodipodi:ry="2.6367188" fill="#FFFFFF" d="
		M227.509,145.787c0,0.666-0.494,1.206-1.103,1.206s-1.103-0.54-1.103-1.206s0.493-1.206,1.103-1.206
		C227.015,144.581,227.509,145.121,227.509,145.787z"/>
	
		<path id="path3430-11" sodipodi:type="arc" sodipodi:cx="90.917969" sodipodi:cy="389.8299" sodipodi:rx="2.8320312" sodipodi:ry="2.6367188" fill="#FFFFFF" d="
		M236.169,151.414c0,0.666-0.492,1.206-1.103,1.206c-0.606,0-1.102-0.54-1.102-1.206s0.494-1.206,1.102-1.206
		C235.677,150.208,236.169,150.748,236.169,151.414z"/>
	
		<path id="path3430-93" sodipodi:type="arc" sodipodi:cx="90.917969" sodipodi:cy="389.8299" sodipodi:rx="2.8320312" sodipodi:ry="2.6367188" fill="#FFFFFF" d="
		M113.85,215.726c0,0.666-0.492,1.207-1.102,1.207s-1.102-0.541-1.102-1.207s0.492-1.205,1.102-1.205S113.85,215.06,113.85,215.726z
		"/>
	
		<path id="path3430-19" sodipodi:type="arc" sodipodi:cx="90.917969" sodipodi:cy="389.8299" sodipodi:rx="2.8320312" sodipodi:ry="2.6367188" fill="#FFFFFF" d="
		M98.236,208.046c0,0.666-0.492,1.205-1.102,1.205s-1.102-0.539-1.102-1.205s0.492-1.207,1.102-1.207S98.236,207.38,98.236,208.046z
		"/>
	
		<path id="path3430-86" sodipodi:type="arc" sodipodi:cx="90.917969" sodipodi:cy="389.8299" sodipodi:rx="2.8320312" sodipodi:ry="2.6367188" fill="#FFFFFF" d="
		M95.084,200.988c0,0.666-0.494,1.206-1.102,1.206c-0.609,0-1.103-0.54-1.103-1.206s0.493-1.206,1.103-1.206
		C94.591,199.782,95.084,200.322,95.084,200.988z"/>
	
		<path id="path3430-50" sodipodi:type="arc" sodipodi:cx="90.917969" sodipodi:cy="389.8299" sodipodi:rx="2.8320312" sodipodi:ry="2.6367188" fill="#FFFFFF" d="
		M96.566,193.753c0,0.666-0.494,1.207-1.103,1.207s-1.103-0.541-1.103-1.207s0.494-1.205,1.103-1.205S96.566,193.087,96.566,193.753
		z"/>
	
		<path id="path3430-28" sodipodi:type="arc" sodipodi:cx="90.917969" sodipodi:cy="389.8299" sodipodi:rx="2.8320312" sodipodi:ry="2.6367188" fill="#FFFFFF" d="
		M97.211,186.251c0,0.665-0.493,1.205-1.102,1.205c-0.609,0-1.103-0.54-1.103-1.205c0-0.666,0.493-1.207,1.103-1.207
		C96.718,185.044,97.211,185.585,97.211,186.251z"/>
	
		<path id="path3430-6" sodipodi:type="arc" sodipodi:cx="90.917969" sodipodi:cy="389.8299" sodipodi:rx="2.8320312" sodipodi:ry="2.6367188" fill="#FFFFFF" d="
		M97.477,180.042c0,0.666-0.492,1.206-1.102,1.206s-1.102-0.54-1.102-1.206s0.492-1.205,1.102-1.205S97.477,179.376,97.477,180.042z
		"/>
	
		<path id="path3430-02" sodipodi:type="arc" sodipodi:cx="90.917969" sodipodi:cy="389.8299" sodipodi:rx="2.8320312" sodipodi:ry="2.6367188" fill="#FFFFFF" d="
		M100.592,173.655c0,0.666-0.493,1.206-1.102,1.206c-0.609,0-1.103-0.54-1.103-1.206s0.493-1.205,1.103-1.205
		C100.099,172.45,100.592,172.989,100.592,173.655z"/>
	
		<path id="path3430-486" sodipodi:type="arc" sodipodi:cx="90.917969" sodipodi:cy="389.8299" sodipodi:rx="2.8320312" sodipodi:ry="2.6367188" fill="#FFFFFF" d="
		M101.693,166.421c0,0.666-0.492,1.205-1.102,1.205s-1.102-0.539-1.102-1.205s0.492-1.205,1.102-1.205
		S101.693,165.755,101.693,166.421z"/>
	
		<path id="path3430-509" sodipodi:type="arc" sodipodi:cx="90.917969" sodipodi:cy="389.8299" sodipodi:rx="2.8320312" sodipodi:ry="2.6367188" fill="#FFFFFF" d="
		M101.617,160.57c0,0.666-0.494,1.205-1.103,1.205s-1.103-0.539-1.103-1.205s0.494-1.206,1.103-1.206
		S101.617,159.904,101.617,160.57z"/>
	
		<path id="path3430-00" sodipodi:type="arc" sodipodi:cx="90.917969" sodipodi:cy="389.8299" sodipodi:rx="2.8320312" sodipodi:ry="2.6367188" fill="#FFFFFF" d="
		M101.846,144.091c0,0.666-0.493,1.205-1.102,1.205c-0.609,0-1.103-0.539-1.103-1.205s0.494-1.207,1.103-1.207
		C101.352,142.884,101.846,143.425,101.846,144.091z"/>
	
		<path id="path3430-61" sodipodi:type="arc" sodipodi:cx="90.917969" sodipodi:cy="389.8299" sodipodi:rx="2.8320312" sodipodi:ry="2.6367188" fill="#FFFFFF" d="
		M105.758,135.47c0,0.666-0.493,1.205-1.102,1.205c-0.609,0-1.103-0.539-1.103-1.205s0.493-1.205,1.103-1.205
		C105.265,134.265,105.758,134.804,105.758,135.47z"/>
	
		<path id="path3430-38" sodipodi:type="arc" sodipodi:cx="90.917969" sodipodi:cy="389.8299" sodipodi:rx="2.8320312" sodipodi:ry="2.6367188" fill="#FFFFFF" d="
		M107.734,116.935c0,0.666-0.494,1.207-1.103,1.207s-1.103-0.541-1.103-1.207c0-0.665,0.494-1.205,1.103-1.205
		S107.734,116.27,107.734,116.935z"/>
	
		<path id="path3430-934" sodipodi:type="arc" sodipodi:cx="90.917969" sodipodi:cy="389.8299" sodipodi:rx="2.8320312" sodipodi:ry="2.6367188" fill="#FFFFFF" d="
		M113.66,76.07c0,0.666-0.494,1.206-1.103,1.206s-1.103-0.54-1.103-1.206s0.494-1.206,1.103-1.206S113.66,75.404,113.66,76.07z"/>
	
		<path id="path3430-46" sodipodi:type="arc" sodipodi:cx="90.917969" sodipodi:cy="389.8299" sodipodi:rx="2.8320312" sodipodi:ry="2.6367188" fill="#FFFFFF" d="
		M141.732,45.21c0,0.666-0.492,1.206-1.102,1.206s-1.102-0.54-1.102-1.206s0.492-1.205,1.102-1.205S141.732,44.544,141.732,45.21z"
		/>
	
		<path id="path3430-06" sodipodi:type="arc" sodipodi:cx="90.917969" sodipodi:cy="389.8299" sodipodi:rx="2.8320312" sodipodi:ry="2.6367188" fill="#FFFFFF" d="
		M161.107,16.091c0,0.666-0.494,1.207-1.103,1.207c-0.609,0-1.103-0.541-1.103-1.207s0.492-1.205,1.103-1.205
		C160.613,14.886,161.107,15.425,161.107,16.091z"/>
	
		<path id="path3430-618" sodipodi:type="arc" sodipodi:cx="90.917969" sodipodi:cy="389.8299" sodipodi:rx="2.8320312" sodipodi:ry="2.6367188" fill="#FFFFFF" d="
		M193.681,53.147c0,0.666-0.493,1.206-1.102,1.206c-0.609,0-1.103-0.54-1.103-1.206s0.492-1.206,1.103-1.206
		C193.188,51.942,193.681,52.481,193.681,53.147z"/>
	
		<path id="path3430-49" sodipodi:type="arc" sodipodi:cx="90.917969" sodipodi:cy="389.8299" sodipodi:rx="2.8320312" sodipodi:ry="2.6367188" fill="#FFFFFF" d="
		M184.261,71.312c0,0.666-0.492,1.205-1.102,1.205c-0.607,0-1.103-0.539-1.103-1.205s0.494-1.206,1.103-1.206
		C183.769,70.106,184.261,70.646,184.261,71.312z"/>
	
		<path id="path3430-63" sodipodi:type="arc" sodipodi:cx="90.917969" sodipodi:cy="389.8299" sodipodi:rx="2.8320312" sodipodi:ry="2.6367188" fill="#FFFFFF" d="
		M182.175,95.849c0,0.666-0.492,1.207-1.103,1.207c-0.606,0-1.102-0.541-1.102-1.207s0.494-1.205,1.102-1.205
		C181.683,94.644,182.175,95.183,182.175,95.849z"/>
	
		<path id="path3430-78" sodipodi:type="arc" sodipodi:cx="90.917969" sodipodi:cy="389.8299" sodipodi:rx="2.8320312" sodipodi:ry="2.6367188" fill="#FFFFFF" d="
		M174.091,132.704c0,0.666-0.494,1.206-1.103,1.206s-1.103-0.54-1.103-1.206s0.493-1.206,1.103-1.206
		C173.597,131.498,174.091,132.038,174.091,132.704z"/>
	
		<path id="path3430-82" sodipodi:type="arc" sodipodi:cx="90.917969" sodipodi:cy="389.8299" sodipodi:rx="2.8320312" sodipodi:ry="2.6367188" fill="#FFFFFF" d="
		M97.912,24.194c0,0.666-0.493,1.206-1.103,1.206c-0.608,0-1.103-0.54-1.103-1.206s0.494-1.206,1.103-1.206
		C97.419,22.988,97.912,23.528,97.912,24.194z"/>
	
		<path id="path3430-91" sodipodi:type="arc" sodipodi:cx="90.917969" sodipodi:cy="389.8299" sodipodi:rx="2.8320312" sodipodi:ry="2.6367188" fill="#FFFFFF" d="
		M111.934,47.026c0,0.666-0.492,1.206-1.102,1.206c-0.608,0-1.102-0.54-1.102-1.206s0.492-1.206,1.102-1.206
		C111.441,45.821,111.934,46.36,111.934,47.026z"/>
	
		<path id="path3430-35" sodipodi:type="arc" sodipodi:cx="90.917969" sodipodi:cy="389.8299" sodipodi:rx="2.8320312" sodipodi:ry="2.6367188" fill="#FFFFFF" d="
		M134.766,73.459c0,0.666-0.493,1.206-1.102,1.206c-0.609,0-1.103-0.54-1.103-1.206c0-0.665,0.493-1.206,1.103-1.206
		S134.766,72.794,134.766,73.459z"/>
	
		<path id="path3430-98" sodipodi:type="arc" sodipodi:cx="90.917969" sodipodi:cy="389.8299" sodipodi:rx="2.8320312" sodipodi:ry="2.6367188" fill="#FFFFFF" d="
		M161.089,76.429c0,0.666-0.492,1.205-1.103,1.205c-0.606,0-1.102-0.539-1.102-1.205s0.494-1.207,1.102-1.207
		C160.597,75.222,161.089,75.761,161.089,76.429z"/>
	
		<path id="path3430-40" sodipodi:type="arc" sodipodi:cx="90.917969" sodipodi:cy="389.8299" sodipodi:rx="2.8320312" sodipodi:ry="2.6367188" fill="#FFFFFF" d="
		M192.813,88.491c0,0.666-0.493,1.206-1.102,1.206c-0.609,0-1.103-0.54-1.103-1.206s0.493-1.206,1.103-1.206
		C192.319,87.285,192.813,87.825,192.813,88.491z"/>
	
		<path id="path3430-763" sodipodi:type="arc" sodipodi:cx="90.917969" sodipodi:cy="389.8299" sodipodi:rx="2.8320312" sodipodi:ry="2.6367188" fill="#FFFFFF" d="
		M210.541,84.165c0,0.666-0.493,1.206-1.103,1.206c-0.608,0-1.103-0.54-1.103-1.206s0.494-1.205,1.103-1.205
		C210.048,82.96,210.541,83.499,210.541,84.165z"/>
	
		<path id="path3430-615" sodipodi:type="arc" sodipodi:cx="90.917969" sodipodi:cy="389.8299" sodipodi:rx="2.8320312" sodipodi:ry="2.6367188" fill="#FFFFFF" d="
		M242.349,107.454c0,0.666-0.492,1.206-1.102,1.206c-0.607,0-1.103-0.54-1.103-1.206s0.494-1.206,1.103-1.206
		C241.856,106.248,242.349,106.788,242.349,107.454z"/>
	
		<path id="path3430-420" sodipodi:type="arc" sodipodi:cx="90.917969" sodipodi:cy="389.8299" sodipodi:rx="2.8320312" sodipodi:ry="2.6367188" fill="#FFFFFF" d="
		M235.319,128.813c0,0.666-0.493,1.206-1.102,1.206c-0.609,0-1.102-0.54-1.102-1.206s0.491-1.206,1.102-1.206
		C234.824,127.606,235.319,128.146,235.319,128.813z"/>
	
		<path id="path3430-97" sodipodi:type="arc" sodipodi:cx="90.917969" sodipodi:cy="389.8299" sodipodi:rx="2.8320312" sodipodi:ry="2.6367188" fill="#FFFFFF" d="
		M174.949,37.427c0,0.666-0.494,1.205-1.102,1.205c-0.609,0-1.102-0.539-1.102-1.205s0.492-1.207,1.102-1.207
		C174.455,36.22,174.949,36.761,174.949,37.427z"/>
	
		<path id="path3430-37" sodipodi:type="arc" sodipodi:cx="90.917969" sodipodi:cy="389.8299" sodipodi:rx="2.8320312" sodipodi:ry="2.6367188" fill="#FFFFFF" d="
		M127.352,33.194c0,0.666-0.492,1.206-1.102,1.206s-1.102-0.54-1.102-1.206s0.492-1.206,1.102-1.206S127.352,32.528,127.352,33.194z
		"/>
	
		<path id="path3430-26" sodipodi:type="arc" sodipodi:cx="90.917969" sodipodi:cy="389.8299" sodipodi:rx="2.8320312" sodipodi:ry="2.6367188" fill="#FFFFFF" d="
		M92.861,41.531c0,0.666-0.492,1.206-1.102,1.206s-1.102-0.54-1.102-1.206s0.494-1.206,1.102-1.206S92.861,40.865,92.861,41.531z"/>
	
		<path id="path3430-01" sodipodi:type="arc" sodipodi:cx="90.917969" sodipodi:cy="389.8299" sodipodi:rx="2.8320312" sodipodi:ry="2.6367188" fill="#FFFFFF" d="
		M85.072,38.657c0,0.666-0.492,1.206-1.102,1.206s-1.102-0.54-1.102-1.206s0.492-1.206,1.102-1.206S85.072,37.991,85.072,38.657z"/>
	
		<path id="path3430-65" sodipodi:type="arc" sodipodi:cx="90.917969" sodipodi:cy="389.8299" sodipodi:rx="2.8320312" sodipodi:ry="2.6367188" fill="#FFFFFF" d="
		M69.376,43c0,0.666-0.493,1.206-1.103,1.206s-1.102-0.54-1.102-1.206s0.492-1.206,1.102-1.206S69.376,42.334,69.376,43z"/>
	
		<path id="path3430-75" sodipodi:type="arc" sodipodi:cx="90.917969" sodipodi:cy="389.8299" sodipodi:rx="2.8320312" sodipodi:ry="2.6367188" fill="#FFFFFF" d="
		M55.373,45.895c0,0.665-0.494,1.206-1.103,1.206s-1.102-0.541-1.102-1.206c0-0.666,0.493-1.206,1.102-1.206
		C54.88,44.688,55.373,45.229,55.373,45.895z"/>
	
		<path id="path3430-41" sodipodi:type="arc" sodipodi:cx="90.917969" sodipodi:cy="389.8299" sodipodi:rx="2.8320312" sodipodi:ry="2.6367188" fill="#FFFFFF" d="
		M36.131,35.81c0,0.666-0.493,1.207-1.102,1.207c-0.609,0-1.103-0.541-1.103-1.207c0-0.665,0.493-1.205,1.103-1.205
		C35.638,34.604,36.131,35.145,36.131,35.81z"/>
	
		<path id="path3430-20" sodipodi:type="arc" sodipodi:cx="90.917969" sodipodi:cy="389.8299" sodipodi:rx="2.8320312" sodipodi:ry="2.6367188" fill="#FFFFFF" d="
		M60.914,190.243c0,0.666-0.492,1.206-1.102,1.206s-1.102-0.54-1.102-1.206s0.492-1.206,1.102-1.206S60.914,189.577,60.914,190.243z
		"/>
	
		<path id="path3430-014" sodipodi:type="arc" sodipodi:cx="90.917969" sodipodi:cy="389.8299" sodipodi:rx="2.8320312" sodipodi:ry="2.6367188" fill="#FFFFFF" d="
		M61.031,175.369c0,0.666-0.494,1.206-1.103,1.206s-1.103-0.54-1.103-1.206s0.494-1.206,1.103-1.206S61.031,174.703,61.031,175.369z
		"/>
	
		<path id="path3430-60" sodipodi:type="arc" sodipodi:cx="90.917969" sodipodi:cy="389.8299" sodipodi:rx="2.8320312" sodipodi:ry="2.6367188" fill="#FFFFFF" d="
		M61.085,167.821c0,0.666-0.493,1.206-1.103,1.206s-1.102-0.54-1.102-1.206s0.492-1.206,1.102-1.206S61.085,167.155,61.085,167.821z
		"/>
	
		<path id="path3430-71" sodipodi:type="arc" sodipodi:cx="90.917969" sodipodi:cy="389.8299" sodipodi:rx="2.8320312" sodipodi:ry="2.6367188" fill="#FFFFFF" d="
		M61.17,160.563c0,0.666-0.493,1.206-1.102,1.206c-0.609,0-1.103-0.54-1.103-1.206s0.493-1.206,1.103-1.206
		C60.677,159.357,61.17,159.897,61.17,160.563z"/>
	
		<path id="path3430-777" sodipodi:type="arc" sodipodi:cx="90.917969" sodipodi:cy="389.8299" sodipodi:rx="2.8320312" sodipodi:ry="2.6367188" fill="#FFFFFF" d="
		M47.197,134.03c0,0.666-0.492,1.206-1.102,1.206c-0.607,0-1.102-0.54-1.102-1.206s0.492-1.206,1.102-1.206
		S47.197,133.364,47.197,134.03z"/>
	
		<path id="path3430-73" sodipodi:type="arc" sodipodi:cx="90.917969" sodipodi:cy="389.8299" sodipodi:rx="2.8320312" sodipodi:ry="2.6367188" fill="#FFFFFF" d="
		M50.269,121.987c0,0.666-0.493,1.206-1.103,1.206c-0.608,0-1.102-0.54-1.102-1.206s0.494-1.206,1.102-1.206
		C49.775,120.781,50.269,121.321,50.269,121.987z"/>
	
		<path id="path3430-359" sodipodi:type="arc" sodipodi:cx="90.917969" sodipodi:cy="389.8299" sodipodi:rx="2.8320312" sodipodi:ry="2.6367188" fill="#FFFFFF" d="
		M53.259,109.197c0,0.666-0.493,1.206-1.103,1.206c-0.608,0-1.102-0.54-1.102-1.206s0.493-1.206,1.102-1.206
		C52.766,107.991,53.259,108.531,53.259,109.197z"/>
	
		<path id="path3430-981" sodipodi:type="arc" sodipodi:cx="90.917969" sodipodi:cy="389.8299" sodipodi:rx="2.8320312" sodipodi:ry="2.6367188" fill="#FFFFFF" d="
		M56.76,95.813c0,0.666-0.493,1.206-1.102,1.206c-0.609,0-1.103-0.54-1.103-1.206s0.494-1.206,1.103-1.206
		C56.266,94.606,56.76,95.146,56.76,95.813z"/>
	
		<path id="path3430-826" sodipodi:type="arc" sodipodi:cx="90.917969" sodipodi:cy="389.8299" sodipodi:rx="2.8320312" sodipodi:ry="2.6367188" fill="#FFFFFF" d="
		M51.679,69.327c0,0.666-0.493,1.206-1.103,1.206c-0.608,0-1.102-0.54-1.102-1.206s0.493-1.206,1.102-1.206
		C51.186,68.121,51.679,68.662,51.679,69.327z"/>
	
		<path id="path3430-603" sodipodi:type="arc" sodipodi:cx="90.917969" sodipodi:cy="389.8299" sodipodi:rx="2.8320312" sodipodi:ry="2.6367188" fill="#FFFFFF" d="
		M46.328,53.942c0,0.666-0.492,1.206-1.102,1.206s-1.102-0.54-1.102-1.206s0.492-1.206,1.102-1.206S46.328,53.276,46.328,53.942z"/>
	
		<path id="path3430-80" sodipodi:type="arc" sodipodi:cx="90.917969" sodipodi:cy="389.8299" sodipodi:rx="2.8320312" sodipodi:ry="2.6367188" fill="#FFFFFF" d="
		M32.183,41.121c0,0.666-0.493,1.206-1.103,1.206c-0.607,0-1.102-0.54-1.102-1.206s0.493-1.206,1.102-1.206
		C31.689,39.915,32.183,40.455,32.183,41.121z"/>
	
		<path id="path3430-38-1" sodipodi:type="arc" sodipodi:cx="90.917969" sodipodi:cy="389.8299" sodipodi:rx="2.8320312" sodipodi:ry="2.6367188" fill="#FFFFFF" d="
		M122.947,115.998c0,0.666-0.494,1.206-1.103,1.206s-1.103-0.54-1.103-1.206s0.494-1.206,1.103-1.206
		S122.947,115.332,122.947,115.998z"/>
	
		<path id="path3430-38-2" sodipodi:type="arc" sodipodi:cx="90.917969" sodipodi:cy="389.8299" sodipodi:rx="2.8320312" sodipodi:ry="2.6367188" fill="#FFFFFF" d="
		M122.343,139.683c0,0.666-0.494,1.207-1.103,1.207c-0.607,0-1.102-0.541-1.102-1.207s0.493-1.205,1.102-1.205
		C121.85,138.478,122.343,139.017,122.343,139.683z"/>
	
		<path id="path3430-38-5" sodipodi:type="arc" sodipodi:cx="90.917969" sodipodi:cy="389.8299" sodipodi:rx="2.8320312" sodipodi:ry="2.6367188" fill="#FFFFFF" d="
		M131.396,146.494c0,0.666-0.492,1.206-1.102,1.206s-1.102-0.54-1.102-1.206s0.492-1.206,1.102-1.206
		S131.396,145.828,131.396,146.494z"/>
	
		<path id="path3430-38-0" sodipodi:type="arc" sodipodi:cx="90.917969" sodipodi:cy="389.8299" sodipodi:rx="2.8320312" sodipodi:ry="2.6367188" fill="#FFFFFF" d="
		M153.085,160.273c0,0.666-0.493,1.206-1.103,1.206c-0.608,0-1.102-0.54-1.102-1.206s0.494-1.206,1.102-1.206
		C152.591,159.067,153.085,159.607,153.085,160.273z"/>
	
		<path id="path3430-38-9" sodipodi:type="arc" sodipodi:cx="90.917969" sodipodi:cy="389.8299" sodipodi:rx="2.8320312" sodipodi:ry="2.6367188" fill="#FFFFFF" d="
		M170.705,173.347c0,0.666-0.493,1.207-1.102,1.207c-0.609,0-1.102-0.541-1.102-1.207s0.492-1.205,1.102-1.205
		C170.212,172.142,170.705,172.681,170.705,173.347z"/>
	
		<path id="path3430-38-4" sodipodi:type="arc" sodipodi:cx="90.917969" sodipodi:cy="389.8299" sodipodi:rx="2.8320312" sodipodi:ry="2.6367188" fill="#FFFFFF" d="
		M171.32,180.802c0,0.666-0.494,1.205-1.103,1.205s-1.103-0.539-1.103-1.205s0.492-1.207,1.103-1.207
		C170.824,179.595,171.32,180.136,171.32,180.802z"/>
	
		<path id="path3430-38-7" sodipodi:type="arc" sodipodi:cx="90.917969" sodipodi:cy="389.8299" sodipodi:rx="2.8320312" sodipodi:ry="2.6367188" fill="#FFFFFF" d="
		M171.621,186.296c0,0.666-0.493,1.207-1.102,1.207c-0.609,0-1.102-0.541-1.102-1.207s0.492-1.205,1.102-1.205
		C171.128,185.091,171.621,185.63,171.621,186.296z"/>
	
		<path id="path3430-38-8" sodipodi:type="arc" sodipodi:cx="90.917969" sodipodi:cy="389.8299" sodipodi:rx="2.8320312" sodipodi:ry="2.6367188" fill="#FFFFFF" d="
		M171.878,192.675c0,0.666-0.492,1.207-1.103,1.207c-0.606,0-1.102-0.541-1.102-1.207s0.494-1.205,1.102-1.205
		C171.386,191.47,171.878,192.009,171.878,192.675z"/>
	
		<path id="path3430-38-3" sodipodi:type="arc" sodipodi:cx="90.917969" sodipodi:cy="389.8299" sodipodi:rx="2.8320312" sodipodi:ry="2.6367188" fill="#FFFFFF" d="
		M172.318,202.718c0,0.666-0.494,1.207-1.103,1.207s-1.103-0.541-1.103-1.207s0.494-1.205,1.103-1.205
		S172.318,202.052,172.318,202.718z"/>
	
		<path id="path3430-38-51" sodipodi:type="arc" sodipodi:cx="90.917969" sodipodi:cy="389.8299" sodipodi:rx="2.8320312" sodipodi:ry="2.6367188" fill="#FFFFFF" d="
		M182.632,212.57c0,0.666-0.493,1.206-1.103,1.206c-0.608,0-1.102-0.54-1.102-1.206s0.493-1.205,1.102-1.205
		C182.139,211.365,182.632,211.904,182.632,212.57z"/>
	
		<path id="path3430-38-20" sodipodi:type="arc" sodipodi:cx="90.917969" sodipodi:cy="389.8299" sodipodi:rx="2.8320312" sodipodi:ry="2.6367188" fill="#FFFFFF" d="
		M205.571,208.781c0-0.666-0.492-1.206-1.102-1.206s-1.102,0.54-1.102,1.206s0.492,1.206,1.102,1.206
		S205.571,209.447,205.571,208.781z"/>
	
		<path id="path3430-38-16" sodipodi:type="arc" sodipodi:cx="90.917969" sodipodi:cy="389.8299" sodipodi:rx="2.8320312" sodipodi:ry="2.6367188" fill="#FFFFFF" d="
		M212.233,211.876c0,0.666-0.493,1.206-1.102,1.206c-0.609,0-1.103-0.54-1.103-1.206s0.492-1.205,1.103-1.205
		C211.74,210.671,212.233,211.21,212.233,211.876z"/>
	
		<path id="path3430-38-40" sodipodi:type="arc" sodipodi:cx="90.917969" sodipodi:cy="389.8299" sodipodi:rx="2.8320312" sodipodi:ry="2.6367188" fill="#FFFFFF" d="
		M222.87,210.107c0-0.666-0.493-1.206-1.103-1.206c-0.608,0-1.102,0.54-1.102,1.206s0.493,1.206,1.102,1.206
		C222.377,211.313,222.87,210.773,222.87,210.107z"/>
	
		<path id="path3430-38-6" sodipodi:type="arc" sodipodi:cx="90.917969" sodipodi:cy="389.8299" sodipodi:rx="2.8320312" sodipodi:ry="2.6367188" fill="#FFFFFF" d="
		M233.829,208.402c0,0.666-0.492,1.205-1.103,1.205c-0.606,0-1.102-0.539-1.102-1.205s0.494-1.206,1.102-1.206
		C233.337,207.196,233.829,207.736,233.829,208.402z"/>
	
		<path id="path3430-38-18" sodipodi:type="arc" sodipodi:cx="90.917969" sodipodi:cy="389.8299" sodipodi:rx="2.8320312" sodipodi:ry="2.6367188" fill="#FFFFFF" d="
		M70.81,145.206c0,0.666-0.493,1.206-1.103,1.206c-0.608,0-1.102-0.54-1.102-1.206s0.493-1.205,1.102-1.205
		C70.316,144.001,70.81,144.54,70.81,145.206z"/>
	
		<path id="path3430-38-98" sodipodi:type="arc" sodipodi:cx="90.917969" sodipodi:cy="389.8299" sodipodi:rx="2.8320312" sodipodi:ry="2.6367188" fill="#FFFFFF" d="
		M82.434,146.591c0,0.666-0.492,1.207-1.102,1.207s-1.102-0.541-1.102-1.207s0.492-1.205,1.102-1.205S82.434,145.925,82.434,146.591
		z"/>
	
		<path id="path3430-38-41" sodipodi:type="arc" sodipodi:cx="90.917969" sodipodi:cy="389.8299" sodipodi:rx="2.8320312" sodipodi:ry="2.6367188" fill="#FFFFFF" d="
		M118.142,152.933c0,0.666-0.493,1.205-1.103,1.205c-0.608,0-1.102-0.539-1.102-1.205s0.494-1.207,1.102-1.207
		C117.648,151.726,118.142,152.267,118.142,152.933z"/>
	
		<path id="path3430-38-43" sodipodi:type="arc" sodipodi:cx="90.917969" sodipodi:cy="389.8299" sodipodi:rx="2.8320312" sodipodi:ry="2.6367188" fill="#FFFFFF" d="
		M178.429,156.863c0,0.666-0.494,1.206-1.102,1.206c-0.609,0-1.103-0.54-1.103-1.206s0.492-1.206,1.103-1.206
		C177.935,155.657,178.429,156.197,178.429,156.863z"/>
	
		<path id="path3430-38-988" sodipodi:type="arc" sodipodi:cx="90.917969" sodipodi:cy="389.8299" sodipodi:rx="2.8320312" sodipodi:ry="2.6367188" fill="#FFFFFF" d="
		M204.868,157.757c0,0.666-0.494,1.205-1.103,1.205c-0.609,0-1.102-0.539-1.102-1.205s0.492-1.205,1.102-1.205
		C204.374,156.552,204.868,157.091,204.868,157.757z"/>
	
		<path id="path3430-38-08" sodipodi:type="arc" sodipodi:cx="90.917969" sodipodi:cy="389.8299" sodipodi:rx="2.8320312" sodipodi:ry="2.6367188" fill="#FFFFFF" d="
		M219.797,158.337c0,0.666-0.493,1.206-1.103,1.206c-0.608,0-1.103-0.54-1.103-1.206s0.494-1.205,1.103-1.205
		C219.304,157.132,219.797,157.671,219.797,158.337z"/>
	
		<path id="path3430-38-77" sodipodi:type="arc" sodipodi:cx="90.917969" sodipodi:cy="389.8299" sodipodi:rx="2.8320312" sodipodi:ry="2.6367188" fill="#FFFFFF" d="
		M234.194,159.677c0,0.666-0.493,1.207-1.102,1.207c-0.609,0-1.102-0.541-1.102-1.207s0.491-1.205,1.102-1.205
		C233.699,158.47,234.194,159.011,234.194,159.677z"/>
	
		<path id="path3430-3-8" sodipodi:type="arc" sodipodi:cx="90.917969" sodipodi:cy="389.8299" sodipodi:rx="2.8320312" sodipodi:ry="2.6367188" fill="#FFFFFF" d="
		M99.225,89.692c0,0.666-0.494,1.206-1.102,1.206c-0.608,0-1.102-0.54-1.102-1.206s0.492-1.206,1.102-1.206
		S99.225,89.026,99.225,89.692z"/>
	
		<path id="path3430-3-3" sodipodi:type="arc" sodipodi:cx="90.917969" sodipodi:cy="389.8299" sodipodi:rx="2.8320312" sodipodi:ry="2.6367188" fill="#FFFFFF" d="
		M142.492,100.054c0,0.666-0.494,1.205-1.103,1.205s-1.103-0.539-1.103-1.205s0.494-1.207,1.103-1.207
		S142.492,99.388,142.492,100.054z"/>
	
		<path id="path3430-3-83" sodipodi:type="arc" sodipodi:cx="90.917969" sodipodi:cy="389.8299" sodipodi:rx="2.8320312" sodipodi:ry="2.6367188" fill="#FFFFFF" d="
		M157.156,100.411c0,0.666-0.494,1.206-1.103,1.206s-1.103-0.54-1.103-1.206s0.494-1.206,1.103-1.206
		S157.156,99.745,157.156,100.411z"/>
	
		<path id="path3430-3-7" sodipodi:type="arc" sodipodi:cx="90.917969" sodipodi:cy="389.8299" sodipodi:rx="2.8320312" sodipodi:ry="2.6367188" fill="#FFFFFF" d="
		M217.783,102.466c0,0.666-0.493,1.205-1.103,1.205c-0.608,0-1.102-0.539-1.102-1.205s0.493-1.207,1.102-1.207
		C217.29,101.259,217.783,101.8,217.783,102.466z"/>
	
		<path id="path3430-3-1" sodipodi:type="arc" sodipodi:cx="90.917969" sodipodi:cy="389.8299" sodipodi:rx="2.8320312" sodipodi:ry="2.6367188" fill="#FFFFFF" d="
		M230.472,94.427c0,0.666-0.494,1.207-1.102,1.207c-0.609,0-1.103-0.541-1.103-1.207s0.492-1.205,1.103-1.205
		C229.978,93.22,230.472,93.761,230.472,94.427z"/>
	
		<path id="path3430-3-0" sodipodi:type="arc" sodipodi:cx="90.917969" sodipodi:cy="389.8299" sodipodi:rx="2.8320312" sodipodi:ry="2.6367188" fill="#FFFFFF" d="
		M245.97,82.011c0,0.666-0.492,1.207-1.102,1.207c-0.607,0-1.103-0.541-1.103-1.207s0.494-1.205,1.103-1.205
		C245.478,80.804,245.97,81.345,245.97,82.011z"/>
	
		<path id="path3430-3-73" sodipodi:type="arc" sodipodi:cx="90.917969" sodipodi:cy="389.8299" sodipodi:rx="2.8320312" sodipodi:ry="2.6367188" fill="#FFFFFF" d="
		M249.997,78.438c0,0.666-0.494,1.206-1.103,1.206s-1.102-0.54-1.102-1.206s0.492-1.206,1.102-1.206
		C249.503,77.231,249.997,77.771,249.997,78.438z"/>
	
		<path id="path3430-3-4" sodipodi:type="arc" sodipodi:cx="90.917969" sodipodi:cy="389.8299" sodipodi:rx="2.8320312" sodipodi:ry="2.6367188" fill="#FFFFFF" d="
		M254.1,74.419c0,0.665-0.493,1.205-1.102,1.205c-0.609,0-1.104-0.54-1.104-1.205c0-0.666,0.494-1.207,1.104-1.207
		C253.606,73.212,254.1,73.753,254.1,74.419z"/>
	
		<path id="path3430-3-9" sodipodi:type="arc" sodipodi:cx="90.917969" sodipodi:cy="389.8299" sodipodi:rx="2.8320312" sodipodi:ry="2.6367188" fill="#FFFFFF" d="
		M256.303,67.361c0,0.666-0.493,1.206-1.102,1.206c-0.609,0-1.103-0.54-1.103-1.206s0.493-1.206,1.103-1.206
		C255.81,66.155,256.303,66.695,256.303,67.361z"/>
	
		<path id="path3430-3-6" sodipodi:type="arc" sodipodi:cx="90.917969" sodipodi:cy="389.8299" sodipodi:rx="2.8320312" sodipodi:ry="2.6367188" fill="#FFFFFF" d="
		M258.962,59.233c0,0.666-0.493,1.206-1.103,1.206c-0.608,0-1.102-0.54-1.102-1.206s0.493-1.206,1.102-1.206
		C258.469,58.027,258.962,58.567,258.962,59.233z"/>
	
		<path id="path3430-3-5" sodipodi:type="arc" sodipodi:cx="90.917969" sodipodi:cy="389.8299" sodipodi:rx="2.8320312" sodipodi:ry="2.6367188" fill="#FFFFFF" d="
		M261.772,51.105c0,0.666-0.491,1.206-1.102,1.206c-0.607,0-1.103-0.54-1.103-1.206s0.494-1.206,1.103-1.206
		C261.281,49.899,261.772,50.439,261.772,51.105z"/>
	
		<path id="path3430-3-10" sodipodi:type="arc" sodipodi:cx="90.917969" sodipodi:cy="389.8299" sodipodi:rx="2.8320312" sodipodi:ry="2.6367188" fill="#FFFFFF" d="
		M264.281,43.244c0,0.666-0.493,1.206-1.103,1.206s-1.102-0.54-1.102-1.206s0.492-1.206,1.102-1.206S264.281,42.578,264.281,43.244z
		"/>
	
		<path id="path3430-3-99" sodipodi:type="arc" sodipodi:cx="90.917969" sodipodi:cy="389.8299" sodipodi:rx="2.8320312" sodipodi:ry="2.6367188" fill="#FFFFFF" d="
		M267.015,34.759c0,0.666-0.492,1.207-1.102,1.207c-0.607,0-1.103-0.541-1.103-1.207s0.494-1.205,1.103-1.205
		C266.522,33.554,267.015,34.093,267.015,34.759z"/>
	
		<path id="path3430-3-68" sodipodi:type="arc" sodipodi:cx="90.917969" sodipodi:cy="389.8299" sodipodi:rx="2.8320312" sodipodi:ry="2.6367188" fill="#FFFFFF" d="
		M269.751,26.988c0,0.666-0.494,1.206-1.103,1.206s-1.103-0.54-1.103-1.206s0.493-1.206,1.103-1.206
		C269.257,25.782,269.751,26.322,269.751,26.988z"/>
	
		<path id="path3430-3-34" sodipodi:type="arc" sodipodi:cx="90.917969" sodipodi:cy="389.8299" sodipodi:rx="2.8320312" sodipodi:ry="2.6367188" fill="#FFFFFF" d="
		M272.562,18.503c0,0.666-0.493,1.205-1.102,1.205c-0.609,0-1.103-0.539-1.103-1.205s0.493-1.207,1.103-1.207
		C272.068,17.296,272.562,17.837,272.562,18.503z"/>
	
		<path id="path3430-3-84" sodipodi:type="arc" sodipodi:cx="90.917969" sodipodi:cy="389.8299" sodipodi:rx="2.8320312" sodipodi:ry="2.6367188" fill="#FFFFFF" d="
		M275.068,10.731c0,0.666-0.492,1.206-1.102,1.206s-1.102-0.54-1.102-1.206s0.492-1.206,1.102-1.206S275.068,10.065,275.068,10.731z
		"/>
	
		<path id="path3430-38-77-9" sodipodi:type="arc" sodipodi:cx="90.917969" sodipodi:cy="389.8299" sodipodi:rx="2.8320312" sodipodi:ry="2.6367188" fill="#FFFFFF" d="
		M266.406,157.845c0,0.666-0.492,1.207-1.102,1.207s-1.102-0.541-1.102-1.207s0.492-1.205,1.102-1.205
		S266.406,157.179,266.406,157.845z"/>
	
		<path id="path3430-38-77-92" sodipodi:type="arc" sodipodi:cx="90.917969" sodipodi:cy="389.8299" sodipodi:rx="2.8320312" sodipodi:ry="2.6367188" fill="#FFFFFF" d="
		M273.017,163.294c0,0.666-0.492,1.206-1.102,1.206c-0.607,0-1.103-0.54-1.103-1.206s0.494-1.205,1.103-1.205
		C272.524,162.089,273.017,162.628,273.017,163.294z"/>
	
		<path id="path3430-38-77-5" sodipodi:type="arc" sodipodi:cx="90.917969" sodipodi:cy="389.8299" sodipodi:rx="2.8320312" sodipodi:ry="2.6367188" fill="#FFFFFF" d="
		M278.031,170.886c0,0.666-0.493,1.207-1.102,1.207c-0.609,0-1.103-0.541-1.103-1.207s0.492-1.205,1.103-1.205
		C277.538,169.681,278.031,170.22,278.031,170.886z"/>
	
		<path id="path3430-38-77-53" sodipodi:type="arc" sodipodi:cx="90.917969" sodipodi:cy="389.8299" sodipodi:rx="2.8320312" sodipodi:ry="2.6367188" fill="#FFFFFF" d="
		M278.563,180.98c0,0.666-0.493,1.204-1.102,1.204c-0.609,0-1.103-0.538-1.103-1.204s0.493-1.206,1.103-1.206
		C278.07,179.774,278.563,180.314,278.563,180.98z"/>
	
		<path id="path3430-38-77-3" sodipodi:type="arc" sodipodi:cx="90.917969" sodipodi:cy="389.8299" sodipodi:rx="2.8320312" sodipodi:ry="2.6367188" fill="#FFFFFF" d="
		M278.716,191.073c0,0.666-0.494,1.206-1.103,1.206s-1.102-0.54-1.102-1.206s0.492-1.205,1.102-1.205
		C278.222,189.868,278.716,190.407,278.716,191.073z"/>
	
		<path id="path3430-38-77-37" sodipodi:type="arc" sodipodi:cx="90.917969" sodipodi:cy="389.8299" sodipodi:rx="2.8320312" sodipodi:ry="2.6367188" fill="#FFFFFF" d="
		M279.02,201.078c0,0.666-0.493,1.205-1.103,1.205c-0.607,0-1.103-0.539-1.103-1.205s0.494-1.206,1.103-1.206
		C278.526,199.872,279.02,200.412,279.02,201.078z"/>
	
		<path id="path3430-38-77-4" sodipodi:type="arc" sodipodi:cx="90.917969" sodipodi:cy="389.8299" sodipodi:rx="2.8320312" sodipodi:ry="2.6367188" fill="#FFFFFF" d="
		M279.322,210.278c0,0.665-0.492,1.205-1.102,1.205s-1.102-0.54-1.102-1.205c0-0.666,0.492-1.206,1.102-1.206
		S279.322,209.612,279.322,210.278z"/>
	
		<path id="path3430-38-77-38" sodipodi:type="arc" sodipodi:cx="90.917969" sodipodi:cy="389.8299" sodipodi:rx="2.8320312" sodipodi:ry="2.6367188" fill="#FFFFFF" d="
		M287.376,215.46c0,0.665-0.492,1.204-1.103,1.204c-0.606,0-1.102-0.539-1.102-1.204c0-0.666,0.494-1.207,1.102-1.207
		C286.884,214.253,287.376,214.794,287.376,215.46z"/>
	
		<path id="path3430-38-77-0" sodipodi:type="arc" sodipodi:cx="90.917969" sodipodi:cy="389.8299" sodipodi:rx="2.8320312" sodipodi:ry="2.6367188" fill="#FFFFFF" d="
		M295.05,220.371c0,0.666-0.493,1.206-1.103,1.206c-0.608,0-1.102-0.54-1.102-1.206s0.493-1.206,1.102-1.206
		C294.557,219.165,295.05,219.705,295.05,220.371z"/>
	<text transform="matrix(0.8506 0 0 1 237.6123 128.3008)" font-family="'ArialRoundedMTBold'" font-size="3.2863">HANGARES</text>
	<text transform="matrix(0.8506 0 0 1 245.0049 109.9717)" font-family="'ArialRoundedMTBold'" font-size="3.2863">TERMINAL AEREA</text>
	<text transform="matrix(0.8506 0 0 1 242.1465 89.5127)" font-family="'ArialRoundedMTBold'" font-size="3.2863">OCEANIA</text>
	<text transform="matrix(0.8506 0 0 1 210.2979 89.0576)" font-family="'ArialRoundedMTBold'" font-size="3.2863">ARAGÓN</text>
	<text transform="matrix(0.8506 0 0 1 191.7393 93.0264)" font-family="'ArialRoundedMTBold'" font-size="3.2863">EDUARDO </text>
	<text transform="matrix(0.8506 0 0 1 191.7393 97.1338)" font-family="'ArialRoundedMTBold'" font-size="3.2863"> MOLINA</text>
	<text transform="matrix(0.8506 0 0 1 184.3906 82.6504)" font-family="'ArialRoundedMTBold'" font-size="3.2863">CONSULADO</text>
	<text transform="matrix(0.8506 0 0 1 158.5576 69.665)" font-family="'ArialRoundedMTBold'" font-size="3.2863"> VALLE</text>
	<text transform="matrix(0.8506 0 0 1 158.5576 73.7734)" font-family="'ArialRoundedMTBold'" font-size="3.2863">GOMEZ</text>
	<text transform="matrix(0.8506 0 0 1 135.9316 72.3994)" font-family="'ArialRoundedMTBold'" font-size="3.2863">MISTERIOS</text>
	<text transform="matrix(0.8506 0 0 1 126.9868 60.1143)" font-family="'ArialRoundedMTBold'" font-size="3.2863">LA </text>
	<text transform="matrix(0.8506 0 0 1 126.9868 64.2217)" font-family="'ArialRoundedMTBold'" font-size="3.2863">RAZA</text>
	<text transform="matrix(0.8506 0 0 1 107.2017 37.3711)" font-family="'ArialRoundedMTBold'" font-size="3.2863">INSTITUTO </text>
	<text transform="matrix(0.8506 0 0 1 107.2017 41.4795)" font-family="'ArialRoundedMTBold'" font-size="3.2863">DEL PETRÓLEO</text>
	<text transform="matrix(0.8506 0 0 1 99.21 23.2529)" font-family="'ArialRoundedMTBold'" font-size="3.2863">POLITÉCNICO</text>
	<text transform="matrix(0.8506 0 0 1 94.5581 217.9258)" font-family="'ArialRoundedMTBold'" font-size="2.744">UNIVERSIDAD</text>
	<text transform="matrix(0.8506 0 0 1 85.6064 211.3965)" font-family="'ArialRoundedMTBold'" font-size="2.744">COPILCO</text>
	<text transform="matrix(0.8506 0 0 1 74.3213 201.3916)" font-family="'ArialRoundedMTBold'" font-size="2.744">MIGUEL ANGEL</text>
	<text transform="matrix(0.8506 0 0 1 74.3213 204.8213)" font-family="'ArialRoundedMTBold'" font-size="2.744">DE QUEVEDO</text>
	<text transform="matrix(0.8506 0 0 1 82.8438 194.4404)" font-family="'ArialRoundedMTBold'" font-size="2.744">VIVEROS</text>
	<text transform="matrix(0.8506 0 0 1 81.106 187.6045)" font-family="'ArialRoundedMTBold'" font-size="2.744">COYOACÁN</text>
	<text transform="matrix(0.8506 0 0 1 84.9771 180.9893)" font-family="'ArialRoundedMTBold'" font-size="2.744">ZAPATA</text>
	<text transform="matrix(0.8506 0 0 1 84.0283 171.4463)" font-family="'ArialRoundedMTBold'" font-size="2.744">DIVISION </text>
	<text transform="matrix(0.8506 0 0 1 84.0283 174.876)" font-family="'ArialRoundedMTBold'" font-size="2.744">DEL NORTE</text>
	<text transform="matrix(0.8506 0 0 1 87.666 167.6572)" font-family="'ArialRoundedMTBold'" font-size="2.744">EUGENIA</text>
	<text transform="matrix(0.8506 0 0 1 89.1675 163.0156)" font-family="'ArialRoundedMTBold'" font-size="2.744">ETIOPÍA</text>
	<text transform="matrix(0.8506 0 0 1 89.3916 154.667)" font-family="'ArialRoundedMTBold'" font-size="2.744">CENTRO</text>
	<text transform="matrix(0.8506 0 0 1 89.3916 158.0977)" font-family="'ArialRoundedMTBold'" font-size="2.744">MÉDICO</text>
	<text transform="matrix(0.8506 0 0 1 86.7607 142.3965)" font-family="'ArialRoundedMTBold'" font-size="2.744">HOSPITAL</text>
	<text transform="matrix(0.8506 0 0 1 86.7607 145.8262)" font-family="'ArialRoundedMTBold'" font-size="2.744">GENERAL</text>
	<text transform="matrix(0.8506 0 0 1 92.9434 133.7021)" font-family="'ArialRoundedMTBold'" font-size="2.744">NIÑOS</text>
	<text transform="matrix(0.8506 0 0 1 92.9434 137.1318)" font-family="'ArialRoundedMTBold'" font-size="2.744">HEROES</text>
	<text transform="matrix(0.8506 0 0 1 96.8369 115.9248)" font-family="'ArialRoundedMTBold'" font-size="2.744">JUAREZ</text>
	<text transform="matrix(0.8506 0 0 1 95.9082 98.6006)" font-family="'ArialRoundedMTBold'" font-size="2.744">GUERRERO</text>
	<text transform="matrix(0.8506 0 0 1 96.0596 77.1396)" font-family="'ArialRoundedMTBold'" font-size="2.744">TLATELOLCO</text>
	<text transform="matrix(0.8506 0 0 1 142.7061 48.7813)" font-family="'ArialRoundedMTBold'" font-size="3.2859">POTRERO</text>
	<text transform="matrix(0.8506 0 0 1 159.0127 30.5342)" font-family="'ArialRoundedMTBold'" font-size="3.2859">DEPORTIVO</text>
	<text transform="matrix(0.8506 0 0 1 159.0127 34.6416)" font-family="'ArialRoundedMTBold'" font-size="3.2859">18 DE MARZO</text>
	<text transform="matrix(0.8506 0 0 1 163.6299 18.0605)" font-family="'ArialRoundedMTBold'" font-size="3.2859">INDIOS VERDES</text>
	<text transform="matrix(0.8506 0 0 1 44.3701 191.0732)" font-family="'ArialRoundedMTBold'" font-size="2.744">BARRANCA</text>
	<text transform="matrix(0.8506 0 0 1 44.3701 194.5029)" font-family="'ArialRoundedMTBold'" font-size="2.744">DEL</text>
	<text transform="matrix(0.8506 0 0 1 44.3701 197.9336)" font-family="'ArialRoundedMTBold'" font-size="2.744">MUERTO</text>
	<text transform="matrix(0.8506 0 0 1 46.5737 176.7822)" font-family="'ArialRoundedMTBold'" font-size="2.744">MIXCOAC</text>
	<text transform="matrix(0.8506 0 0 1 41.2559 169.2783)" font-family="'ArialRoundedMTBold'" font-size="2.744">SAN ANTONIO</text>
	<text transform="matrix(0.8506 0 0 1 41.1035 158.4707)" font-family="'ArialRoundedMTBold'" font-size="2.744">SAN PEDRO</text>
	<text transform="matrix(0.8506 0 0 1 41.1035 161.9014)" font-family="'ArialRoundedMTBold'" font-size="2.744">DE LOS PINOS</text>
	<text transform="matrix(0.8506 0 0 1 21.584 135.1992)" font-family="'ArialRoundedMTBold'" font-size="2.744">CONSTITUYENTES</text>
	<text transform="matrix(0.8506 0 0 1 33.2041 122.9463)" font-family="'ArialRoundedMTBold'" font-size="2.744">AUDITORIO</text>
	<text transform="matrix(0.8506 0 0 1 38.4927 109.8145)" font-family="'ArialRoundedMTBold'" font-size="2.744">POLANCO</text>
	<text transform="matrix(0.8506 0 0 1 42.2061 96.4463)" font-family="'ArialRoundedMTBold'" font-size="2.744">SAN</text>
	<text transform="matrix(0.8506 0 0 1 42.2061 99.876)" font-family="'ArialRoundedMTBold'" font-size="2.744">JOAQUIN</text>
	<text transform="matrix(0.8506 0 0 1 35.668 71.2197)" font-family="'ArialRoundedMTBold'" font-size="2.744">REFINERIA</text>
	<text transform="matrix(0.8506 0 0 1 28.3452 56.292)" font-family="'ArialRoundedMTBold'" font-size="2.744">CAMARONES</text>
	<text transform="matrix(0.8506 0 0 1 18.4063 43.9648)" font-family="'ArialRoundedMTBold'" font-size="2.744">AQUILES </text>
	<text transform="matrix(0.8506 0 0 1 18.4063 47.3945)" font-family="'ArialRoundedMTBold'" font-size="2.744">SERDAN</text>
	<text transform="matrix(0.8506 0 0 1 13.0688 32.3467)" font-family="'ArialRoundedMTBold'" font-size="2.744">EL</text>
	<text transform="matrix(0.8506 0 0 1 13.0688 35.7773)" font-family="'ArialRoundedMTBold'" font-size="2.744">ROSARIO</text>
	<text transform="matrix(0.8506 0 0 1 36.5449 34.4463)" font-family="'ArialRoundedMTBold'" font-size="2.744">TEZOZOMOC</text>
	<text transform="matrix(0.8506 0 0 1 46.6875 51.7002)" font-family="'ArialRoundedMTBold'" font-size="2.744">AZCAPOTZALCO</text>
	<text transform="matrix(0.8506 0 0 1 69.3584 47.9102)" font-family="'ArialRoundedMTBold'" font-size="2.744">FERRERIA</text>
	<text transform="matrix(0.8506 0 0 1 77.4956 34.5811)" font-family="'ArialRoundedMTBold'" font-size="2.744">NORTE 45</text>
	<text transform="matrix(0.8506 0 0 1 88.6641 46.7285)" font-family="'ArialRoundedMTBold'" font-size="2.744">VALLEJO</text>
	<text transform="matrix(0.8506 0 0 1 121.2573 29.3105)" font-family="'ArialRoundedMTBold'" font-size="2.744">LINDAVISTA</text>
	<text transform="matrix(0.8506 0 0 1 174.1357 42.709)" font-family="'ArialRoundedMTBold'" font-size="2.744">LA VILLA</text>
	<text transform="matrix(0.8506 0 0 1 174.1357 46.1387)" font-family="'ArialRoundedMTBold'" font-size="2.744">BASILICA</text>
	<text transform="matrix(0.8506 0 0 1 203.3955 42.6055)" font-family="'ArialRoundedMTBold'" font-size="2.744">MARTIN CARRERA</text>
	<text transform="matrix(0.8506 0 0 1 193.833 55.2373)" font-family="'ArialRoundedMTBold'" font-size="2.744">TALISMAN</text>
	<text transform="matrix(0.8506 0 0 1 186.2041 72.6699)" font-family="'ArialRoundedMTBold'" font-size="2.744">BONDOJITO</text>
	<text transform="matrix(0.8506 0 0 1 183.0889 105.0088)" font-family="'ArialRoundedMTBold'" font-size="2.744">MORELOS</text>
	<text transform="matrix(0.8506 0 0 1 166.1123 94.6494)" font-family="'ArialRoundedMTBold'" font-size="2.744">CANAL DEL</text>
	<text transform="matrix(0.8506 0 0 1 166.1123 98.0801)" font-family="'ArialRoundedMTBold'" font-size="2.744">NORTE</text>
	<text transform="matrix(0.8506 0 0 1 176.1045 134.1885)" font-family="'ArialRoundedMTBold'" font-size="2.744">FRAY SERVANDO</text>
	<text transform="matrix(0.8506 0 0 1 166.2197 153.7686)" font-family="'ArialRoundedMTBold'" font-size="2.744">JAMAICA</text>
	<text transform="matrix(0.8506 0 0 1 163.5342 163.7471)" font-family="'ArialRoundedMTBold'" font-size="2.744">STA.</text>
	<text transform="matrix(0.8506 0 0 1 163.5342 167.1777)" font-family="'ArialRoundedMTBold'" font-size="2.744">ANITA</text>
	<text transform="matrix(0.8506 0 0 1 107.3535 142.9287)" font-family="'ArialRoundedMTBold'" font-size="2.744">DOCTORES</text>
	<text transform="matrix(0.8506 0 0 1 117.3828 149.1807)" font-family="'ArialRoundedMTBold'" font-size="2.744">OBRERA</text>
	<text transform="matrix(0.8506 0 0 1 147.8486 164.6338)" font-family="'ArialRoundedMTBold'" font-size="2.744">LA</text>
	<text transform="matrix(0.8506 0 0 1 147.8486 168.0635)" font-family="'ArialRoundedMTBold'" font-size="2.744">VIGA</text>
	<text transform="matrix(0.8506 0 0 1 171.7803 174.2803)" font-family="'ArialRoundedMTBold'" font-size="2.744">COYUYA</text>
	<text transform="matrix(0.8506 0 0 1 172.4639 181.7842)" font-family="'ArialRoundedMTBold'" font-size="2.744">IZTACALCO</text>
	<text transform="matrix(0.8506 0 0 1 173.2236 187.6787)" font-family="'ArialRoundedMTBold'" font-size="2.744">APATLALCO</text>
	<text transform="matrix(0.8506 0 0 1 173.2236 193.9326)" font-family="'ArialRoundedMTBold'" font-size="2.744">ACULCO</text>
	<text transform="matrix(0.8506 0 0 1 173.2998 203.8467)" font-family="'ArialRoundedMTBold'" font-size="2.744">ESCUADRON 201</text>
	<text transform="matrix(0.8506 0 0 1 197.6885 205.9912)" font-family="'ArialRoundedMTBold'" font-size="2.744">IZTAPALAPA</text>
	<text transform="matrix(0.8506 0 0 1 112.1782 157.7119)" font-family="'ArialRoundedMTBold'" font-size="2.744">LAZARO</text>
	<text transform="matrix(0.8506 0 0 1 112.1782 161.1416)" font-family="'ArialRoundedMTBold'" font-size="2.744">CARDENAS</text>
	<text transform="matrix(0.8506 0 0 1 172.0088 161.6865)" font-family="'ArialRoundedMTBold'" font-size="2.744">MIXIUHCA</text>
	<text transform="matrix(0.8506 0 0 1 193.2959 163.874)" font-family="'ArialRoundedMTBold'" font-size="2.744">VELODROMO</text>
	<text transform="matrix(0.8506 0 0 1 212.8506 164)" font-family="'ArialRoundedMTBold'" font-size="2.744">CIUDAD</text>
	<text transform="matrix(0.8506 0 0 1 212.8506 167.4307)" font-family="'ArialRoundedMTBold'" font-size="2.744"> DEPORTIVA</text>
	<text transform="matrix(0.8506 0 0 1 231.1162 165.6426)" font-family="'ArialRoundedMTBold'" font-size="2.744">PUEBLA</text>
	<text transform="matrix(0.8506 0 0 1 98.3125 53.1592)" font-family="'ArialRoundedMTBold'" font-size="2.744">AUTOBUSES</text>
	<text transform="matrix(0.8506 0 0 1 98.3125 56.5889)" font-family="'ArialRoundedMTBold'" font-size="2.744">DEL NORTE</text>
	<text transform="matrix(0.8506 0 0 1 276.458 16.0977)" font-family="'ArialRoundedMTBold'" font-size="2.744">AZTECA</text>
	<text transform="matrix(0.8506 0 0 1 256.1133 76.9189)" font-family="'ArialRoundedMTBold'" font-size="2.744">VILLA DE ARAGON</text>
	<text transform="matrix(0.8506 0 0 1 174.3916 219.0635)" font-family="'ArialRoundedMTBold'" font-size="2.744">ATLALILCO</text>
	<text transform="matrix(0.8506 0 0 1 201.5742 217.6035)" font-family="'ArialRoundedMTBold'" font-size="2.744">CERRO DE LA</text>
	<text transform="matrix(0.8506 0 0 1 201.5742 221.0332)" font-family="'ArialRoundedMTBold'" font-size="2.744">ESTRELLA</text>
	<text transform="matrix(0.8506 0 0 1 220.1377 215.0029)" font-family="'ArialRoundedMTBold'" font-size="2.744">UAM-1</text>
	<text transform="matrix(0.8506 0 0 1 232.5029 213.8125)" font-family="'ArialRoundedMTBold'" font-size="3.2529">CONSTITUCION </text>
	<text transform="matrix(0.8506 0 0 1 232.5029 217.8789)" font-family="'ArialRoundedMTBold'" font-size="3.2529">DE 1917</text>
	<text transform="matrix(0.6224 -0.8013 0.6816 0.7318 70.8413 167.2344)" font-family="'ArialRoundedMTBold'" font-size="2.5288">CHILPANCINGO</text>
	<text transform="matrix(0.8505 0.0084 -0.0071 1 59.9644 150.5215)" font-family="'ArialRoundedMTBold'" font-size="2.744">PATRIOTISMO</text>
</g>
<g id="transbordes" display="none">
	
		<path id="path3430-38-77-8" sodipodi:type="arc" sodipodi:cx="90.917969" sodipodi:cy="389.8299" sodipodi:rx="2.8320312" sodipodi:ry="2.6367188" display="inline" stroke="#566962" stroke-width="0.707" d="
		M163.964,155.284c0,0.941-0.698,1.705-1.56,1.705c-0.86,0-1.559-0.764-1.559-1.705s0.698-1.706,1.559-1.706
		C163.266,153.578,163.964,154.343,163.964,155.284z"/>
	
		<path id="path3430-38-77-8-1" sodipodi:type="arc" sodipodi:cx="90.917969" sodipodi:cy="389.8299" sodipodi:rx="2.8320312" sodipodi:ry="2.6367188" display="inline" stroke="#566962" stroke-width="0.707" d="
		M160.472,165.515c0,0.942-0.696,1.707-1.56,1.707c-0.859,0-1.559-0.765-1.559-1.707c0-0.94,0.698-1.704,1.559-1.704
		C159.775,163.811,160.472,164.574,160.472,165.515z"/>
	
		<path id="path3430-38-77-8-9" sodipodi:type="arc" sodipodi:cx="90.917969" sodipodi:cy="389.8299" sodipodi:rx="2.8320312" sodipodi:ry="2.6367188" display="inline" stroke="#566962" stroke-width="0.707" d="
		M145.644,154.399c0,0.941-0.698,1.706-1.558,1.706c-0.86,0-1.559-0.765-1.559-1.706s0.697-1.705,1.559-1.705
		S145.644,153.458,145.644,154.399z"/>
	
		<path id="path3430-38-77-8-8" sodipodi:type="arc" sodipodi:cx="90.917969" sodipodi:cy="389.8299" sodipodi:rx="2.8320312" sodipodi:ry="2.6367188" display="inline" stroke="#566962" stroke-width="0.707" d="
		M145.859,125.345c0,0.942-0.697,1.707-1.559,1.707s-1.559-0.765-1.559-1.707c0-0.94,0.697-1.705,1.559-1.705
		S145.859,124.404,145.859,125.345z"/>
	
		<path id="path3430-38-77-8-97" sodipodi:type="arc" sodipodi:cx="90.917969" sodipodi:cy="389.8299" sodipodi:rx="2.8320312" sodipodi:ry="2.6367188" display="inline" stroke="#566962" stroke-width="0.707" d="
		M123.08,125.345c0,0.942-0.697,1.707-1.557,1.707c-0.861,0-1.56-0.765-1.56-1.707c0-0.94,0.698-1.705,1.56-1.705
		C122.384,123.64,123.08,124.404,123.08,125.345z"/>
	
		<path id="path3430-38-77-8-2" sodipodi:type="arc" sodipodi:cx="90.917969" sodipodi:cy="389.8299" sodipodi:rx="2.8320312" sodipodi:ry="2.6367188" display="inline" stroke="#566962" stroke-width="0.707" d="
		M123.617,108.292c0,0.942-0.697,1.706-1.559,1.706s-1.559-0.764-1.559-1.706c0-0.941,0.699-1.705,1.559-1.705
		C122.919,106.587,123.617,107.351,123.617,108.292z"/>
	
		<path id="path3430-38-77-8-28" sodipodi:type="arc" sodipodi:cx="90.917969" sodipodi:cy="389.8299" sodipodi:rx="2.8320312" sodipodi:ry="2.6367188" display="inline" stroke="#566962" stroke-width="0.707" d="
		M124.263,97.304c0,0.94-0.698,1.705-1.56,1.705c-0.859,0-1.558-0.765-1.558-1.705c0-0.942,0.698-1.707,1.558-1.707
		C123.564,95.597,124.263,96.36,124.263,97.304z"/>
	
		<path id="path3430-38-77-8-289" sodipodi:type="arc" sodipodi:cx="90.917969" sodipodi:cy="389.8299" sodipodi:rx="2.8320312" sodipodi:ry="2.6367188" display="inline" stroke="#566962" stroke-width="0.707" d="
		M112.443,94.776c0,0.941-0.697,1.705-1.558,1.705s-1.56-0.764-1.56-1.705c0-0.942,0.699-1.706,1.56-1.706
		S112.443,93.834,112.443,94.776z"/>
	
		<path id="path3430-38-77-8-0" sodipodi:type="arc" sodipodi:cx="90.917969" sodipodi:cy="389.8299" sodipodi:rx="2.8320312" sodipodi:ry="2.6367188" display="inline" stroke="#566962" stroke-width="0.707" d="
		M123.511,60.164c0,0.942-0.698,1.706-1.56,1.706c-0.86,0-1.558-0.764-1.558-1.706s0.698-1.706,1.558-1.706
		C122.812,58.458,123.511,59.222,123.511,60.164z"/>
	
		<path id="path3430-38-77-8-7" sodipodi:type="arc" sodipodi:cx="90.917969" sodipodi:cy="389.8299" sodipodi:rx="2.8320312" sodipodi:ry="2.6367188" display="inline" stroke="#566962" stroke-width="0.707" d="
		M104.814,36.289c0,0.942-0.697,1.706-1.558,1.706s-1.56-0.764-1.56-1.706c0-0.94,0.698-1.705,1.56-1.705
		C104.117,34.584,104.814,35.347,104.814,36.289z"/>
	
		<path id="path3430-38-77-8-81" sodipodi:type="arc" sodipodi:cx="90.917969" sodipodi:cy="389.8299" sodipodi:rx="2.8320312" sodipodi:ry="2.6367188" display="inline" stroke="#566962" stroke-width="0.707" d="
		M156.066,34.647c0,0.941-0.697,1.705-1.559,1.705c-0.859,0-1.559-0.764-1.559-1.705c0-0.942,0.698-1.706,1.559-1.706
		C155.369,32.941,156.066,33.705,156.066,34.647z"/>
	
		<path id="path3430-38-77-8-5" sodipodi:type="arc" sodipodi:cx="90.917969" sodipodi:cy="389.8299" sodipodi:rx="2.8320312" sodipodi:ry="2.6367188" display="inline" stroke="#566962" stroke-width="0.707" d="
		M27.133,30.984c0,0.942-0.698,1.706-1.559,1.706s-1.559-0.764-1.559-1.706s0.698-1.706,1.559-1.706S27.133,30.042,27.133,30.984z"
		/>
	
		<path id="path3430-38-77-8-86" sodipodi:type="arc" sodipodi:cx="90.917969" sodipodi:cy="389.8299" sodipodi:rx="2.8320312" sodipodi:ry="2.6367188" display="inline" stroke="#566962" stroke-width="0.707" d="
		M60.212,82.636c0,0.942-0.698,1.707-1.56,1.707c-0.859,0-1.558-0.765-1.558-1.707c0-0.941,0.696-1.705,1.558-1.705
		S60.212,81.694,60.212,82.636z"/>
	
		<path id="path3430-38-77-8-12" sodipodi:type="arc" sodipodi:cx="90.917969" sodipodi:cy="389.8299" sodipodi:rx="2.8320312" sodipodi:ry="2.6367188" display="inline" stroke="#566962" stroke-width="0.707" d="
		M109.9,108.539c0,0.942-0.697,1.706-1.559,1.706s-1.559-0.764-1.559-1.706c0-0.94,0.697-1.705,1.559-1.705
		S109.9,107.597,109.9,108.539z"/>
	
		<path id="path3430-38-77-8-4" sodipodi:type="arc" sodipodi:cx="90.917969" sodipodi:cy="389.8299" sodipodi:rx="2.8320312" sodipodi:ry="2.6367188" display="inline" stroke="#566962" stroke-width="0.707" d="
		M106.533,125.472c0,0.941-0.697,1.705-1.559,1.705c-0.859,0-1.559-0.764-1.559-1.705s0.697-1.705,1.559-1.705
		C105.837,123.767,106.533,124.53,106.533,125.472z"/>
	
		<path id="path3430-38-77-8-25" sodipodi:type="arc" sodipodi:cx="90.917969" sodipodi:cy="389.8299" sodipodi:rx="2.8320312" sodipodi:ry="2.6367188" display="inline" stroke="#566962" stroke-width="0.707" d="
		M55.391,146.947c0,0.94-0.697,1.705-1.559,1.705s-1.559-0.765-1.559-1.705c0-0.942,0.698-1.706,1.559-1.706
		C54.691,145.241,55.391,146.005,55.391,146.947z"/>
	
		<path id="path3430-38-77-8-862" sodipodi:type="arc" sodipodi:cx="90.917969" sodipodi:cy="389.8299" sodipodi:rx="2.8320312" sodipodi:ry="2.6367188" display="inline" stroke="#566962" stroke-width="0.707" d="
		M102.129,151.747c0,0.942-0.698,1.706-1.559,1.706s-1.559-0.764-1.559-1.706c0-0.941,0.697-1.706,1.559-1.706
		C101.431,150.041,102.129,150.804,102.129,151.747z"/>
	
		<path id="path3430-38-77-8-6" sodipodi:type="arc" sodipodi:cx="90.917969" sodipodi:cy="389.8299" sodipodi:rx="2.8320312" sodipodi:ry="2.6367188" display="inline" stroke="#566962" stroke-width="0.707" d="
		M254.808,146.315c0,0.941-0.697,1.705-1.558,1.705c-0.861,0-1.559-0.764-1.559-1.705c0-0.942,0.697-1.706,1.559-1.706
		C254.11,144.609,254.808,145.373,254.808,146.315z"/>
	
		<path id="path3430-38-77-8-53" sodipodi:type="arc" sodipodi:cx="90.917969" sodipodi:cy="389.8299" sodipodi:rx="2.8320312" sodipodi:ry="2.6367188" display="inline" stroke="#566962" stroke-width="0.707" d="
		M181.315,116.251c0,0.941-0.696,1.705-1.558,1.705s-1.559-0.764-1.559-1.705s0.697-1.705,1.559-1.705
		S181.315,115.308,181.315,116.251z"/>
	
		<path id="path3430-38-77-8-92" sodipodi:type="arc" sodipodi:cx="90.917969" sodipodi:cy="389.8299" sodipodi:rx="2.8320312" sodipodi:ry="2.6367188" display="inline" stroke="#566962" stroke-width="0.707" d="
		M239.665,89.067c0,0.941-0.697,1.705-1.56,1.705c-0.859,0-1.559-0.764-1.559-1.705c0-0.942,0.698-1.706,1.559-1.706
		C238.968,87.361,239.665,88.125,239.665,89.067z"/>
	
		<path id="path3430-38-77-8-46" sodipodi:type="arc" sodipodi:cx="90.917969" sodipodi:cy="389.8299" sodipodi:rx="2.8320312" sodipodi:ry="2.6367188" display="inline" stroke="#566962" stroke-width="0.707" d="
		M183.368,87.28c0,0.941-0.698,1.706-1.56,1.706s-1.559-0.765-1.559-1.706s0.696-1.705,1.559-1.705
		C182.67,85.575,183.368,86.339,183.368,87.28z"/>
	
		<path id="path3430-38-77-8-18" sodipodi:type="arc" sodipodi:cx="90.917969" sodipodi:cy="389.8299" sodipodi:rx="2.8320312" sodipodi:ry="2.6367188" display="inline" stroke="#566962" stroke-width="0.707" d="
		M199.702,42.798c0,0.942-0.697,1.707-1.56,1.707c-0.859,0-1.559-0.765-1.559-1.707c0-0.941,0.697-1.705,1.559-1.705
		C199.005,41.093,199.702,41.856,199.702,42.798z"/>
	
		<path id="path3430-38-77-8-7-2" sodipodi:type="arc" sodipodi:cx="90.917969" sodipodi:cy="389.8299" sodipodi:rx="2.8320312" sodipodi:ry="2.6367188" display="inline" stroke="#566962" stroke-width="0.707" d="
		M182.083,105.208c0,0.942-0.697,1.706-1.56,1.706c-0.859,0-1.559-0.764-1.559-1.706c0-0.941,0.698-1.705,1.559-1.705
		C181.386,103.503,182.083,104.267,182.083,105.208z"/>
	
		<path id="path3430-38-77-8-7-1" sodipodi:type="arc" sodipodi:cx="90.917969" sodipodi:cy="389.8299" sodipodi:rx="2.8320312" sodipodi:ry="2.6367188" display="inline" stroke="#566962" stroke-width="0.707" d="
		M195.169,116.341c0,0.942-0.697,1.707-1.56,1.707c-0.859,0-1.559-0.765-1.559-1.707c0-0.94,0.698-1.705,1.559-1.705
		C194.472,114.636,195.169,115.399,195.169,116.341z"/>
</g>
</svg>
