<?xml version="1.0" encoding="utf-8"?>
<!-- Generator: Adobe Illustrator 15.1.0, SVG Export Plug-In . SVG Version: 6.00 Build 0)  -->
<!DOCTYPE svg PUBLIC "-//W3C//DTD SVG 1.1//EN" "http://www.w3.org/Graphics/SVG/1.1/DTD/svg11.dtd">
<svg version="1.1"
	 id="svg2" xmlns:dc="http://purl.org/dc/elements/1.1/" xmlns:cc="http://creativecommons.org/ns#" xmlns:rdf="http://www.w3.org/1999/02/22-rdf-syntax-ns#" xmlns:svg="http://www.w3.org/2000/svg" xmlns:sodipodi="http://sodipodi.sourceforge.net/DTD/sodipodi-0.dtd" xmlns:inkscape="http://www.inkscape.org/namespaces/inkscape" inkscape:version="0.48.2 r9819" sodipodi:docname="LMB.svg"
	 xmlns="http://www.w3.org/2000/svg" xmlns:xlink="http://www.w3.org/1999/xlink" x="0px" y="0px" width="343.78px"
	 height="523.786px" viewBox="242.802 401.087 343.78 523.786" enable-background="new 242.802 401.087 343.78 523.786"
	 xml:space="preserve">
<sodipodi:namedview  id="base" inkscape:cy="318.09084" fit-margin-left="0.5" fit-margin-top="0.5" inkscape:cx="-260.19621" inkscape:zoom="0.35" borderopacity="1.0" bordercolor="#666666" showgrid="false" pagecolor="#ffffff" fit-margin-bottom="0.5" fit-margin-right="0.5" inkscape:window-y="-8" inkscape:window-x="-8" inkscape:window-height="705" inkscape:window-width="1366" inkscape:current-layer="layer14" inkscape:document-units="px" inkscape:pageshadow="2" inkscape:pageopacity="0.0" inkscape:window-maximized="1">
	</sodipodi:namedview>
<g id="layer1" transform="translate(68.625,177.7775)" inkscape:label="Capa 1" inkscape:groupmode="layer" sodipodi:insensitive="true" display="none">
</g>
<g id="layer2" transform="translate(68.625,177.7775)" inkscape:label="1" inkscape:groupmode="layer" sodipodi:insensitive="true">
	<path id="path2997" inkscape:connector-curvature="0" fill="none" stroke="#F30004" stroke-width="2" d="M338.54,360.682
		l-6.73,11.562l-19.328,25.368l-13.805,18.12l-3.106,4.659l-2.243,4.314l-1.381,5.867l-0.69,5.867l-1.381,4.487l-2.761,8.974
		l-4.487,11.907l-1.381,5.177l-1.898,5.522l-3.797,11.39l-3.278,10.699l-4.832,15.704l-4.314,15.014l-1.726,6.04l-3.106,9.318
		l-3.624,12.598l-1.381,5.178l-2.588,7.247l-2.589,7.594l-2.071,7.766l0.345,11.907l0.863,19.327l0.863,8.801l0.69,11.563
		l1.726,20.018l1.036,12.598c0,0,3.969,6.73,7.938,8.456s4.832,8.283,4.832,8.283l-1.208,8.801c0,0,2.244,5.867,5.35,7.594
		c3.106,1.726,3.106,8.628,3.106,8.628"/>
</g>
<g id="layer6" transform="translate(68.625,177.7775)" inkscape:label="nodos1" inkscape:groupmode="layer" sodipodi:insensitive="true">
	
		<path id="path3795" sodipodi:ry="2.6785715" sodipodi:rx="2.6785715" sodipodi:cy="913.79077" sodipodi:cx="173.03572" sodipodi:type="arc" fill="#FBFFFF" stroke="#F30004" d="
		M269.513,698.399c0,0.715-0.58,1.294-1.294,1.294s-1.294-0.579-1.294-1.294s0.58-1.294,1.294-1.294
		S269.513,697.684,269.513,698.399z"/>
	
		<path id="path3795-1" sodipodi:ry="2.6785715" sodipodi:rx="2.6785715" sodipodi:cy="913.79077" sodipodi:cx="173.03572" sodipodi:type="arc" fill="#FBFFFF" stroke="#F30004" d="
		M264.249,690.892c0,0.715-0.58,1.294-1.294,1.294c-0.715,0-1.294-0.579-1.294-1.294s0.58-1.295,1.294-1.295
		C263.669,689.598,264.249,690.178,264.249,690.892z"/>
	
		<path id="path3795-7" sodipodi:ry="2.6785715" sodipodi:rx="2.6785715" sodipodi:cy="913.79077" sodipodi:cx="173.03572" sodipodi:type="arc" fill="#FBFFFF" stroke="#F30004" d="
		M265.285,681.401c0,0.715-0.58,1.294-1.294,1.294s-1.294-0.579-1.294-1.294s0.58-1.295,1.294-1.295
		S265.285,680.686,265.285,681.401z"/>
	
		<path id="path3795-4" sodipodi:ry="2.6785715" sodipodi:rx="2.6785715" sodipodi:cy="913.79077" sodipodi:cx="173.03572" sodipodi:type="arc" fill="#FBFFFF" stroke="#F30004" d="
		M260.798,673.722c0,0.715-0.58,1.294-1.294,1.294s-1.294-0.579-1.294-1.294s0.579-1.294,1.294-1.294
		S260.798,673.007,260.798,673.722z"/>
	
		<path id="path3795-0" sodipodi:ry="2.6785715" sodipodi:rx="2.6785715" sodipodi:cy="913.79077" sodipodi:cx="173.03572" sodipodi:type="arc" fill="#FBFFFF" stroke="#F30004" d="
		M252.687,664.921c0,0.715-0.58,1.294-1.294,1.294s-1.294-0.579-1.294-1.294s0.579-1.295,1.294-1.295
		S252.687,664.206,252.687,664.921z"/>
	
		<path id="path3795-9" sodipodi:ry="2.6785715" sodipodi:rx="2.6785715" sodipodi:cy="913.79077" sodipodi:cx="173.03572" sodipodi:type="arc" fill="#FBFFFF" stroke="#F30004" d="
		M251.911,652.409c0,0.715-0.58,1.295-1.294,1.295s-1.294-0.58-1.294-1.295s0.579-1.294,1.294-1.294
		S251.911,651.694,251.911,652.409z"/>
	
		<path id="path3795-48" sodipodi:ry="2.6785715" sodipodi:rx="2.6785715" sodipodi:cy="913.79077" sodipodi:cx="173.03572" sodipodi:type="arc" fill="#FBFFFF" stroke="#F30004" d="
		M249.926,632.133c0,0.715-0.579,1.294-1.294,1.294s-1.294-0.579-1.294-1.294s0.58-1.294,1.294-1.294
		S249.926,631.418,249.926,632.133z"/>
	
		<path id="path3795-8" sodipodi:ry="2.6785715" sodipodi:rx="2.6785715" sodipodi:cy="913.79077" sodipodi:cx="173.03572" sodipodi:type="arc" fill="#FBFFFF" stroke="#F30004" d="
		M249.236,620.57c0,0.715-0.58,1.295-1.294,1.295s-1.294-0.58-1.294-1.295s0.58-1.294,1.294-1.294S249.236,619.855,249.236,620.57z"
		/>
	
		<path id="path3795-2" sodipodi:ry="2.6785715" sodipodi:rx="2.6785715" sodipodi:cy="913.79077" sodipodi:cx="173.03572" sodipodi:type="arc" fill="#FBFFFF" stroke="#F30004" d="
		M248.632,612.287c0,0.715-0.58,1.294-1.294,1.294s-1.294-0.579-1.294-1.294s0.58-1.294,1.294-1.294
		S248.632,611.572,248.632,612.287z"/>
	
		<path id="path3795-45" sodipodi:ry="2.6785715" sodipodi:rx="2.6785715" sodipodi:cy="913.79077" sodipodi:cx="173.03572" sodipodi:type="arc" fill="#FBFFFF" stroke="#F30004" d="
		M247.51,592.96c0,0.714-0.579,1.294-1.294,1.294s-1.294-0.58-1.294-1.294c0-0.715,0.58-1.295,1.294-1.295
		S247.51,592.245,247.51,592.96z"/>
	
		<path id="path3795-5" sodipodi:ry="2.6785715" sodipodi:rx="2.6785715" sodipodi:cy="913.79077" sodipodi:cx="173.03572" sodipodi:type="arc" fill="#FBFFFF" stroke="#F30004" d="
		M247.424,581.053c0,0.714-0.58,1.294-1.294,1.294s-1.294-0.58-1.294-1.294c0-0.715,0.58-1.295,1.294-1.295
		S247.424,580.337,247.424,581.053z"/>
	
		<path id="path3795-17" sodipodi:ry="2.6785715" sodipodi:rx="2.6785715" sodipodi:cy="913.79077" sodipodi:cx="173.03572" sodipodi:type="arc" fill="#FBFFFF" stroke="#F30004" d="
		M249.84,572.165c0,0.715-0.58,1.294-1.294,1.294s-1.294-0.579-1.294-1.294s0.58-1.295,1.294-1.295S249.84,571.45,249.84,572.165z"
		/>
	
		<path id="path3795-11" sodipodi:ry="2.6785715" sodipodi:rx="2.6785715" sodipodi:cy="913.79077" sodipodi:cx="173.03572" sodipodi:type="arc" fill="#FBFFFF" stroke="#F30004" d="
		M251.22,566.987c0,0.716-0.58,1.295-1.294,1.295s-1.294-0.579-1.294-1.295c0-0.714,0.579-1.294,1.294-1.294
		S251.22,566.273,251.22,566.987z"/>
	
		<path id="path3795-52" sodipodi:ry="2.6785715" sodipodi:rx="2.6785715" sodipodi:cy="913.79077" sodipodi:cx="173.03572" sodipodi:type="arc" fill="#FBFFFF" stroke="#F30004" d="
		M252.773,561.983c0,0.715-0.58,1.294-1.294,1.294s-1.294-0.579-1.294-1.294s0.58-1.294,1.294-1.294
		S252.773,561.268,252.773,561.983z"/>
	
		<path id="path3795-76" sodipodi:ry="2.6785715" sodipodi:rx="2.6785715" sodipodi:cy="913.79077" sodipodi:cx="173.03572" sodipodi:type="arc" fill="#FBFFFF" stroke="#F30004" d="
		M254.585,557.583c0,0.715-0.58,1.294-1.294,1.294s-1.294-0.579-1.294-1.294s0.58-1.295,1.294-1.295
		S254.585,556.868,254.585,557.583z"/>
	
		<path id="path3795-14" sodipodi:ry="2.6785715" sodipodi:rx="2.6785715" sodipodi:cy="913.79077" sodipodi:cx="173.03572" sodipodi:type="arc" fill="#FBFFFF" stroke="#F30004" d="
		M256.311,552.319c0,0.715-0.58,1.295-1.294,1.295c-0.714,0-1.294-0.58-1.294-1.295s0.579-1.294,1.294-1.294
		S256.311,551.604,256.311,552.319z"/>
	
		<path id="path3795-23" sodipodi:ry="2.6785715" sodipodi:rx="2.6785715" sodipodi:cy="913.79077" sodipodi:cx="173.03572" sodipodi:type="arc" fill="#FBFFFF" stroke="#F30004" d="
		M257.605,547.228c0,0.715-0.58,1.295-1.294,1.295s-1.294-0.58-1.294-1.295s0.58-1.294,1.294-1.294S257.605,546.514,257.605,547.228
		z"/>
	
		<path id="path3795-22" sodipodi:ry="2.6785715" sodipodi:rx="2.6785715" sodipodi:cy="913.79077" sodipodi:cx="173.03572" sodipodi:type="arc" fill="#FBFFFF" stroke="#F30004" d="
		M259.245,542.052c0,0.715-0.58,1.294-1.294,1.294c-0.714,0-1.294-0.579-1.294-1.294s0.58-1.294,1.294-1.294
		C258.665,540.758,259.245,541.337,259.245,542.052z"/>
	
		<path id="path3795-16" sodipodi:ry="2.6785715" sodipodi:rx="2.6785715" sodipodi:cy="913.79077" sodipodi:cx="173.03572" sodipodi:type="arc" fill="#FBFFFF" stroke="#F30004" d="
		M261.057,535.666c0,0.716-0.58,1.295-1.294,1.295s-1.294-0.579-1.294-1.295c0-0.714,0.579-1.294,1.294-1.294
		S261.057,534.952,261.057,535.666z"/>
	
		<path id="path3795-85" sodipodi:ry="2.6785715" sodipodi:rx="2.6785715" sodipodi:cy="913.79077" sodipodi:cx="173.03572" sodipodi:type="arc" fill="#FBFFFF" stroke="#F30004" d="
		M262.696,530.23c0,0.715-0.579,1.295-1.294,1.295s-1.294-0.58-1.294-1.295s0.58-1.294,1.294-1.294S262.696,529.516,262.696,530.23z
		"/>
	
		<path id="path3795-761" sodipodi:ry="2.6785715" sodipodi:rx="2.6785715" sodipodi:cy="913.79077" sodipodi:cx="173.03572" sodipodi:type="arc" fill="#FBFFFF" stroke="#F30004" d="
		M264.594,524.536c0,0.715-0.58,1.294-1.294,1.294c-0.714,0-1.294-0.579-1.294-1.294s0.58-1.295,1.294-1.295
		C264.015,523.241,264.594,523.821,264.594,524.536z"/>
	
		<path id="path3795-89" sodipodi:ry="2.6785715" sodipodi:rx="2.6785715" sodipodi:cy="913.79077" sodipodi:cx="173.03572" sodipodi:type="arc" fill="#FBFFFF" stroke="#F30004" d="
		M265.889,519.014c0,0.715-0.58,1.294-1.294,1.294s-1.294-0.579-1.294-1.294s0.58-1.294,1.294-1.294
		S265.889,518.299,265.889,519.014z"/>
	
		<path id="path3795-27" sodipodi:ry="2.6785715" sodipodi:rx="2.6785715" sodipodi:cy="913.79077" sodipodi:cx="173.03572" sodipodi:type="arc" fill="#FBFFFF" stroke="#F30004" d="
		M268.046,512.629c0,0.715-0.58,1.294-1.294,1.294s-1.294-0.579-1.294-1.294s0.58-1.295,1.294-1.295
		S268.046,511.914,268.046,512.629z"/>
	
		<path id="path3795-95" sodipodi:ry="2.6785715" sodipodi:rx="2.6785715" sodipodi:cy="913.79077" sodipodi:cx="173.03572" sodipodi:type="arc" fill="#FBFFFF" stroke="#F30004" d="
		M269.771,506.589c0,0.715-0.58,1.294-1.294,1.294s-1.294-0.579-1.294-1.294s0.58-1.295,1.294-1.295
		S269.771,505.874,269.771,506.589z"/>
	
		<path id="path3795-43" sodipodi:ry="2.6785715" sodipodi:rx="2.6785715" sodipodi:cy="913.79077" sodipodi:cx="173.03572" sodipodi:type="arc" fill="#FBFFFF" stroke="#F30004" d="
		M275.639,487.52c0,0.715-0.579,1.294-1.294,1.294c-0.715,0-1.294-0.579-1.294-1.294s0.579-1.294,1.294-1.294
		C275.06,486.225,275.639,486.805,275.639,487.52z"/>
	
		<path id="path3795-12" sodipodi:ry="2.6785715" sodipodi:rx="2.6785715" sodipodi:cy="913.79077" sodipodi:cx="173.03572" sodipodi:type="arc" fill="#FBFFFF" stroke="#F30004" d="
		M277.451,482.343c0,0.715-0.58,1.294-1.294,1.294c-0.715,0-1.294-0.58-1.294-1.294s0.579-1.294,1.294-1.294
		C276.871,481.048,277.451,481.628,277.451,482.343z"/>
	
		<path id="path3795-3" sodipodi:ry="2.6785715" sodipodi:rx="2.6785715" sodipodi:cy="913.79077" sodipodi:cx="173.03572" sodipodi:type="arc" fill="#FBFFFF" stroke="#F30004" d="
		M278.831,477.683c0,0.714-0.579,1.294-1.294,1.294s-1.294-0.58-1.294-1.294c0-0.715,0.58-1.294,1.294-1.294
		S278.831,476.969,278.831,477.683z"/>
	
		<path id="path3795-34" sodipodi:ry="2.6785715" sodipodi:rx="2.6785715" sodipodi:cy="913.79077" sodipodi:cx="173.03572" sodipodi:type="arc" fill="#FBFFFF" stroke="#F30004" d="
		M280.988,471.471c0,0.715-0.579,1.294-1.294,1.294c-0.715,0-1.294-0.579-1.294-1.294c0-0.714,0.579-1.294,1.294-1.294
		C280.409,470.177,280.988,470.756,280.988,471.471z"/>
	
		<path id="path3795-113" sodipodi:ry="2.6785715" sodipodi:rx="2.6785715" sodipodi:cy="913.79077" sodipodi:cx="173.03572" sodipodi:type="arc" fill="#FBFFFF" stroke="#F30004" d="
		M282.973,465.69c0,0.715-0.58,1.294-1.294,1.294s-1.294-0.58-1.294-1.294s0.58-1.294,1.294-1.294S282.973,464.975,282.973,465.69z"
		/>
	
		<path id="path3795-87" sodipodi:ry="2.6785715" sodipodi:rx="2.6785715" sodipodi:cy="913.79077" sodipodi:cx="173.03572" sodipodi:type="arc" fill="#FBFFFF" stroke="#F30004" d="
		M285.216,458.269c0,0.715-0.58,1.294-1.294,1.294s-1.294-0.58-1.294-1.294s0.579-1.294,1.294-1.294
		S285.216,457.555,285.216,458.269z"/>
	
		<path id="path3795-42" sodipodi:ry="2.6785715" sodipodi:rx="2.6785715" sodipodi:cy="913.79077" sodipodi:cx="173.03572" sodipodi:type="arc" fill="#FBFFFF" stroke="#F30004" d="
		M286.942,453.351c0,0.715-0.579,1.294-1.294,1.294c-0.714,0-1.294-0.58-1.294-1.294c0-0.714,0.58-1.294,1.294-1.294
		C286.363,452.057,286.942,452.637,286.942,453.351z"/>
	
		<path id="path3795-77" sodipodi:ry="2.6785715" sodipodi:rx="2.6785715" sodipodi:cy="913.79077" sodipodi:cx="173.03572" sodipodi:type="arc" fill="#FBFFFF" stroke="#F30004" d="
		M289.358,447.484c0,0.715-0.58,1.294-1.294,1.294s-1.294-0.58-1.294-1.294s0.579-1.294,1.294-1.294
		S289.358,446.769,289.358,447.484z"/>
	
		<path id="path3795-93" sodipodi:ry="2.6785715" sodipodi:rx="2.6785715" sodipodi:cy="913.79077" sodipodi:cx="173.03572" sodipodi:type="arc" fill="#FBFFFF" stroke="#F30004" d="
		M290.911,442.134c0,0.715-0.58,1.294-1.294,1.294s-1.294-0.58-1.294-1.294s0.579-1.294,1.294-1.294
		S290.911,441.419,290.911,442.134z"/>
	
		<path id="path3795-19" sodipodi:ry="2.6785715" sodipodi:rx="2.6785715" sodipodi:cy="913.79077" sodipodi:cx="173.03572" sodipodi:type="arc" fill="#FBFFFF" stroke="#F30004" d="
		M292.55,435.749c0,0.714-0.579,1.294-1.294,1.294s-1.294-0.58-1.294-1.294c0-0.715,0.58-1.294,1.294-1.294
		C291.971,434.455,292.55,435.034,292.55,435.749z"/>
	
		<path id="path3795-86" sodipodi:ry="2.6785715" sodipodi:rx="2.6785715" sodipodi:cy="913.79077" sodipodi:cx="173.03572" sodipodi:type="arc" fill="#FBFFFF" stroke="#F30004" d="
		M293.413,430.658c0,0.715-0.579,1.294-1.294,1.294s-1.294-0.579-1.294-1.294c0-0.714,0.58-1.294,1.294-1.294
		S293.413,429.944,293.413,430.658z"/>
	
		<path id="path3795-50" sodipodi:ry="2.6785715" sodipodi:rx="2.6785715" sodipodi:cy="913.79077" sodipodi:cx="173.03572" sodipodi:type="arc" fill="#FBFFFF" stroke="#F30004" d="
		M294.621,423.669c0,0.715-0.579,1.294-1.294,1.294s-1.294-0.58-1.294-1.294s0.58-1.294,1.294-1.294
		S294.621,422.954,294.621,423.669z"/>
	
		<path id="path3795-28" sodipodi:ry="2.6785715" sodipodi:rx="2.6785715" sodipodi:cy="913.79077" sodipodi:cx="173.03572" sodipodi:type="arc" fill="#FBFFFF" stroke="#F30004" d="
		M301.352,414.437c0,0.715-0.58,1.294-1.294,1.294s-1.294-0.58-1.294-1.294s0.579-1.294,1.294-1.294
		S301.352,413.722,301.352,414.437z"/>
	
		<path id="path3795-6" sodipodi:ry="2.6785715" sodipodi:rx="2.6785715" sodipodi:cy="913.79077" sodipodi:cx="173.03572" sodipodi:type="arc" fill="#FBFFFF" stroke="#F30004" d="
		M305.925,408.57c0,0.714-0.58,1.294-1.294,1.294s-1.294-0.58-1.294-1.294c0-0.715,0.58-1.294,1.294-1.294
		S305.925,407.854,305.925,408.57z"/>
	
		<path id="path3795-02" sodipodi:ry="2.6785715" sodipodi:rx="2.6785715" sodipodi:cy="913.79077" sodipodi:cx="173.03572" sodipodi:type="arc" fill="#FBFFFF" stroke="#F30004" d="
		M319.126,390.622c0,0.715-0.579,1.294-1.294,1.294s-1.294-0.579-1.294-1.294c0-0.714,0.58-1.294,1.294-1.294
		S319.126,389.908,319.126,390.622z"/>
	
		<path id="path3795-486" sodipodi:ry="2.6785715" sodipodi:rx="2.6785715" sodipodi:cy="913.79077" sodipodi:cx="173.03572" sodipodi:type="arc" fill="#FBFFFF" stroke="#F30004" d="
		M322.836,385.79c0,0.715-0.58,1.294-1.294,1.294s-1.294-0.579-1.294-1.294s0.58-1.294,1.294-1.294S322.836,385.076,322.836,385.79z
		"/>
	
		<path id="path3795-509" sodipodi:ry="2.6785715" sodipodi:rx="2.6785715" sodipodi:cy="913.79077" sodipodi:cx="173.03572" sodipodi:type="arc" fill="#FBFFFF" stroke="#F30004" d="
		M328.445,377.594c0,0.715-0.58,1.294-1.294,1.294s-1.294-0.579-1.294-1.294c0-0.715,0.579-1.294,1.294-1.294
		S328.445,376.878,328.445,377.594z"/>
	
		<path id="path3795-00" sodipodi:ry="2.6785715" sodipodi:rx="2.6785715" sodipodi:cy="913.79077" sodipodi:cx="173.03572" sodipodi:type="arc" fill="#FBFFFF" stroke="#F30004" d="
		M334.39,370.691c0,0.714-0.58,1.294-1.294,1.294c-0.715,0-1.294-0.58-1.294-1.294c0-0.715,0.58-1.294,1.294-1.294
		C333.81,369.396,334.39,369.976,334.39,370.691z"/>
	
		<path id="path3795-61" sodipodi:ry="2.6785715" sodipodi:rx="2.6785715" sodipodi:cy="913.79077" sodipodi:cx="173.03572" sodipodi:type="arc" fill="#FBFFFF" stroke="#F30004" d="
		M342.411,358.007c0,1.518-1.231,2.749-2.749,2.749c-1.518,0-2.749-1.23-2.749-2.749s1.23-2.749,2.749-2.749
		S342.411,356.489,342.411,358.007z"/>
	
		<path id="path3795-38" sodipodi:ry="2.6785715" sodipodi:rx="2.6785715" sodipodi:cy="913.79077" sodipodi:cx="173.03572" sodipodi:type="arc" fill="#FBFFFF" stroke="#F30004" d="
		M275.027,706.812c0,1.759-1.426,3.184-3.185,3.184s-3.185-1.425-3.185-3.184c0-1.76,1.426-3.186,3.185-3.186
		S275.027,705.053,275.027,706.812z"/>
</g>
<g id="layer10" transform="translate(68.625,177.7775)" inkscape:label="nombres1" inkscape:groupmode="layer" sodipodi:insensitive="true">
	<path id="rect4815" fill="#FFFFFF" stroke="#F30028" stroke-width="1.3806" d="M249.43,705.807h15.811
		c1.43,0,2.589,1.159,2.589,2.589v21.79c0,1.43-1.159,2.589-2.589,2.589H249.43c-1.43,0-2.588-1.159-2.588-2.589v-21.79
		C246.841,706.967,248,705.807,249.43,705.807z"/>
	<path id="rect4817" fill="#F30004" stroke="#F30028" stroke-width="1.1664" d="M248.708,705.93h17.135
		c1.029,0,1.864,0.835,1.864,1.864v1.545c0,1.029-0.835,1.864-1.864,1.864h-17.135c-1.03,0-1.864-0.835-1.864-1.864v-1.545
		C246.844,706.765,247.678,705.93,248.708,705.93z"/>
	<text transform="matrix(1 0 0 1 251.0518 726.7968)" fill="#F30004" font-family="'Verdana'" font-size="19.3277">1</text>
	<text transform="matrix(1 0 0 1 250.9297 710.201)" fill="#FFFFFF" font-family="'Verdana'" font-size="4.8319">Linea</text>
	<path id="rect4815-5" fill="#FFFFFF" stroke="#F30028" stroke-width="1.3806" d="M339.24,323.322h15.811
		c1.43,0,2.589,1.159,2.589,2.588v21.791c0,1.429-1.159,2.588-2.589,2.588H339.24c-1.429,0-2.588-1.159-2.588-2.588V325.91
		C336.651,324.48,337.811,323.322,339.24,323.322z"/>
	<path id="rect4817-8" fill="#F30004" stroke="#F30028" stroke-width="1.1664" d="M338.518,323.443h17.135
		c1.029,0,1.864,0.835,1.864,1.864v1.544c0,1.03-0.835,1.864-1.864,1.864h-17.135c-1.03,0-1.864-0.834-1.864-1.864v-1.544
		C336.654,324.278,337.488,323.443,338.518,323.443z"/>
	<text transform="matrix(1 0 0 1 340.8618 344.3104)" fill="#F30004" font-family="'Verdana'" font-size="19.3277">1</text>
	<text transform="matrix(1 0 0 1 340.7397 327.7152)" fill="#FFFFFF" font-family="'Verdana'" font-size="4.8319">Linea</text>
	<text transform="matrix(1 0 0 1 276.7378 709.7128)" font-family="'Verdana'" font-size="3.8655">El caminero</text>
	<text transform="matrix(1 0 0 1 271.2466 697.0233)" font-family="'Verdana'" font-size="2.8992">La joya</text>
	<text transform="matrix(1 0 0 1 266.4878 691.5311)" font-family="'Verdana'" font-size="2.8992">Santa Ursula</text>
	<text transform="matrix(1 0 0 1 266.3657 683.4784)" font-family="'Verdana'" font-size="2.8992">Fuentes Brotantes</text>
	<text transform="matrix(1 0 0 1 263.0713 674.326)" font-family="'Verdana'" font-size="2.8992">Ayuntamiento</text>
	<text transform="matrix(1 0 0 1 254.5293 665.5409)" font-family="'Verdana'" font-size="2.8992">Corregidora</text>
	<text transform="matrix(1 0 0 1 253.9194 653.9481)" font-family="'Verdana'" font-size="2.8992">Villa Olímpica</text>
	<text transform="matrix(1 0 0 1 251.8447 633.204)" font-family="'Verdana'" font-size="2.8992">Perisur</text>
	<text transform="matrix(1 0 0 1 251.2349 621.6112)" font-family="'Verdana'" font-size="2.8992">C.C.U.</text>
	<text transform="matrix(1 0 0 1 250.5024 613.0702)" font-family="'Verdana'" font-size="2.8992">C.U.</text>
	<text transform="matrix(1 0 0 1 250.1367 594.4003)" font-family="'Verdana'" font-size="2.8992">Dr. Gálvez</text>
	<text transform="matrix(1 0 0 1 249.7705 582.3202)" font-family="'Verdana'" font-size="2.8992">La Bombilla</text>
	<text transform="matrix(1 0 0 1 250.6245 574.6317)" font-family="'Verdana'" font-size="2.8992">Altavista</text>
	<text transform="matrix(1 0 0 1 252.5771 567.9208)" font-family="'Verdana'" font-size="2.8992">Olivo</text>
	<text transform="matrix(1 0 0 1 254.1636 563.5272)" font-family="'Verdana'" font-size="2.8992">Francia</text>
	<text transform="matrix(1 0 0 1 255.7495 558.5253)" font-family="'Verdana'" font-size="2.8992">Jose María Velásco</text>
	<text transform="matrix(1 0 0 1 256.9697 553.4003)" font-family="'Verdana'" font-size="2.8992">Teatro Insurgentes</text>
	<text transform="matrix(1 0 0 1 259.2886 548.5184)" font-family="'Verdana'" font-size="2.8992">Río Churubusco</text>
	<text transform="matrix(1 0 0 1 260.6309 543.0272)" font-family="'Verdana'" font-size="2.8992">Félix Cuevas</text>
	<text transform="matrix(1 0 0 1 262.3389 537.1698)" font-family="'Verdana'" font-size="2.8992">Parque hunido </text>
	<text transform="matrix(1 0 0 1 264.0474 531.4354)" font-family="'Verdana'" font-size="2.8992">Ciudad de los Deportes</text>
	<text transform="matrix(1 0 0 1 265.5117 525.7001)" font-family="'Verdana'" font-size="2.8992">Colonia del Valle</text>
	<text transform="matrix(1 0 0 1 267.3423 519.9647)" font-family="'Verdana'" font-size="2.8992">Nápoles</text>
	<text transform="matrix(1 0 0 1 269.6606 513.4979)" font-family="'Verdana'" font-size="2.8992">Poliforum</text>
	<text transform="matrix(1 0 0 1 270.6367 507.8846)" font-family="'Verdana'" font-size="2.8992">La Piedad</text>
	<text transform="matrix(0.8169 0.5768 -0.5768 0.8169 263.7319 489.9056)" font-family="'Verdana'" font-size="2.8992">Nuevo León</text>
	<text transform="matrix(1 0 0 1 285.7202 408.8666)" font-family="'Verdana'" font-size="2.8992">San Simón</text>
	<text transform="matrix(1 0 0 1 272.5474 415.578)" font-family="'Verdana'" font-size="2.8992">Manuel González</text>
	<text transform="matrix(1 0 0 1 265.4287 424.2128)" font-family="'Verdana'" font-size="2.8992">Buenavista I y II</text>
	<text transform="matrix(1 0 0 1 277.4639 430.9647)" font-family="'Verdana'" font-size="2.8992">El chopo</text>
	<text transform="matrix(1 0 0 1 273.3574 436.4442)" font-family="'Verdana'" font-size="2.8992">Revolución</text>
	<text transform="matrix(1 0 0 1 257.0845 442.642)" font-family="'Verdana'" font-size="2.8992">Plaza de la República</text>
	<text transform="matrix(1 0 0 1 273.4883 447.9589)" font-family="'Verdana'" font-size="2.8992">Reforma</text>
	<text transform="matrix(1 0 0 1 268.3438 453.5311)" font-family="'Verdana'" font-size="2.8992">Hamburgo</text>
	<text transform="matrix(1 0 0 1 264.0986 459.3412)" font-family="'Verdana'" font-size="2.8992">Insurgentes</text>
	<text transform="matrix(1 0 0 1 266.7827 465.9305)" font-family="'Verdana'" font-size="2.8992">Durango</text>
	<text transform="matrix(1 0 0 1 254.0464 487.0502)" font-family="'Verdana'" font-size="2.8992">Chilpancingo</text>
	<text transform="matrix(1 0 0 1 258.6411 482.556)" font-family="'Verdana'" font-size="2.8992">Campeche</text>
	<text transform="matrix(1 0 0 1 264.4985 478.1127)" font-family="'Verdana'" font-size="2.8992">Sonora</text>
	<text transform="matrix(1 0 0 1 254.4121 472.163)" font-family="'Verdana'" font-size="2.8992">Alvaro Obregón</text>
	<text transform="matrix(1 0 0 1 312.3081 401.4178)" font-family="'Verdana'" font-size="2.8992">Circuito</text>
	<text transform="matrix(1 0 0 1 319.9346 392.8153)" font-family="'Verdana'" font-size="2.8992">La raza</text>
	<text transform="matrix(1 0 0 1 323.8394 387.3851)" font-family="'Verdana'" font-size="2.8992">Potrero</text>
	<text transform="matrix(1 0 0 1 330.4897 379.2098)" font-family="'Verdana'" font-size="2.8992">Euzkano</text>
	<text transform="matrix(1 0 0 1 335.4316 372.8031)" font-family="'Verdana'" font-size="2.8992">Deportivo 18 de Marzo</text>
	<text transform="matrix(1 0 0 1 343.6074 359.5028)" font-family="'Verdana'" font-size="4.8319">Indios Verdes</text>
</g>
<g id="layer3" transform="translate(68.625,177.7775)" inkscape:label="2" inkscape:groupmode="layer" sodipodi:insensitive="true">
	<path id="path3770" inkscape:connector-curvature="0" fill="none" stroke="#6F2767" stroke-width="2" d="M244.279,486.224
		l-6.163,12.629l-3.539-11.348l10.067-2.501l9.64,4.576l7.565,4.759l9.03,5.247l6.345,3.051l6.956,1.587l8.801,0.381l7.248,1.897
		l7.593,0.346l6.558,1.208l6.385,1.035l5.35,0.69l4.314-9.146l8.284,0.173l10.527-0.173l8.628,0.69l6.902,0.863l6.73,0.172
		l6.212,0.346l4.66,4.486l5.521,3.97l5.522,5.522l5.694,3.796l5.695,4.659l8.629-1.035l6.039,1.381l6.73,0.862l2.071-8.974
		l2.243-13.46l8.628,5.694l10.009,6.04l-7.765,8.111l-12.879-6.256"/>
	<path id="path3775" inkscape:connector-curvature="0" fill="none" stroke="#6F2767" stroke-width="2" d="M419.389,525.398
		l-10.096-10.44l-4.313,10.354"/>
	<path id="path3719" sodipodi:nodetypes="ccc" inkscape:connector-curvature="0" fill="none" stroke="#6F2767" d="M408.333,522.439
		l2.052,1.917l-1.836,2.418"/>
	<path id="path3721" sodipodi:nodetypes="ccc" inkscape:connector-curvature="0" fill="none" stroke="#6F2767" d="M411.605,520.701
		l0.122-3.179l3.572-0.093"/>
</g>
<g id="layer7" transform="translate(68.625,177.7775)" inkscape:label="nodos2" inkscape:groupmode="layer" sodipodi:insensitive="true">
	
		<path id="path3795-934" sodipodi:ry="2.6785715" sodipodi:rx="2.6785715" sodipodi:cy="913.79077" sodipodi:cx="173.03572" sodipodi:type="arc" fill="#FFFFFF" stroke="#6F2767" d="
		M255.507,489.537c0,0.715-0.579,1.294-1.294,1.294s-1.294-0.58-1.294-1.294s0.58-1.294,1.294-1.294
		S255.507,488.822,255.507,489.537z"/>
	
		<path id="path3795-934-4" sodipodi:ry="2.6785715" sodipodi:rx="2.6785715" sodipodi:cy="913.79077" sodipodi:cx="173.03572" sodipodi:type="arc" fill="#FFFFFF" stroke="#6F2767" d="
		M246,485.104c0,0.715-0.58,1.294-1.294,1.294s-1.294-0.58-1.294-1.294s0.579-1.294,1.294-1.294S246,484.389,246,485.104z"/>
	
		<path id="path3795-934-6" sodipodi:ry="2.6785715" sodipodi:rx="2.6785715" sodipodi:cy="913.79077" sodipodi:cx="173.03572" sodipodi:type="arc" fill="#FFFFFF" stroke="#6F2767" d="
		M235.818,487.52c0,0.715-0.58,1.294-1.294,1.294c-0.714,0-1.294-0.579-1.294-1.294s0.58-1.294,1.294-1.294
		C235.239,486.225,235.818,486.805,235.818,487.52z"/>
	
		<path id="path3795-934-0" sodipodi:ry="2.6785715" sodipodi:rx="2.6785715" sodipodi:cy="913.79077" sodipodi:cx="173.03572" sodipodi:type="arc" fill="#FFFFFF" stroke="#6F2767" d="
		M263.343,494.379c0,0.715-0.58,1.294-1.294,1.294s-1.294-0.58-1.294-1.294c0-0.714,0.58-1.294,1.294-1.294
		S263.343,493.665,263.343,494.379z"/>
	
		<path id="path3795-934-66" sodipodi:ry="2.6785715" sodipodi:rx="2.6785715" sodipodi:cy="913.79077" sodipodi:cx="173.03572" sodipodi:type="arc" fill="#FFFFFF" stroke="#6F2767" d="
		M242.278,492.203c0,0.715-0.58,1.294-1.294,1.294s-1.294-0.58-1.294-1.294s0.58-1.294,1.294-1.294S242.278,491.489,242.278,492.203
		z"/>
	
		<path id="path3795-934-1" sodipodi:ry="2.6785715" sodipodi:rx="2.6785715" sodipodi:cy="913.79077" sodipodi:cx="173.03572" sodipodi:type="arc" fill="#FFFFFF" stroke="#6F2767" d="
		M240.953,498.731c0,1.567-1.27,2.837-2.837,2.837c-1.566,0-2.836-1.27-2.836-2.837c0-1.566,1.27-2.836,2.836-2.836
		C239.683,495.895,240.953,497.165,240.953,498.731z"/>
	
		<path id="path3795-934-8" sodipodi:ry="2.6785715" sodipodi:rx="2.6785715" sodipodi:cy="913.79077" sodipodi:cx="173.03572" sodipodi:type="arc" fill="#FFFFFF" stroke="#6F2767" d="
		M278.458,502.332c0,0.715-0.579,1.294-1.294,1.294c-0.714,0-1.294-0.579-1.294-1.294s0.579-1.295,1.294-1.295
		C277.879,501.037,278.458,501.617,278.458,502.332z"/>
	
		<path id="path3795-934-49" sodipodi:ry="2.6785715" sodipodi:rx="2.6785715" sodipodi:cy="913.79077" sodipodi:cx="173.03572" sodipodi:type="arc" fill="#FFFFFF" stroke="#6F2767" d="
		M285.17,503.857c0,0.715-0.58,1.294-1.294,1.294c-0.714,0-1.294-0.579-1.294-1.294s0.58-1.295,1.294-1.295
		C284.59,502.562,285.17,503.142,285.17,503.857z"/>
	
		<path id="path3795-934-63" sodipodi:ry="2.6785715" sodipodi:rx="2.6785715" sodipodi:cy="913.79077" sodipodi:cx="173.03572" sodipodi:type="arc" fill="#FFFFFF" stroke="#6F2767" d="
		M301.704,506.114c0,0.715-0.579,1.295-1.294,1.295s-1.294-0.58-1.294-1.295s0.58-1.294,1.294-1.294
		S301.704,505.399,301.704,506.114z"/>
	
		<path id="path3795-934-7" sodipodi:ry="2.6785715" sodipodi:rx="2.6785715" sodipodi:cy="913.79077" sodipodi:cx="173.03572" sodipodi:type="arc" fill="#FFFFFF" stroke="#6F2767" d="
		M308.686,506.848c0,0.715-0.58,1.294-1.294,1.294c-0.715,0-1.294-0.579-1.294-1.294s0.58-1.295,1.294-1.295
		C308.106,505.553,308.686,506.133,308.686,506.848z"/>
	
		<path id="path3795-934-88" sodipodi:ry="2.6785715" sodipodi:rx="2.6785715" sodipodi:cy="913.79077" sodipodi:cx="173.03572" sodipodi:type="arc" fill="#FFFFFF" stroke="#6F2767" d="
		M315.675,507.883c0,0.715-0.58,1.294-1.294,1.294s-1.294-0.579-1.294-1.294s0.58-1.294,1.294-1.294
		S315.675,507.168,315.675,507.883z"/>
	
		<path id="path3795-934-2" sodipodi:ry="2.6785715" sodipodi:rx="2.6785715" sodipodi:cy="913.79077" sodipodi:cx="173.03572" sodipodi:type="arc" fill="#FFFFFF" stroke="#6F2767" d="
		M322.06,509.005c0,0.715-0.58,1.294-1.294,1.294s-1.294-0.579-1.294-1.294s0.58-1.294,1.294-1.294S322.06,508.29,322.06,509.005z"
		/>
	
		<path id="path3795-934-9" sodipodi:ry="2.6785715" sodipodi:rx="2.6785715" sodipodi:cy="913.79077" sodipodi:cx="173.03572" sodipodi:type="arc" fill="#FFFFFF" stroke="#6F2767" d="
		M327.237,509.349c0,0.715-0.58,1.295-1.294,1.295c-0.715,0-1.294-0.58-1.294-1.295s0.579-1.294,1.294-1.294
		C326.657,508.056,327.237,508.635,327.237,509.349z"/>
	
		<path id="path3795-934-13" sodipodi:ry="2.6785715" sodipodi:rx="2.6785715" sodipodi:cy="913.79077" sodipodi:cx="173.03572" sodipodi:type="arc" fill="#FFFFFF" stroke="#6F2767" d="
		M331.637,500.635c0,0.715-0.579,1.295-1.294,1.295s-1.294-0.58-1.294-1.295s0.58-1.294,1.294-1.294
		C331.058,499.341,331.637,499.92,331.637,500.635z"/>
	
		<path id="path3795-934-5" sodipodi:ry="2.6785715" sodipodi:rx="2.6785715" sodipodi:cy="913.79077" sodipodi:cx="173.03572" sodipodi:type="arc" fill="#FFFFFF" stroke="#6F2767" d="
		M340.007,500.807c0,0.715-0.579,1.294-1.294,1.294s-1.294-0.579-1.294-1.294s0.58-1.294,1.294-1.294
		S340.007,500.093,340.007,500.807z"/>
	
		<path id="path3795-934-98" sodipodi:ry="2.6785715" sodipodi:rx="2.6785715" sodipodi:cy="913.79077" sodipodi:cx="173.03572" sodipodi:type="arc" fill="#FFFFFF" stroke="#6F2767" d="
		M350.62,500.463c0,0.715-0.58,1.294-1.294,1.294c-0.715,0-1.294-0.579-1.294-1.294s0.58-1.295,1.294-1.295
		C350.04,499.168,350.62,499.748,350.62,500.463z"/>
	
		<path id="path3795-934-40" sodipodi:ry="2.6785715" sodipodi:rx="2.6785715" sodipodi:cy="913.79077" sodipodi:cx="173.03572" sodipodi:type="arc" fill="#FFFFFF" stroke="#6F2767" d="
		M359.162,500.98c0,0.715-0.58,1.294-1.294,1.294c-0.715,0-1.295-0.579-1.295-1.294s0.58-1.295,1.295-1.295
		C358.582,499.685,359.162,500.266,359.162,500.98z"/>
	
		<path id="path3795-934-76" sodipodi:ry="2.6785715" sodipodi:rx="2.6785715" sodipodi:cy="913.79077" sodipodi:cx="173.03572" sodipodi:type="arc" fill="#FFFFFF" stroke="#6F2767" d="
		M366.41,501.843c0,0.715-0.579,1.295-1.295,1.295c-0.714,0-1.294-0.58-1.294-1.295s0.58-1.294,1.294-1.294
		C365.831,500.549,366.41,501.128,366.41,501.843z"/>
	
		<path id="path3795-934-3" sodipodi:ry="2.6785715" sodipodi:rx="2.6785715" sodipodi:cy="913.79077" sodipodi:cx="173.03572" sodipodi:type="arc" fill="#FFFFFF" stroke="#6F2767" d="
		M372.709,502.274c0-0.715-0.58-1.294-1.294-1.294c-0.716,0-1.295,0.579-1.295,1.294s0.579,1.294,1.295,1.294
		C372.129,503.568,372.709,502.989,372.709,502.274z"/>
	
		<path id="path3795-934-61" sodipodi:ry="2.6785715" sodipodi:rx="2.6785715" sodipodi:cy="913.79077" sodipodi:cx="173.03572" sodipodi:type="arc" fill="#FFFFFF" stroke="#6F2767" d="
		M378.921,503.051c0,0.715-0.579,1.295-1.294,1.295s-1.294-0.58-1.294-1.295s0.579-1.294,1.294-1.294
		S378.921,502.336,378.921,503.051z"/>
	
		<path id="path3795-934-54" sodipodi:ry="2.6785715" sodipodi:rx="2.6785715" sodipodi:cy="913.79077" sodipodi:cx="173.03572" sodipodi:type="arc" fill="#FFFFFF" stroke="#6F2767" d="
		M383.84,507.02c0,0.714-0.58,1.294-1.295,1.294s-1.294-0.58-1.294-1.294c0-0.715,0.579-1.295,1.294-1.295
		S383.84,506.306,383.84,507.02z"/>
	
		<path id="path3795-934-20" sodipodi:ry="2.6785715" sodipodi:rx="2.6785715" sodipodi:cy="913.79077" sodipodi:cx="173.03572" sodipodi:type="arc" fill="#FFFFFF" stroke="#6F2767" d="
		M389.017,511.075c0,0.715-0.579,1.295-1.294,1.295s-1.295-0.58-1.295-1.295c0-0.714,0.58-1.294,1.295-1.294
		S389.017,510.361,389.017,511.075z"/>
	
		<path id="path3795-934-97" sodipodi:ry="2.6785715" sodipodi:rx="2.6785715" sodipodi:cy="913.79077" sodipodi:cx="173.03572" sodipodi:type="arc" fill="#FFFFFF" stroke="#6F2767" d="
		M394.539,515.994c0,0.715-0.58,1.294-1.295,1.294s-1.294-0.579-1.294-1.294s0.579-1.295,1.294-1.295
		S394.539,515.279,394.539,515.994z"/>
	
		<path id="path3795-934-37" sodipodi:ry="2.6785715" sodipodi:rx="2.6785715" sodipodi:cy="913.79077" sodipodi:cx="173.03572" sodipodi:type="arc" fill="#FFFFFF" stroke="#6F2767" d="
		M400.406,520.307c0,0.715-0.58,1.295-1.295,1.295c-0.714,0-1.294-0.58-1.294-1.295s0.58-1.294,1.294-1.294
		C399.826,519.014,400.406,519.593,400.406,520.307z"/>
	
		<path id="path3795-934-26" sodipodi:ry="2.6785715" sodipodi:rx="2.6785715" sodipodi:cy="913.79077" sodipodi:cx="173.03572" sodipodi:type="arc" fill="#FFFFFF" stroke="#6F2767" d="
		M406.187,525.054c0,0.715-0.579,1.294-1.294,1.294s-1.294-0.579-1.294-1.294s0.579-1.294,1.294-1.294
		S406.187,524.339,406.187,525.054z"/>
	
		<path id="path3795-934-01" sodipodi:ry="2.6785715" sodipodi:rx="2.6785715" sodipodi:cy="913.79077" sodipodi:cx="173.03572" sodipodi:type="arc" fill="#FFFFFF" stroke="#6F2767" d="
		M410.76,515.045c0,0.715-0.579,1.294-1.294,1.294s-1.294-0.579-1.294-1.294s0.579-1.295,1.294-1.295S410.76,514.33,410.76,515.045z
		"/>
	
		<path id="path3795-934-65" sodipodi:ry="2.6785715" sodipodi:rx="2.6785715" sodipodi:cy="913.79077" sodipodi:cx="173.03572" sodipodi:type="arc" fill="#FFFFFF" stroke="#6F2767" d="
		M414.815,524.018c0,0.715-0.579,1.294-1.294,1.294s-1.294-0.579-1.294-1.294s0.579-1.295,1.294-1.295
		S414.815,523.304,414.815,524.018z"/>
	
		<path id="path3795-934-75" sodipodi:ry="2.6785715" sodipodi:rx="2.6785715" sodipodi:cy="913.79077" sodipodi:cx="173.03572" sodipodi:type="arc" fill="#FFFFFF" stroke="#6F2767" d="
		M420.511,525.312c0,0.715-0.58,1.294-1.295,1.294s-1.294-0.579-1.294-1.294s0.579-1.295,1.294-1.295
		S420.511,524.598,420.511,525.312z"/>
	
		<path id="path3795-934-41" sodipodi:ry="2.6785715" sodipodi:rx="2.6785715" sodipodi:cy="913.79077" sodipodi:cx="173.03572" sodipodi:type="arc" fill="#FFFFFF" stroke="#6F2767" d="
		M427.586,526.348c0,0.715-0.58,1.295-1.295,1.295c-0.714,0-1.294-0.58-1.294-1.295s0.58-1.294,1.294-1.294
		C427.006,525.054,427.586,525.633,427.586,526.348z"/>
	
		<path id="path3795-934-200" sodipodi:ry="2.6785715" sodipodi:rx="2.6785715" sodipodi:cy="913.79077" sodipodi:cx="173.03572" sodipodi:type="arc" fill="#FFFFFF" stroke="#6F2767" d="
		M429.483,517.547c0,0.715-0.579,1.294-1.294,1.294s-1.294-0.579-1.294-1.294s0.579-1.295,1.294-1.295
		S429.483,516.832,429.483,517.547z"/>
	
		<path id="path3795-934-14" sodipodi:ry="2.6785715" sodipodi:rx="2.6785715" sodipodi:cy="913.79077" sodipodi:cx="173.03572" sodipodi:type="arc" fill="#FFFFFF" stroke="#6F2767" d="
		M431.555,504.173c0,0.715-0.579,1.294-1.294,1.294s-1.294-0.579-1.294-1.294s0.579-1.294,1.294-1.294
		S431.555,503.458,431.555,504.173z"/>
	
		<path id="path3795-934-60" sodipodi:ry="2.6785715" sodipodi:rx="2.6785715" sodipodi:cy="913.79077" sodipodi:cx="173.03572" sodipodi:type="arc" fill="#FFFFFF" stroke="#6F2767" d="
		M440.701,509.435c0,0.716-0.58,1.295-1.295,1.295s-1.294-0.579-1.294-1.295c0-0.714,0.579-1.294,1.294-1.294
		S440.701,508.722,440.701,509.435z"/>
	
		<path id="path3795-934-71" sodipodi:ry="2.6785715" sodipodi:rx="2.6785715" sodipodi:cy="913.79077" sodipodi:cx="173.03572" sodipodi:type="arc" fill="#FFFFFF" stroke="#6F2767" d="
		M442.427,523.328c0,0.715-0.579,1.294-1.295,1.294c-0.714,0-1.294-0.579-1.294-1.294s0.58-1.295,1.294-1.295
		C441.848,522.033,442.427,522.613,442.427,523.328z"/>
	
		<path id="path3795-934-77" sodipodi:ry="2.6785715" sodipodi:rx="2.6785715" sodipodi:cy="913.79077" sodipodi:cx="173.03572" sodipodi:type="arc" fill="#FFFFFF" stroke="#6F2767" d="
		M451.951,515.304c0,1.638-1.328,2.967-2.967,2.967s-2.967-1.329-2.967-2.967c0-1.639,1.328-2.967,2.967-2.967
		S451.951,513.665,451.951,515.304z"/>
	
		<path id="path3795-934-8-2" sodipodi:ry="2.6785715" sodipodi:rx="2.6785715" sodipodi:cy="913.79077" sodipodi:cx="173.03572" sodipodi:type="arc" fill="#FFFFFF" stroke="#6F2767" d="
		M272.425,499.464c0,1.056-0.855,1.911-1.911,1.911s-1.911-0.855-1.911-1.911s0.855-1.911,1.911-1.911
		S272.425,498.408,272.425,499.464z"/>
	
		<path id="path3795-43-2" sodipodi:ry="2.6785715" sodipodi:rx="2.6785715" sodipodi:cy="913.79077" sodipodi:cx="173.03572" sodipodi:type="arc" fill="#FBFFFF" stroke="#F30004" d="
		M271.808,499.464c0,0.715-0.579,1.295-1.294,1.295s-1.294-0.58-1.294-1.295s0.58-1.294,1.294-1.294
		S271.808,498.749,271.808,499.464z"/>
</g>
<g id="layer11" transform="translate(68.625,177.7775)" inkscape:label="nombres2" inkscape:groupmode="layer" sodipodi:insensitive="true">
	<path id="rect4815-5-9" fill="#FFFFFF" stroke="#6F2767" stroke-width="1.3806" d="M208.456,472.138h15.812
		c1.429,0,2.588,1.159,2.588,2.588v21.79c0,1.43-1.159,2.589-2.588,2.589h-15.812c-1.43,0-2.588-1.159-2.588-2.589v-21.79
		C205.867,473.297,207.026,472.138,208.456,472.138z"/>
	<path id="rect4817-8-2" fill="#6F2767" stroke="#6F2767" stroke-width="1.1664" d="M207.734,472.26h17.135
		c1.03,0,1.864,0.834,1.864,1.865v1.544c0,1.03-0.834,1.864-1.864,1.864h-17.135c-1.03,0-1.864-0.834-1.864-1.864v-1.544
		C205.87,473.094,206.704,472.26,207.734,472.26z"/>
	<text transform="matrix(1 0 0 1 210.0776 493.1268)" fill="#6F2767" font-family="'Verdana'" font-size="19.3277">2</text>
	<text transform="matrix(1 0 0 1 209.9556 476.5316)" fill="#FFFFFF" font-family="'Verdana'" font-size="4.8319">Linea</text>
	<path id="rect4815-5-9-2" fill="#FFFFFF" stroke="#6F2767" stroke-width="1.3806" d="M470.457,485.581h15.811
		c1.43,0,2.589,1.159,2.589,2.589v21.791c0,1.43-1.159,2.588-2.589,2.588h-15.811c-1.43,0-2.589-1.158-2.589-2.588V488.17
		C467.868,486.741,469.027,485.581,470.457,485.581z"/>
	<path id="rect4817-8-2-1" fill="#6F2767" stroke="#6F2767" stroke-width="1.1664" d="M469.734,485.703h17.136
		c1.029,0,1.864,0.835,1.864,1.864v1.544c0,1.03-0.835,1.864-1.864,1.864h-17.136c-1.029,0-1.863-0.834-1.863-1.864v-1.544
		C467.871,486.538,468.705,485.703,469.734,485.703z"/>
	<text transform="matrix(1 0 0 1 472.0781 506.5702)" fill="#6F2767" font-family="'Verdana'" font-size="19.3277">2</text>
	<text transform="matrix(1 0 0 1 471.957 489.975)" fill="#FFFFFF" font-family="'Verdana'" font-size="4.8319">Linea</text>
	<text transform="matrix(1 0 0 1 219.5391 507.3954)" font-family="'Verdana'" font-size="4.8319">Tacubaya</text>
	<text transform="matrix(0.544 -0.8391 0.8391 0.544 233.4751 485.9218)" font-family="'Verdana'" font-size="2.8992">Parque Lira</text>
	<text transform="matrix(0.4915 -0.8709 0.8709 0.4915 245.9585 483.5966)" font-family="'Verdana'" font-size="2.8992">De la salle</text>
	<text transform="matrix(0.3904 -0.9206 0.9206 0.3904 249.7095 507.6942)" font-family="'Verdana'" font-size="2.8992">Patriotismo</text>
	<text transform="matrix(0.3465 -0.9381 0.9381 0.3465 259.4292 509.618)" font-family="'Verdana'" font-size="2.8992">Escandón</text>
	<text transform="matrix(0.4116 -0.9114 0.9114 0.4116 244.5244 498.5126)" font-family="'Verdana'" font-size="2.8992">Antonio </text>
	<text transform="matrix(0.4116 -0.9114 0.9114 0.4116 247.8267 500.0048)" font-family="'Verdana'" font-size="2.8992">Maceo</text>
	<text transform="matrix(0.4827 -0.8758 0.8758 0.4827 281.0347 500.7118)" font-family="'Verdana'" font-size="2.8992">Viaducto</text>
	<text transform="matrix(0.4332 -0.9013 0.9013 0.4332 285.4253 502.5975)" font-family="'Verdana'" font-size="2.8992">Amores</text>
	<text transform="matrix(0.1579 -0.9875 0.9875 0.1579 298.4233 521.7919)" font-family="'Verdana'" font-size="2.8992">Dr Vértiz</text>
	<text transform="matrix(0.1292 -0.9916 0.9916 0.1292 305.5527 528.2782)" font-family="'Verdana'" font-size="2.8992">Centro SCOP</text>
	<text transform="matrix(0.0665 -0.9978 0.9978 0.0665 313.1191 520.8358)" font-family="'Verdana'" font-size="2.8992">Álamos</text>
	<text transform="matrix(0.1113 -0.9938 0.9938 0.1113 320.3462 517.9042)" font-family="'Verdana'" font-size="2.8992">Xola</text>
	<text transform="matrix(0.0727 -0.9974 0.9974 0.0727 325.6011 531.3563)" font-family="'Verdana'" font-size="2.8992">Las Américas</text>
	<text transform="matrix(0.069 -0.9976 0.9976 0.069 331.0923 536.7216)" font-family="'Verdana'" font-size="2.8992">Andrés Molina Enríquez</text>
	<text transform="matrix(0.0498 -0.9988 0.9988 0.0498 341.4473 497.7567)" font-family="'Verdana'" font-size="2.8992">La Viga</text>
	<text transform="matrix(0.0434 -0.9991 0.9991 0.0434 349.2964 514.4305)" font-family="'Verdana'" font-size="2.8992">Coyuya</text>
	<text transform="matrix(0.033 -0.9995 0.9995 0.033 358.7217 499.161)" font-family="'Verdana'" font-size="2.8992">Canela</text>
	<text transform="matrix(0.0691 -0.9976 0.9976 0.0691 364.7275 515.2733)" font-family="'Verdana'" font-size="2.8992">Tacotal</text>
	<text transform="matrix(0.0513 -0.9987 0.9987 0.0513 372.6289 499.285)" font-family="'Verdana'" font-size="2.8992">Goma</text>
	<text transform="matrix(0.0458 -0.999 0.999 0.0458 377.3984 518.8427)" font-family="'Verdana'" font-size="2.8992">Iztacalco</text>
	<text transform="matrix(0.0776 -0.997 0.997 0.0776 385.6055 504.0048)" font-family="'Verdana'" font-size="2.8992">UPIICSA</text>
	<text transform="matrix(0.0198 -0.9998 0.9998 0.0198 388.4648 526.7753)" font-family="'Verdana'" font-size="2.8992">El rodeo</text>
	<text transform="matrix(0.0537 -0.9986 0.9986 0.0537 394.9443 512.8007)" font-family="'Verdana'" font-size="2.8992">Rio Tecolutla</text>
	<text transform="matrix(5.340570e-004 -1 1 5.340570e-004 399.4639 536.5204)" font-family="'Verdana'" font-size="2.8992">Rio Mayo</text>
	<text transform="matrix(0.0181 -0.9998 0.9998 0.0181 404.7344 544.8231)" font-family="'Verdana'" font-size="2.8992">Rojo Gómez</text>
	<text transform="matrix(0.0496 -0.9988 0.9988 0.0496 410.0938 512.9354)" font-family="'Verdana'" font-size="2.8992">Rio Frio</text>
	<text transform="matrix(0.0246 -0.9997 0.9997 0.0246 413.9443 539.328)" font-family="'Verdana'" font-size="2.8992">Del Moral</text>
	<text transform="matrix(0.0162 -0.9999 0.9999 0.0162 419.71 553.6249)" font-family="'Verdana'" font-size="2.8992">Leyes de Reforma</text>
	<text transform="matrix(0.0152 -0.9999 0.9999 0.0152 426.7832 546.3641)" font-family="'Verdana'" font-size="2.8992">CCH Oriente</text>
	<text transform="matrix(0.0238 -0.9997 0.9997 0.0238 420.6201 519.3788)" font-family="'Verdana'" font-size="2.8992">Constitución de </text>
	<text transform="matrix(0.0238 -0.9997 0.9997 0.0238 424.2432 519.4667)" font-family="'Verdana'" font-size="2.8992">Apatzingán</text>
	<text transform="matrix(0.0154 -0.9999 0.9999 0.0154 431.3467 501.6278)" font-family="'Verdana'" font-size="2.8992">Canal de San Juan</text>
	<text transform="matrix(0.0238 -0.9997 0.9997 0.0238 441.665 507.3016)" font-family="'Verdana'" font-size="2.8992">Nicolás Bravo</text>
	<text transform="matrix(1 0 0 1 452.748 517.1991)" font-family="'Verdana'" font-size="4.8319">Tepalcates</text>
	<text transform="matrix(0.0375 -0.9993 0.9993 0.0375 438.7109 549.6464)" font-family="'Verdana'" font-size="2.8992">General Antonio</text>
	<text transform="matrix(0.0375 -0.9993 0.9993 0.0375 442.333 549.7821)" font-family="'Verdana'" font-size="2.8992">      de León</text>
</g>
<g id="layer4" transform="translate(68.625,177.7775)" inkscape:label="3" inkscape:groupmode="layer" sodipodi:insensitive="true">
	<path id="path3773" inkscape:connector-curvature="0" fill="none" stroke="#72A32D" stroke-width="2" d="M274.344,295.451
		l4.832,7.938l3.624,7.076l2.589,8.11l3.106,8.111l2.244,7.938l2.071,6.73l2.243,7.075l2.243,7.42l2.244,6.903l1.898,6.212
		l1.38,6.213l1.726,5.694l1.898,6.558l1.167,5.263l1.098,9.396c0,0,5.735,0.122,6.346,1.098c0.61,0.977-0.854,4.515-0.854,4.515
		s-2.685,4.759-2.807,5.613s-2.318,5.491-2.318,5.491l-3.539,10.373l-4.881,8.176c0,0,2.509,1.933,2.423,2.796
		c-0.086,0.863-1.122,4.832-1.035,5.35c0.086,0.518-1.553,7.075-1.467,7.679c0.086,0.604-0.949,5.177-1.553,5.436
		s-9.923,4.314-9.923,4.314l1.122,7.248l0.432,6.73l0.431,7.852l0.604,6.558l0.949,6.816l0.604,6.989"/>
	
		<path id="path3777" sodipodi:nodetypes="cc" inkscape:connector-curvature="0" fill="#72A32D" stroke="#72A32D" stroke-width="2" d="
		M304.498,430.826l-8.382-6.325"/>
	<path id="path3779" inkscape:connector-curvature="0" fill-opacity="0" stroke="#72A32D" stroke-width="2" d="M307.731,393.058
		l7.565-5.735"/>
</g>
<g id="layer8" transform="translate(68.625,177.7775)" inkscape:label="nodos3" inkscape:groupmode="layer" sodipodi:insensitive="true">
	
		<path id="path3795-934-773" sodipodi:ry="2.6785715" sodipodi:rx="2.6785715" sodipodi:cy="913.79077" sodipodi:cx="173.03572" sodipodi:type="arc" fill="#FFFFFF" stroke="#72A32D" d="
		M280.255,303.259c0,0.715-0.58,1.294-1.294,1.294c-0.714,0-1.294-0.58-1.294-1.294s0.58-1.294,1.294-1.294
		C279.675,301.965,280.255,302.544,280.255,303.259z"/>
	
		<path id="path3795-934-773-3" sodipodi:ry="2.6785715" sodipodi:rx="2.6785715" sodipodi:cy="913.79077" sodipodi:cx="173.03572" sodipodi:type="arc" fill="#FFFFFF" stroke="#72A32D" d="
		M283.663,309.946c0,0.715-0.58,1.294-1.294,1.294c-0.714,0-1.294-0.58-1.294-1.294s0.58-1.294,1.294-1.294
		C283.083,308.652,283.663,309.231,283.663,309.946z"/>
	
		<path id="path3795-934-773-5" sodipodi:ry="2.6785715" sodipodi:rx="2.6785715" sodipodi:cy="913.79077" sodipodi:cx="173.03572" sodipodi:type="arc" fill="#FFFFFF" stroke="#72A32D" d="
		M286.683,318.1c0,0.715-0.58,1.294-1.294,1.294c-0.715,0-1.294-0.579-1.294-1.294c0-0.715,0.58-1.294,1.294-1.294
		C286.104,316.806,286.683,317.385,286.683,318.1z"/>
	
		<path id="path3795-934-773-9" sodipodi:ry="2.6785715" sodipodi:rx="2.6785715" sodipodi:cy="913.79077" sodipodi:cx="173.03572" sodipodi:type="arc" fill="#FFFFFF" stroke="#72A32D" d="
		M289.53,326.297c0,0.715-0.579,1.294-1.294,1.294s-1.294-0.58-1.294-1.294s0.58-1.294,1.294-1.294S289.53,325.582,289.53,326.297z"
		/>
	
		<path id="path3795-934-773-98" sodipodi:ry="2.6785715" sodipodi:rx="2.6785715" sodipodi:cy="913.79077" sodipodi:cx="173.03572" sodipodi:type="arc" fill="#FFFFFF" stroke="#72A32D" d="
		M292.076,334.235c0,0.715-0.579,1.294-1.294,1.294s-1.294-0.58-1.294-1.294s0.58-1.294,1.294-1.294S292.076,333.52,292.076,334.235
		z"/>
	
		<path id="path3795-934-773-1" sodipodi:ry="2.6785715" sodipodi:rx="2.6785715" sodipodi:cy="913.79077" sodipodi:cx="173.03572" sodipodi:type="arc" fill="#FFFFFF" stroke="#72A32D" d="
		M293.974,341.095c0,0.715-0.58,1.294-1.294,1.294c-0.715,0-1.294-0.58-1.294-1.294s0.58-1.294,1.294-1.294
		C293.395,339.801,293.974,340.38,293.974,341.095z"/>
	
		<path id="path3795-934-773-8" sodipodi:ry="2.6785715" sodipodi:rx="2.6785715" sodipodi:cy="913.79077" sodipodi:cx="173.03572" sodipodi:type="arc" fill="#FFFFFF" stroke="#72A32D" d="
		M296.649,348.257c0,0.715-0.579,1.294-1.294,1.294c-0.715,0-1.294-0.579-1.294-1.294s0.579-1.294,1.294-1.294
		C296.07,346.962,296.649,347.542,296.649,348.257z"/>
	
		<path id="path3795-934-773-2" sodipodi:ry="2.6785715" sodipodi:rx="2.6785715" sodipodi:cy="913.79077" sodipodi:cx="173.03572" sodipodi:type="arc" fill="#FFFFFF" stroke="#72A32D" d="
		M298.59,355.764c0,0.715-0.579,1.294-1.294,1.294c-0.715,0-1.294-0.579-1.294-1.294s0.579-1.294,1.294-1.294
		C298.011,354.469,298.59,355.049,298.59,355.764z"/>
	
		<path id="path3795-934-773-6" sodipodi:ry="2.6785715" sodipodi:rx="2.6785715" sodipodi:cy="913.79077" sodipodi:cx="173.03572" sodipodi:type="arc" fill="#FFFFFF" stroke="#72A32D" d="
		M300.489,362.925c0,0.715-0.58,1.294-1.294,1.294s-1.294-0.579-1.294-1.294s0.58-1.294,1.294-1.294S300.489,362.21,300.489,362.925
		z"/>
	
		<path id="path3795-934-773-60" sodipodi:ry="2.6785715" sodipodi:rx="2.6785715" sodipodi:cy="913.79077" sodipodi:cx="173.03572" sodipodi:type="arc" fill="#FFFFFF" stroke="#72A32D" d="
		M302.344,368.706c0,0.715-0.58,1.294-1.294,1.294c-0.715,0-1.294-0.58-1.294-1.294s0.579-1.294,1.294-1.294
		C301.764,367.412,302.344,367.991,302.344,368.706z"/>
	
		<path id="path3795-934-773-38" sodipodi:ry="2.6785715" sodipodi:rx="2.6785715" sodipodi:cy="913.79077" sodipodi:cx="173.03572" sodipodi:type="arc" fill="#FFFFFF" stroke="#72A32D" d="
		M304.199,374.53c0,0.715-0.58,1.294-1.294,1.294c-0.715,0-1.294-0.58-1.294-1.294s0.58-1.294,1.294-1.294
		C303.619,373.236,304.199,373.815,304.199,374.53z"/>
	
		<path id="path3795-934-773-0" sodipodi:ry="2.6785715" sodipodi:rx="2.6785715" sodipodi:cy="913.79077" sodipodi:cx="173.03572" sodipodi:type="arc" fill="#FFFFFF" stroke="#72A32D" d="
		M305.838,380.613c0,0.715-0.58,1.294-1.294,1.294s-1.294-0.58-1.294-1.294c0-0.714,0.58-1.294,1.294-1.294
		S305.838,379.899,305.838,380.613z"/>
	
		<path id="path3795-934-773-12" sodipodi:ry="2.6785715" sodipodi:rx="2.6785715" sodipodi:cy="913.79077" sodipodi:cx="173.03572" sodipodi:type="arc" fill="#FFFFFF" stroke="#72A32D" d="
		M307.521,386.653c0,0.715-0.58,1.294-1.294,1.294s-1.294-0.58-1.294-1.294s0.579-1.294,1.294-1.294
		S307.521,385.938,307.521,386.653z"/>
	
		<path id="path3795-934-773-50" sodipodi:ry="2.6785715" sodipodi:rx="2.6785715" sodipodi:cy="913.79077" sodipodi:cx="173.03572" sodipodi:type="arc" fill="#FFFFFF" stroke="#72A32D" d="
		M309.16,392.607c0,0.715-0.58,1.294-1.294,1.294c-0.715,0-1.294-0.58-1.294-1.294s0.58-1.294,1.294-1.294
		C308.581,391.312,309.16,391.892,309.16,392.607z"/>
	
		<path id="path3795-934-773-94" sodipodi:ry="2.6785715" sodipodi:rx="2.6785715" sodipodi:cy="913.79077" sodipodi:cx="173.03572" sodipodi:type="arc" fill="#FFFFFF" stroke="#72A32D" d="
		M315.2,407.62c0,0.715-0.58,1.294-1.294,1.294s-1.294-0.58-1.294-1.294s0.58-1.294,1.294-1.294S315.2,406.906,315.2,407.62z"/>
	
		<path id="path3795-934-773-7" sodipodi:ry="2.6785715" sodipodi:rx="2.6785715" sodipodi:cy="913.79077" sodipodi:cx="173.03572" sodipodi:type="arc" fill="#FFFFFF" stroke="#72A32D" d="
		M312.655,413.142c0,0.715-0.58,1.294-1.294,1.294s-1.294-0.58-1.294-1.294s0.579-1.294,1.294-1.294
		S312.655,412.428,312.655,413.142z"/>
	
		<path id="path3795-934-773-83" sodipodi:ry="2.6785715" sodipodi:rx="2.6785715" sodipodi:cy="913.79077" sodipodi:cx="173.03572" sodipodi:type="arc" fill="#FFFFFF" stroke="#72A32D" d="
		M310.412,418.665c0,0.715-0.58,1.294-1.294,1.294s-1.294-0.579-1.294-1.294s0.58-1.294,1.294-1.294S310.412,417.95,310.412,418.665
		z"/>
	
		<path id="path3795-934-773-51" sodipodi:ry="2.6785715" sodipodi:rx="2.6785715" sodipodi:cy="913.79077" sodipodi:cx="173.03572" sodipodi:type="arc" fill="#FFFFFF" stroke="#72A32D" d="
		M306.917,428.415c0,0.715-0.58,1.294-1.294,1.294s-1.294-0.579-1.294-1.294s0.58-1.294,1.294-1.294S306.917,427.7,306.917,428.415z
		"/>
	
		<path id="path3795-934-773-20" sodipodi:ry="2.6785715" sodipodi:rx="2.6785715" sodipodi:cy="913.79077" sodipodi:cx="173.03572" sodipodi:type="arc" fill="#FFFFFF" stroke="#72A32D" d="
		M301.567,437.259c0,0.715-0.58,1.294-1.294,1.294s-1.294-0.58-1.294-1.294s0.58-1.294,1.294-1.294S301.567,436.544,301.567,437.259
		z"/>
	
		<path id="path3795-934-773-16" sodipodi:ry="2.6785715" sodipodi:rx="2.6785715" sodipodi:cy="913.79077" sodipodi:cx="173.03572" sodipodi:type="arc" fill="#FFFFFF" stroke="#72A32D" d="
		M300.402,458.313c0,0.714-0.58,1.294-1.294,1.294c-0.715,0-1.294-0.58-1.294-1.294c0-0.715,0.579-1.294,1.294-1.294
		C299.823,457.018,300.402,457.598,300.402,458.313z"/>
	
		<path id="path3795-934-773-4" sodipodi:ry="2.6785715" sodipodi:rx="2.6785715" sodipodi:cy="913.79077" sodipodi:cx="173.03572" sodipodi:type="arc" fill="#FFFFFF" stroke="#72A32D" d="
		M290.652,462.756c0,0.715-0.58,1.294-1.294,1.294s-1.294-0.579-1.294-1.294s0.58-1.294,1.294-1.294
		S290.652,462.041,290.652,462.756z"/>
	
		<path id="path3795-934-773-06" sodipodi:ry="2.6785715" sodipodi:rx="2.6785715" sodipodi:cy="913.79077" sodipodi:cx="173.03572" sodipodi:type="arc" fill="#FFFFFF" stroke="#72A32D" d="
		M291.601,470.349c0,0.714-0.579,1.294-1.294,1.294s-1.294-0.58-1.294-1.294c0-0.715,0.58-1.294,1.294-1.294
		S291.601,469.634,291.601,470.349z"/>
	
		<path id="path3795-934-773-18" sodipodi:ry="2.6785715" sodipodi:rx="2.6785715" sodipodi:cy="913.79077" sodipodi:cx="173.03572" sodipodi:type="arc" fill="#FFFFFF" stroke="#72A32D" d="
		M292.033,476.864c0,0.715-0.58,1.294-1.294,1.294c-0.715,0-1.294-0.58-1.294-1.294s0.58-1.294,1.294-1.294
		C291.453,475.569,292.033,476.149,292.033,476.864z"/>
	
		<path id="path3795-934-773-984" sodipodi:ry="2.6785715" sodipodi:rx="2.6785715" sodipodi:cy="913.79077" sodipodi:cx="173.03572" sodipodi:type="arc" fill="#FFFFFF" stroke="#72A32D" d="
		M292.594,484.715c0,0.715-0.58,1.294-1.294,1.294s-1.294-0.579-1.294-1.294c0-0.714,0.58-1.294,1.294-1.294
		S292.594,484.001,292.594,484.715z"/>
	
		<path id="path3795-934-773-14" sodipodi:ry="2.6785715" sodipodi:rx="2.6785715" sodipodi:cy="913.79077" sodipodi:cx="173.03572" sodipodi:type="arc" fill="#FFFFFF" stroke="#72A32D" d="
		M293.068,491.273c0,0.714-0.58,1.294-1.294,1.294s-1.294-0.58-1.294-1.294c0-0.715,0.58-1.294,1.294-1.294
		S293.068,490.558,293.068,491.273z"/>
	
		<path id="path3795-934-773-39" sodipodi:ry="2.6785715" sodipodi:rx="2.6785715" sodipodi:cy="913.79077" sodipodi:cx="173.03572" sodipodi:type="arc" fill="#FFFFFF" stroke="#72A32D" d="
		M293.974,498.133c0,0.715-0.58,1.294-1.294,1.294c-0.715,0-1.294-0.579-1.294-1.294s0.58-1.294,1.294-1.294
		C293.395,496.839,293.974,497.418,293.974,498.133z"/>
	
		<path id="path3795-934-773-88" sodipodi:ry="2.6785715" sodipodi:rx="2.6785715" sodipodi:cy="913.79077" sodipodi:cx="173.03572" sodipodi:type="arc" fill="#FFFFFF" stroke="#72A32D" d="
		M277.682,295.062c0,1.819-1.475,3.294-3.294,3.294c-1.819,0-3.294-1.475-3.294-3.294c0-1.819,1.475-3.294,3.294-3.294
		C276.207,291.768,277.682,293.243,277.682,295.062z"/>
	
		<path id="path3795-934-773-50-6" sodipodi:ry="2.6785715" sodipodi:rx="2.6785715" sodipodi:cy="913.79077" sodipodi:cx="173.03572" sodipodi:type="arc" fill="#FFFFFF" stroke="#72A32D" d="
		M310.966,401.723c0,1.045-0.847,1.893-1.893,1.893s-1.893-0.848-1.893-1.893c0-1.045,0.847-1.893,1.893-1.893
		S310.966,400.677,310.966,401.723z"/>
	
		<path id="path3795-02-3" sodipodi:ry="2.6785715" sodipodi:rx="2.6785715" sodipodi:cy="913.79077" sodipodi:cx="173.03572" sodipodi:type="arc" fill="#FBFFFF" stroke="#F30004" d="
		M310.375,401.736c0,0.715-0.58,1.294-1.294,1.294s-1.294-0.58-1.294-1.294s0.579-1.294,1.294-1.294
		S310.375,401.021,310.375,401.736z"/>
	
		<path id="path3795-934-773-39-4" sodipodi:ry="2.6785715" sodipodi:rx="2.6785715" sodipodi:cy="913.79077" sodipodi:cx="173.03572" sodipodi:type="arc" fill="#FFFFFF" stroke="#72A32D" d="
		M294.91,504.882c0,1.036-0.84,1.876-1.876,1.876s-1.876-0.84-1.876-1.876c0-1.035,0.84-1.876,1.876-1.876
		S294.91,503.847,294.91,504.882z"/>
	
		<path id="path3795-934-49-1" sodipodi:ry="2.6785715" sodipodi:rx="2.6785715" sodipodi:cy="913.79077" sodipodi:cx="173.03572" sodipodi:type="arc" fill="#FFFFFF" stroke="#6F2767" d="
		M294.328,504.882c0,0.715-0.58,1.295-1.294,1.295s-1.294-0.58-1.294-1.295c0-0.714,0.58-1.294,1.294-1.294
		S294.328,504.168,294.328,504.882z"/>
</g>
<g id="layer12" transform="translate(68.625,177.7775)" inkscape:label="nombres3" inkscape:groupmode="layer" sodipodi:insensitive="true">
	<path id="rect4815-5-9-29" fill="#FFFFFF" stroke="#72A32D" stroke-width="1.3806" d="M279.554,261.259h15.811
		c1.43,0,2.588,1.159,2.588,2.588v21.791c0,1.43-1.159,2.588-2.588,2.588h-15.811c-1.43,0-2.589-1.159-2.589-2.588v-21.791
		C276.965,262.417,278.125,261.259,279.554,261.259z"/>
	<path id="rect4817-8-2-5" fill="#72A32D" stroke="#72A32D" stroke-width="1.1664" d="M278.832,261.381h17.136
		c1.029,0,1.864,0.834,1.864,1.864v1.544c0,1.03-0.835,1.865-1.864,1.865h-17.136c-1.029,0-1.864-0.835-1.864-1.865v-1.544
		C276.968,262.215,277.803,261.381,278.832,261.381z"/>
	<text transform="matrix(1 0 0 1 281.1763 282.2474)" fill="#72A32D" font-family="'Verdana'" font-size="19.3277">3</text>
	<text transform="matrix(1 0 0 1 281.0542 265.6522)" fill="#FFFFFF" font-family="'Verdana'" font-size="4.8319">Linea</text>
	<text transform="matrix(1 0 0 1 279.3311 295.9266)" font-family="'Verdana'" font-size="4.8319">Tenayuca</text>
	<text transform="matrix(1 0 0 1 283.1138 303.9803)" font-family="'Verdana'" font-size="2.8992">San José de la escalera</text>
	<text transform="matrix(1 0 0 1 286.2866 310.5697)" font-family="'Verdana'" font-size="2.8992">Progeso Nacional</text>
	<text transform="matrix(1 0 0 1 290.5576 318.9896)" font-family="'Verdana'" font-size="2.8992">Tres Anegas</text>
	<text transform="matrix(1 0 0 1 292.3877 327.1649)" font-family="'Verdana'" font-size="2.8992">Júpiter</text>
	<text transform="matrix(1 0 0 1 294.7061 334.7303)" font-family="'Verdana'" font-size="2.8992">La patera</text>
	<text transform="matrix(1 0 0 1 296.0483 341.6859)" font-family="'Verdana'" font-size="2.8992">Poniente 146</text>
	<text transform="matrix(1 0 0 1 299.3433 349.2513)" font-family="'Verdana'" font-size="2.8992">Montevideo</text>
	<text transform="matrix(1 0 0 1 300.4414 356.3285)" font-family="'Verdana'" font-size="2.8992">Poniente 134</text>
	<text transform="matrix(1 0 0 1 302.8818 363.5282)" font-family="'Verdana'" font-size="2.8992">Poniente 128</text>
	<text transform="matrix(1 0 0 1 261.3682 370.1063)" font-family="'Verdana'" font-size="2.8992">Magdalena de las Salinas</text>
	<text transform="matrix(1 0 0 1 306.0635 375.2836)" font-family="'Verdana'" font-size="2.8992">Coltongo</text>
	<text transform="matrix(1 0 0 1 285.8726 382.0135)" font-family="'Verdana'" font-size="2.8992">Cuitláhuac</text>
	<text transform="matrix(1 0 0 1 277.2441 388.0536)" font-family="'Verdana'" font-size="2.8992">Heroe de Nacozari</text>
	<text transform="matrix(1 0 0 1 280.3506 394.4388)" font-family="'Verdana'" font-size="2.8992">Hospital la Raza</text>
	<text transform="matrix(1 0 0 1 317.6255 409.452)" font-family="'Verdana'" font-size="2.8992">Tolnahuac</text>
	<text transform="matrix(1 0 0 1 314.0015 415.4921)" font-family="'Verdana'" font-size="2.8992">Tlatelolco</text>
	<text transform="matrix(1 0 0 1 311.7583 421.0145)" font-family="'Verdana'" font-size="2.8992">Ricardo Flores </text>
	<text transform="matrix(1 0 0 1 311.7583 424.6381)" font-family="'Verdana'" font-size="2.8992">Magón</text>
	<text transform="matrix(1 0 0 1 308.9971 429.2977)" font-family="'Verdana'" font-size="2.8992">Guerrero</text>
	<text transform="matrix(0.9994 -0.036 0.036 0.9994 294.7964 500.6708)" font-family="'Verdana'" font-size="2.8992">    Etiopia-Plaza </text>
	<text transform="matrix(0.9994 -0.036 0.036 0.9994 294.9272 504.2919)" font-family="'Verdana'" font-size="2.8992">de la Transparencia</text>
	<text transform="matrix(1 0 0 1 303.938 437.7313)" font-family="'Verdana'" font-size="2.8992">Mina</text>
	<text transform="matrix(1 0 0 1 301.8672 460.683)" font-family="'Verdana'" font-size="2.8992">Balderas</text>
	<text transform="matrix(1 0 0 1 291.7744 465.5253)" font-family="'Verdana'" font-size="2.8992">Cuauhtémoc</text>
	<text transform="matrix(1 0 0 1 293.7021 470.6815)" font-family="'Verdana'" font-size="2.8992">Jardín Pushkin</text>
	<text transform="matrix(1 0 0 1 293.9775 477.2372)" font-family="'Verdana'" font-size="2.8992">Hospital General</text>
	<text transform="matrix(1 0 0 1 293.751 482.7767)" font-family="'Verdana'" font-size="2.8992">Dr Márquez</text>
	<text transform="matrix(1 0 0 1 294.0454 489.7113)" font-family="'Verdana'" font-size="2.8992">Centro Médico</text>
	<text transform="matrix(1 0 0 1 294.2725 495.8158)" font-family="'Verdana'" font-size="2.8992">Obrero Mundial</text>
</g>
<g id="layer5" transform="translate(68.625,177.7775)" inkscape:label="4" inkscape:groupmode="layer" sodipodi:insensitive="true">
	
		<path id="path3782" sodipodi:nodetypes="cssssssscscsscssscccsc" inkscape:connector-curvature="0" fill="none" stroke="#F68E1F" stroke-width="2" d="
		M295.048,425.167c0,0,0.867,8.511,0.177,9.546c-0.69,1.036-0.863,4.4-1.64,5.091s-1.294,5.781-1.812,6.299
		c-0.518,0.518-1.726,4.4-1.122,4.4s3.02-1.122,3.538-0.518s-0.604,2.847,1.984,3.279c2.589,0.431,3.624-0.345,4.056,0
		c0.431,0.345,4.573,1.294,4.573,1.294s5.781-0.776,6.212-0.172c0.432,0.604,5.264,0.604,5.264,0.604s4.487,0.172,4.832,0.604
		s3.02,0.518,3.796,0.518c0.776,0,4.4,0.69,4.832,1.036c0.431,0.345,4.4,1.035,4.228,1.553c-0.172,0.518-1.208,3.451-0.776,4.487
		c0.432,1.035,3.624,2.33,4.487,2.07c0.863-0.259,5.004-0.086,5.004-0.086l0.345-1.38l2.243,0.258c0,0,6.385,0.777,6.817,0.777
		c0.431,0,0.345-5.177,3.451-5.867"/>
	<path id="path3784" inkscape:connector-curvature="0" fill="none" stroke="#F68E1F" stroke-width="2" d="M292.662,443.393
		l3.478,0.366l6.345,1.159c0,0,5.003,1.404,5.552,1.404c0.549,0,5.125,0.61,5.491,0c0.366-0.61,1.952-6.65,2.074-7.2
		c0.122-0.549,5.43,0.244,5.43,0.244l6.04,0.61l5.186,0.671l6.346,0.549l5.552,0.732l6.041,0.916c0,0,2.135,1.586,1.22,4.271
		c-0.915,2.684,0,6.528,0,6.528s6.883-6.203,9.903-5.082c3.02,1.122,9.275,5.565,9.275,5.565l39.216,23.124"/>
	<path id="path3786" inkscape:connector-curvature="0" fill="none" stroke="#F68E1F" stroke-width="2" d="M407.567,431.263
		c0,0-4.314-0.432-5.694-0.777c-1.381-0.345-3.711-1.036-9.837,11.735c-6.126,12.77-9.491,18.896-9.491,18.896"/>
	<path id="path3788" inkscape:connector-curvature="0" fill="none" stroke="#F68E1F" stroke-width="2" d="M408.732,431.607
		c0,0-2.546,4.185-3.494,4.185c-0.949,0-3.408-0.345-4.271-1.122c-0.863-0.777-4.573-0.475-4.573-0.475"/>
	<path id="path3790" inkscape:connector-curvature="0" fill="none" stroke="#F68E1F" stroke-width="2" d="M355.017,458.556
		c0,0-4.058-1.831-3.997-2.593c0.062-0.763-2.227,2.99-2.227,2.99l-4.088-0.092c0,0-2.013,0-2.075,1.19
		c-0.061,1.189,0.244,4.057,0.244,4.057"/>
	<path id="path4058" inkscape:connector-curvature="0" fill="none" stroke="#F58E20" stroke-width="2" d="M324.494,456.293
		l-1.237,6.188l9.723,0.884"/>
</g>
<g id="layer9" transform="translate(68.625,177.7775)" inkscape:label="nodos4" inkscape:groupmode="layer" sodipodi:insensitive="true">
	
		<path id="path3795-934-773-08" sodipodi:ry="2.6785715" sodipodi:rx="2.6785715" sodipodi:cy="913.79077" sodipodi:cx="173.03572" sodipodi:type="arc" fill="#FFFFFF" stroke="#F68E1F" d="
		M296.52,434.541c0,0.715-0.58,1.294-1.294,1.294c-0.715,0-1.294-0.579-1.294-1.294c0-0.714,0.579-1.294,1.294-1.294
		C295.94,433.247,296.52,433.827,296.52,434.541z"/>
	
		<path id="path3795-934-773-08-7" sodipodi:ry="2.6785715" sodipodi:rx="2.6785715" sodipodi:cy="913.79077" sodipodi:cx="173.03572" sodipodi:type="arc" fill="#FFFFFF" stroke="#F68E1F" d="
		M294.88,439.502c0,0.715-0.58,1.294-1.294,1.294s-1.294-0.58-1.294-1.294c0-0.714,0.58-1.294,1.294-1.294
		S294.88,438.788,294.88,439.502z"/>
	
		<path id="path3795-934-773-08-78" sodipodi:ry="2.6785715" sodipodi:rx="2.6785715" sodipodi:cy="913.79077" sodipodi:cx="173.03572" sodipodi:type="arc" fill="#FFFFFF" stroke="#F68E1F" d="
		M293.198,445.413c0,0.715-0.58,1.294-1.294,1.294s-1.294-0.58-1.294-1.294s0.58-1.294,1.294-1.294S293.198,444.698,293.198,445.413
		z"/>
	
		<path id="path3795-934-773-08-3" sodipodi:ry="2.6785715" sodipodi:rx="2.6785715" sodipodi:cy="913.79077" sodipodi:cx="173.03572" sodipodi:type="arc" fill="#FFFFFF" stroke="#F68E1F" d="
		M291.881,450.166c0,0.715-0.58,1.294-1.294,1.294s-1.294-0.58-1.294-1.294s0.579-1.294,1.294-1.294
		S291.881,449.451,291.881,450.166z"/>
	
		<path id="path3795-934-773-08-8" sodipodi:ry="2.6785715" sodipodi:rx="2.6785715" sodipodi:cy="913.79077" sodipodi:cx="173.03572" sodipodi:type="arc" fill="#FFFFFF" stroke="#F68E1F" d="
		M295.359,449.861c0,0.714-0.58,1.294-1.294,1.294c-0.715,0-1.294-0.58-1.294-1.294c0-0.715,0.58-1.294,1.294-1.294
		C294.779,448.567,295.359,449.146,295.359,449.861z"/>
	
		<path id="path3795-934-773-08-37" sodipodi:ry="2.6785715" sodipodi:rx="2.6785715" sodipodi:cy="913.79077" sodipodi:cx="173.03572" sodipodi:type="arc" fill="#FFFFFF" stroke="#F68E1F" d="
		M297.616,443.882c0,0.714-0.579,1.294-1.294,1.294s-1.294-0.58-1.294-1.294c0-0.715,0.58-1.294,1.294-1.294
		S297.616,443.167,297.616,443.882z"/>
	
		<path id="path3795-934-773-08-1" sodipodi:ry="2.6785715" sodipodi:rx="2.6785715" sodipodi:cy="913.79077" sodipodi:cx="173.03572" sodipodi:type="arc" fill="#FFFFFF" stroke="#F68E1F" d="
		M297.677,452.973c0,0.715-0.579,1.294-1.294,1.294s-1.294-0.58-1.294-1.294s0.58-1.294,1.294-1.294
		S297.677,452.258,297.677,452.973z"/>
	
		<path id="path3795-934-773-08-0" sodipodi:ry="2.6785715" sodipodi:rx="2.6785715" sodipodi:cy="913.79077" sodipodi:cx="173.03572" sodipodi:type="arc" fill="#FFFFFF" stroke="#F68E1F" d="
		M322.232,455.422c0,0.714-0.58,1.294-1.294,1.294s-1.294-0.58-1.294-1.294c0-0.715,0.579-1.294,1.294-1.294
		S322.232,454.707,322.232,455.422z"/>
	
		<path id="path3795-934-773-08-73" sodipodi:ry="2.6785715" sodipodi:rx="2.6785715" sodipodi:cy="913.79077" sodipodi:cx="173.03572" sodipodi:type="arc" fill="#FFFFFF" stroke="#F68E1F" d="
		M317.228,455.077c0,0.714-0.58,1.294-1.294,1.294s-1.294-0.58-1.294-1.294c0-0.715,0.58-1.294,1.294-1.294
		S317.228,454.362,317.228,455.077z"/>
	
		<path id="path3795-934-773-08-4" sodipodi:ry="2.6785715" sodipodi:rx="2.6785715" sodipodi:cy="913.79077" sodipodi:cx="173.03572" sodipodi:type="arc" fill="#FFFFFF" stroke="#F68E1F" d="
		M312.352,454.384c0,0.715-0.579,1.294-1.294,1.294s-1.294-0.579-1.294-1.294c0-0.714,0.58-1.294,1.294-1.294
		S312.352,453.67,312.352,454.384z"/>
	
		<path id="path3795-934-773-08-9" sodipodi:ry="2.6785715" sodipodi:rx="2.6785715" sodipodi:cy="913.79077" sodipodi:cx="173.03572" sodipodi:type="arc" fill="#FFFFFF" stroke="#F68E1F" d="
		M307.35,454.494c0,0.715-0.58,1.294-1.294,1.294s-1.294-0.579-1.294-1.294c0-0.714,0.58-1.294,1.294-1.294
		S307.35,453.779,307.35,454.494z"/>
	
		<path id="path3795-934-773-08-6" sodipodi:ry="2.6785715" sodipodi:rx="2.6785715" sodipodi:cy="913.79077" sodipodi:cx="173.03572" sodipodi:type="arc" fill="#FFFFFF" stroke="#F68E1F" d="
		M314.578,446.323c0,0.714-0.58,1.294-1.294,1.294s-1.294-0.58-1.294-1.294c0-0.715,0.58-1.294,1.294-1.294
		S314.578,445.607,314.578,446.323z"/>
	
		<path id="path3795-934-773-08-5" sodipodi:ry="2.6785715" sodipodi:rx="2.6785715" sodipodi:cy="913.79077" sodipodi:cx="173.03572" sodipodi:type="arc" fill="#FFFFFF" stroke="#F68E1F" d="
		M316.774,438.94c0,0.715-0.58,1.294-1.294,1.294s-1.294-0.579-1.294-1.294s0.579-1.294,1.294-1.294S316.774,438.225,316.774,438.94
		z"/>
	
		<path id="path3795-934-773-08-10" sodipodi:ry="2.6785715" sodipodi:rx="2.6785715" sodipodi:cy="913.79077" sodipodi:cx="173.03572" sodipodi:type="arc" fill="#FFFFFF" stroke="#F68E1F" d="
		M322.083,439.245c0,0.714-0.58,1.294-1.294,1.294s-1.294-0.58-1.294-1.294c0-0.715,0.579-1.294,1.294-1.294
		S322.083,438.53,322.083,439.245z"/>
	
		<path id="path3795-934-773-08-99" sodipodi:ry="2.6785715" sodipodi:rx="2.6785715" sodipodi:cy="913.79077" sodipodi:cx="173.03572" sodipodi:type="arc" fill="#FFFFFF" stroke="#F68E1F" d="
		M328.611,439.977c0,0.715-0.58,1.294-1.294,1.294s-1.294-0.58-1.294-1.294s0.579-1.294,1.294-1.294
		S328.611,439.262,328.611,439.977z"/>
	
		<path id="path3795-934-773-08-68" sodipodi:ry="2.6785715" sodipodi:rx="2.6785715" sodipodi:cy="913.79077" sodipodi:cx="173.03572" sodipodi:type="arc" fill="#FFFFFF" stroke="#F68E1F" d="
		M333.309,440.282c0,0.715-0.58,1.294-1.294,1.294c-0.715,0-1.294-0.579-1.294-1.294s0.58-1.294,1.294-1.294
		C332.729,438.988,333.309,439.567,333.309,440.282z"/>
	
		<path id="path3795-934-773-08-34" sodipodi:ry="2.6785715" sodipodi:rx="2.6785715" sodipodi:cy="913.79077" sodipodi:cx="173.03572" sodipodi:type="arc" fill="#FFFFFF" stroke="#F68E1F" d="
		M339.593,441.075c0,0.715-0.579,1.294-1.294,1.294s-1.294-0.579-1.294-1.294c0-0.715,0.58-1.294,1.294-1.294
		S339.593,440.36,339.593,441.075z"/>
	
		<path id="path3795-934-773-08-84" sodipodi:ry="2.6785715" sodipodi:rx="2.6785715" sodipodi:cy="913.79077" sodipodi:cx="173.03572" sodipodi:type="arc" fill="#FFFFFF" stroke="#F68E1F" d="
		M345.511,441.685c0,0.715-0.58,1.294-1.294,1.294s-1.294-0.58-1.294-1.294s0.579-1.294,1.294-1.294
		S345.511,440.971,345.511,441.685z"/>
	
		<path id="path3795-934-773-08-992" sodipodi:ry="2.6785715" sodipodi:rx="2.6785715" sodipodi:cy="913.79077" sodipodi:cx="173.03572" sodipodi:type="arc" fill="#FFFFFF" stroke="#F68E1F" d="
		M351.368,442.478c0,0.715-0.579,1.294-1.294,1.294s-1.294-0.58-1.294-1.294c0-0.714,0.58-1.294,1.294-1.294
		S351.368,441.764,351.368,442.478z"/>
	
		<path id="path3795-934-773-08-55" sodipodi:ry="2.6785715" sodipodi:rx="2.6785715" sodipodi:cy="913.79077" sodipodi:cx="173.03572" sodipodi:type="arc" fill="#FFFFFF" stroke="#F68E1F" d="
		M325.77,456.199c0,0.715-0.58,1.294-1.294,1.294s-1.294-0.579-1.294-1.294s0.579-1.294,1.294-1.294S325.77,455.484,325.77,456.199z
		"/>
	
		<path id="path3795-934-773-08-33" sodipodi:ry="2.6785715" sodipodi:rx="2.6785715" sodipodi:cy="913.79077" sodipodi:cx="173.03572" sodipodi:type="arc" fill="#FFFFFF" stroke="#F68E1F" d="
		M303.995,445.184c0,1.034-0.838,1.873-1.873,1.873c-1.035,0-1.873-0.838-1.873-1.873c0-1.035,0.838-1.873,1.873-1.873
		C303.156,443.311,303.995,444.149,303.995,445.184z"/>
	
		<path id="path3795-934-773-08-374" sodipodi:ry="2.6785715" sodipodi:rx="2.6785715" sodipodi:cy="913.79077" sodipodi:cx="173.03572" sodipodi:type="arc" fill="#FFFFFF" stroke="#F68E1F" d="
		M330.774,456.889c0,0.715-0.579,1.294-1.294,1.294c-0.715,0-1.294-0.579-1.294-1.294c0-0.714,0.579-1.294,1.294-1.294
		C330.195,455.595,330.774,456.174,330.774,456.889z"/>
	
		<path id="path3795-934-773-08-38" sodipodi:ry="2.6785715" sodipodi:rx="2.6785715" sodipodi:cy="913.79077" sodipodi:cx="173.03572" sodipodi:type="arc" fill="#FFFFFF" stroke="#F68E1F" d="
		M334.916,458.183c0,0.715-0.58,1.294-1.294,1.294c-0.715,0-1.294-0.58-1.294-1.294c0-0.714,0.58-1.294,1.294-1.294
		C334.336,456.889,334.916,457.469,334.916,458.183z"/>
	
		<path id="path3795-934-773-08-08" sodipodi:ry="2.6785715" sodipodi:rx="2.6785715" sodipodi:cy="913.79077" sodipodi:cx="173.03572" sodipodi:type="arc" fill="#FFFFFF" stroke="#F68E1F" d="
		M334.14,462.843c0,0.714-0.58,1.294-1.294,1.294s-1.294-0.58-1.294-1.294c0-0.715,0.58-1.294,1.294-1.294
		S334.14,462.128,334.14,462.843z"/>
	
		<path id="path3795-934-773-08-80" sodipodi:ry="2.6785715" sodipodi:rx="2.6785715" sodipodi:cy="913.79077" sodipodi:cx="173.03572" sodipodi:type="arc" fill="#FFFFFF" stroke="#F68E1F" d="
		M339.23,464.999c0,0.715-0.58,1.294-1.294,1.294s-1.294-0.58-1.294-1.294c0-0.714,0.579-1.294,1.294-1.294
		S339.23,464.285,339.23,464.999z"/>
	
		<path id="path3795-934-773-08-681" sodipodi:ry="2.6785715" sodipodi:rx="2.6785715" sodipodi:cy="913.79077" sodipodi:cx="173.03572" sodipodi:type="arc" fill="#FFFFFF" stroke="#F68E1F" d="
		M346.392,464.223c0,0.715-0.58,1.294-1.294,1.294s-1.294-0.58-1.294-1.294s0.579-1.294,1.294-1.294
		S346.392,463.508,346.392,464.223z"/>
	
		<path id="path3795-934-773-08-98" sodipodi:ry="2.6785715" sodipodi:rx="2.6785715" sodipodi:cy="913.79077" sodipodi:cx="173.03572" sodipodi:type="arc" fill="#FFFFFF" stroke="#F68E1F" d="
		M353.295,464.913c0,0.715-0.58,1.294-1.294,1.294c-0.715,0-1.295-0.579-1.295-1.294s0.579-1.294,1.295-1.294
		C352.715,463.619,353.295,464.199,353.295,464.913z"/>
	
		<path id="path3795-934-773-08-97" sodipodi:ry="2.6785715" sodipodi:rx="2.6785715" sodipodi:cy="913.79077" sodipodi:cx="173.03572" sodipodi:type="arc" fill="#FFFFFF" stroke="#F68E1F" d="
		M357.264,458.96c0,0.714-0.579,1.294-1.294,1.294s-1.294-0.58-1.294-1.294c0-0.715,0.579-1.294,1.294-1.294
		S357.264,458.245,357.264,458.96z"/>
	
		<path id="path3795-934-773-08-2" sodipodi:ry="2.6785715" sodipodi:rx="2.6785715" sodipodi:cy="913.79077" sodipodi:cx="173.03572" sodipodi:type="arc" fill="#FFFFFF" stroke="#F68E1F" d="
		M350.188,458.96c0,0.714-0.579,1.294-1.294,1.294s-1.294-0.58-1.294-1.294c0-0.715,0.58-1.294,1.294-1.294
		S350.188,458.245,350.188,458.96z"/>
	
		<path id="path3795-934-773-08-28" sodipodi:ry="2.6785715" sodipodi:rx="2.6785715" sodipodi:cy="913.79077" sodipodi:cx="173.03572" sodipodi:type="arc" fill="#FFFFFF" stroke="#F68E1F" d="
		M352.467,446.994c0,0.714-0.58,1.294-1.295,1.294s-1.294-0.58-1.294-1.294c0-0.715,0.579-1.294,1.294-1.294
		S352.467,446.279,352.467,446.994z"/>
	
		<path id="path3795-934-773-08-289" sodipodi:ry="2.6785715" sodipodi:rx="2.6785715" sodipodi:cy="913.79077" sodipodi:cx="173.03572" sodipodi:type="arc" fill="#FFFFFF" stroke="#F68E1F" d="
		M354.066,453.461c0,1.396-1.132,2.528-2.528,2.528c-1.396,0-2.528-1.132-2.528-2.528c0-1.396,1.132-2.528,2.528-2.528
		C352.935,450.932,354.066,452.064,354.066,453.461z"/>
	
		<path id="path3795-934-773-08-07" sodipodi:ry="2.6785715" sodipodi:rx="2.6785715" sodipodi:cy="913.79077" sodipodi:cx="173.03572" sodipodi:type="arc" fill="#FFFFFF" stroke="#F68E1F" d="
		M412.433,430.313c0,1.638-1.328,2.966-2.967,2.966s-2.967-1.328-2.967-2.966c0-1.639,1.328-2.967,2.967-2.967
		S412.433,428.675,412.433,430.313z"/>
	
		<path id="path3795-934-773-08-81" sodipodi:ry="2.6785715" sodipodi:rx="2.6785715" sodipodi:cy="913.79077" sodipodi:cx="173.03572" sodipodi:type="arc" fill="#FFFFFF" stroke="#F68E1F" d="
		M412.433,476.907c0,1.639-1.328,2.967-2.967,2.967s-2.967-1.328-2.967-2.967c0-1.638,1.328-2.966,2.967-2.966
		S412.433,475.268,412.433,476.907z"/>
	
		<path id="path3795-934-773-20-7" sodipodi:ry="2.6785715" sodipodi:rx="2.6785715" sodipodi:cy="913.79077" sodipodi:cx="173.03572" sodipodi:type="arc" fill="#FFFFFF" stroke="#72A32D" d="
		M303.404,445.161c0,0.715-0.58,1.294-1.294,1.294c-0.715,0-1.294-0.58-1.294-1.294s0.58-1.294,1.294-1.294
		C302.825,443.867,303.404,444.447,303.404,445.161z"/>
	
		<path id="path3795-934-773-08-33-4" sodipodi:ry="2.6785715" sodipodi:rx="2.6785715" sodipodi:cy="913.79077" sodipodi:cx="173.03572" sodipodi:type="arc" fill="#FFFFFF" stroke="#F68E1F" d="
		M302.59,453.288c0,1.034-0.839,1.873-1.873,1.873s-1.873-0.838-1.873-1.873s0.839-1.873,1.873-1.873S302.59,452.253,302.59,453.288
		z"/>
	
		<path id="path3795-934-773-20-7-0" sodipodi:ry="2.6785715" sodipodi:rx="2.6785715" sodipodi:cy="913.79077" sodipodi:cx="173.03572" sodipodi:type="arc" fill="#FFFFFF" stroke="#72A32D" d="
		M302,453.266c0,0.715-0.58,1.294-1.294,1.294s-1.294-0.58-1.294-1.294s0.58-1.294,1.294-1.294S302,452.551,302,453.266z"/>
	
		<path id="path3795-934-773-08-73-17" sodipodi:ry="2.6785715" sodipodi:rx="2.6785715" sodipodi:cy="913.79077" sodipodi:cx="173.03572" sodipodi:type="arc" fill="#FFFFFF" stroke="#F68E1F" d="
		M325.258,461.95c0,0.715-0.58,1.294-1.294,1.294s-1.294-0.579-1.294-1.294c0-0.714,0.579-1.294,1.294-1.294
		S325.258,461.235,325.258,461.95z"/>
</g>
<g id="layer13" transform="translate(68.625,177.7775)" inkscape:label="nombres4" inkscape:groupmode="layer" sodipodi:insensitive="true">
	<path id="rect4815-5-9-29-9" fill="#FFFFFF" stroke="#F69124" stroke-width="1.3806" d="M425.146,438.297h15.812
		c1.429,0,2.588,1.159,2.588,2.588v21.791c0,1.429-1.159,2.588-2.588,2.588h-15.812c-1.43,0-2.589-1.159-2.589-2.588v-21.791
		C422.557,439.456,423.716,438.297,425.146,438.297z"/>
	<path id="rect4817-8-2-5-1" fill="#F69124" stroke="#F69124" stroke-width="1.1664" d="M424.424,438.419h17.135
		c1.029,0,1.864,0.835,1.864,1.864v1.545c0,1.029-0.835,1.864-1.864,1.864h-17.135c-1.03,0-1.865-0.834-1.865-1.864v-1.545
		C422.559,439.254,423.394,438.419,424.424,438.419z"/>
	<text transform="matrix(1 0 0 1 426.7676 459.286)" fill="#F68E1F" font-family="'Verdana'" font-size="19.3277">4</text>
	<text transform="matrix(1 0 0 1 426.6445 442.6903)" fill="#FFFFFF" font-family="'Verdana'" font-size="4.8319">Linea</text>
	<path id="rect4815-5-9-29-9-3" fill="#FFFFFF" stroke="#F69124" stroke-width="1.3806" d="M241.244,405.181h15.812
		c1.429,0,2.588,1.159,2.588,2.589v21.79c0,1.43-1.159,2.588-2.588,2.588h-15.812c-1.429,0-2.588-1.159-2.588-2.588v-21.79
		C238.655,406.34,239.814,405.181,241.244,405.181z"/>
	<path id="rect4817-8-2-5-1-2" fill="#F69124" stroke="#F69124" stroke-width="1.1664" d="M240.522,405.303h17.135
		c1.03,0,1.864,0.834,1.864,1.864v1.544c0,1.029-0.834,1.864-1.864,1.864h-17.135c-1.03,0-1.864-0.835-1.864-1.864v-1.544
		C238.658,406.138,239.492,405.303,240.522,405.303z"/>
	<text transform="matrix(1 0 0 1 242.8657 426.1703)" fill="#F68E1F" font-family="'Verdana'" font-size="19.3277">4</text>
	<text transform="matrix(1 0 0 1 242.7437 409.5746)" fill="#FFFFFF" font-family="'Verdana'" font-size="4.8319">Linea</text>
	<text transform="matrix(1 0 0 1 413.7666 427.6561)" font-family="'Verdana'" font-size="4.9">Aeropuerto T1</text>
	<text transform="matrix(1 0 0 1 411.4688 472.0267)" font-family="'Verdana'" font-size="4.9">Aeropuerto T2</text>
	<text transform="matrix(1 0 0 1 354.5469 455.056)" font-family="'Verdana'" font-size="2.8">San Lázaro</text>
	<text transform="matrix(1 0 0 1 353.3984 447.5009)" font-family="'Verdana'" font-size="2.8">Archivo General de la</text>
	<text transform="matrix(1 0 0 1 353.3984 451.0009)" font-family="'Verdana'" font-size="2.8">                   Nación </text>
	<text transform="matrix(1 0 0 1 353.3984 442.0013)" font-family="'Verdana'" font-size="2.8">Mixcalco</text>
	<text transform="matrix(0.6641 -0.7476 0.7476 0.6641 347.7368 441.2845)" font-family="'Verdana'" font-size="2.8">Ferrocarril de Cintura</text>
	<text transform="matrix(0.6757 -0.7372 0.7372 0.6757 341.2041 439.9735)" font-family="'Verdana'" font-size="2.8">Morelos</text>
	<text transform="matrix(0.7165 -0.6976 0.6976 0.7165 334.8384 440.1024)" font-family="'Verdana'" font-size="2.8">Teatro del Pueblo</text>
	<text transform="matrix(0.7363 -0.6767 0.6767 0.7363 328.7778 438.5555)" font-family="'Verdana'" font-size="2.8">República de Argentina</text>
	<text transform="matrix(0.7034 -0.7108 0.7108 0.7034 324.3711 438.2377)" font-family="'Verdana'" font-size="2.8">República de Chile</text>
	<text transform="matrix(0.7243 -0.6895 0.6895 0.7243 317.7808 438.6556)" font-family="'Verdana'" font-size="2.8">Teatro Blanquita</text>
	<text transform="matrix(1 0 0 1 315.3022 447.6317)" font-family="'Verdana'" font-size="2.8">Bellas Artes</text>
	<text transform="matrix(1 0 0 1 303.5562 443.2401)" font-family="'Verdana'" font-size="2.8992">Hidalgo</text>
	<text transform="matrix(1 0 0 1 358.1484 460.6259)" font-family="'Verdana'" font-size="2.8">Moctezuma</text>
	<text transform="matrix(1 0 0 1 353.2109 467.5009)" font-family="'Verdana'" font-size="2.8">Hospital Balbuena</text>
	<text transform="matrix(0.9829 0.1844 -0.1844 0.9829 327.8843 453.2894)" font-family="'Verdana'" font-size="2.8">Eduardo Molina</text>
	<text transform="matrix(0.9827 0.1854 -0.1854 0.9827 344.5635 468.5389)" font-family="'Verdana'" font-size="2.8">Cecilio Robelo</text>
	<text transform="matrix(0.9804 0.1971 -0.1971 0.9804 337.4785 469.5638)" font-family="'Verdana'" font-size="2.8">Mercado Sonora</text>
</g>
<g id="layer14" transform="translate(0.2,0.19625)" inkscape:label="expan" inkscape:groupmode="layer">
	<path id="rect4380" fill="none" stroke="#3E4D52" stroke-width="2.4773" d="M384.566,802.038h174.945
		c1.465,0,2.652,1.188,2.652,2.651v101.913c0,1.465-1.188,2.651-2.652,2.651H384.566c-1.464,0-2.652-1.187-2.652-2.651V804.69
		C381.914,803.226,383.101,802.038,384.566,802.038z"/>
	
		<path id="path3782-7" sodipodi:nodetypes="csscsscscsccssccc" inkscape:connector-curvature="0" fill="none" stroke="#F68E1F" stroke-width="9.373" d="
		M442.703,810.36c0,0-0.23,12.117-1.792,14.461c-1.563,2.343-1.953,9.959-3.71,11.521c-1.758,1.563-2.93,13.083-4.101,14.255
		c-1.172,1.172-3.906,9.959-2.539,9.959s6.834-2.538,8.006-1.172c1.172,1.367-1.366,6.444,4.491,7.421
		c5.858,0.976,8.201-0.781,9.178,0c0.977,0.78,10.35,2.929,10.35,2.929s13.083-1.758,14.06-0.391s11.911,1.367,11.911,1.367
		s10.154,0.391,10.936,1.367c0.781,0.976,6.834,1.171,8.592,1.171s9.959,1.563,10.935,2.344c0.977,0.78,9.959,2.343,9.568,3.515
		c-0.39,1.172-2.733,7.811-1.757,10.154c0.977,2.343,8.201,5.272,10.153,4.687"/>
	
		<path id="path3784-4" sodipodi:nodetypes="cccssccc" inkscape:connector-curvature="0" fill="none" stroke="#F68E1F" stroke-width="9.373" d="
		M435.109,844.465l7.871,0.828l14.359,2.624c0,0,11.322,3.176,12.565,3.176c1.242,0,11.598,1.381,12.427,0
		c0.828-1.381,4.419-15.051,4.694-16.293c0.276-1.243,12.289,0.552,12.289,0.552l13.67,1.381"/>
	
		<path id="path3795-934-773-08-09" sodipodi:ry="2.6785715" sodipodi:rx="2.6785715" sodipodi:cy="913.79077" sodipodi:cx="173.03572" sodipodi:type="arc" fill="#FFFFFF" stroke="#F68E1F" d="
		M443.84,824.431c0,1.617-1.312,2.929-2.929,2.929c-1.618,0-2.93-1.312-2.93-2.929c0-1.618,1.312-2.93,2.93-2.93
		C442.529,821.501,443.84,822.813,443.84,824.431L443.84,824.431z"/>
	
		<path id="path3795-934-773-08-7-4" sodipodi:ry="2.6785715" sodipodi:rx="2.6785715" sodipodi:cy="913.79077" sodipodi:cx="173.03572" sodipodi:type="arc" fill="#FFFFFF" stroke="#F68E1F" d="
		M440.13,835.658c0,1.618-1.312,2.93-2.929,2.93c-1.618,0-2.93-1.312-2.93-2.93c0-1.617,1.312-2.929,2.93-2.929
		C438.819,832.73,440.13,834.041,440.13,835.658L440.13,835.658z"/>
	
		<path id="path3795-934-773-08-78-8" sodipodi:ry="2.6785715" sodipodi:rx="2.6785715" sodipodi:cy="913.79077" sodipodi:cx="173.03572" sodipodi:type="arc" fill="#FFFFFF" stroke="#F68E1F" d="
		M436.322,849.034c0,1.618-1.312,2.93-2.929,2.93c-1.618,0-2.93-1.312-2.93-2.93c0-1.617,1.312-2.929,2.93-2.929
		C435.011,846.106,436.322,847.417,436.322,849.034L436.322,849.034z"/>
	
		<path id="path3795-934-773-08-3-8" sodipodi:ry="2.6785715" sodipodi:rx="2.6785715" sodipodi:cy="913.79077" sodipodi:cx="173.03572" sodipodi:type="arc" fill="#FFFFFF" stroke="#F68E1F" d="
		M433.343,859.791c0,1.618-1.312,2.93-2.929,2.93c-1.618,0-2.93-1.312-2.93-2.93c0-1.617,1.312-2.929,2.93-2.929
		C432.031,856.862,433.343,858.174,433.343,859.791L433.343,859.791z"/>
	
		<path id="path3795-934-773-08-8-2" sodipodi:ry="2.6785715" sodipodi:rx="2.6785715" sodipodi:cy="913.79077" sodipodi:cx="173.03572" sodipodi:type="arc" fill="#FFFFFF" stroke="#F68E1F" d="
		M441.214,859.102c0,1.617-1.312,2.929-2.93,2.929c-1.617,0-2.929-1.312-2.929-2.929c0-1.618,1.312-2.93,2.929-2.93
		C439.903,856.172,441.214,857.483,441.214,859.102L441.214,859.102z"/>
	
		<path id="path3795-934-773-08-37-4" sodipodi:ry="2.6785715" sodipodi:rx="2.6785715" sodipodi:cy="913.79077" sodipodi:cx="173.03572" sodipodi:type="arc" fill="#FFFFFF" stroke="#F68E1F" d="
		M446.322,845.569c0,1.618-1.312,2.929-2.929,2.929c-1.618,0-2.93-1.311-2.93-2.929c0-1.617,1.312-2.929,2.93-2.929
		C445.011,842.641,446.322,843.952,446.322,845.569L446.322,845.569z"/>
	
		<path id="path3795-934-773-08-1-5" sodipodi:ry="2.6785715" sodipodi:rx="2.6785715" sodipodi:cy="913.79077" sodipodi:cx="173.03572" sodipodi:type="arc" fill="#FFFFFF" stroke="#F68E1F" d="
		M446.46,866.143c0,1.618-1.312,2.93-2.929,2.93s-2.929-1.312-2.929-2.93c0-1.617,1.312-2.929,2.929-2.929
		S446.46,864.525,446.46,866.143L446.46,866.143z"/>
	
		<path id="path3795-934-773-08-0-5" sodipodi:ry="2.6785715" sodipodi:rx="2.6785715" sodipodi:cy="913.79077" sodipodi:cx="173.03572" sodipodi:type="arc" fill="#FFFFFF" stroke="#F68E1F" d="
		M502.03,871.687c0,1.617-1.312,2.929-2.929,2.929c-1.618,0-2.93-1.312-2.93-2.929c0-1.618,1.312-2.93,2.93-2.93
		C500.719,868.757,502.03,870.068,502.03,871.687L502.03,871.687z"/>
	
		<path id="path3795-934-773-08-73-1" sodipodi:ry="2.6785715" sodipodi:rx="2.6785715" sodipodi:cy="913.79077" sodipodi:cx="173.03572" sodipodi:type="arc" fill="#FFFFFF" stroke="#F68E1F" d="
		M490.705,870.904c0,1.618-1.312,2.93-2.93,2.93c-1.617,0-2.929-1.312-2.929-2.93c0-1.617,1.312-2.929,2.929-2.929
		C489.394,867.976,490.705,869.287,490.705,870.904L490.705,870.904z"/>
	
		<path id="path3795-934-773-08-4-7" sodipodi:ry="2.6785715" sodipodi:rx="2.6785715" sodipodi:cy="913.79077" sodipodi:cx="173.03572" sodipodi:type="arc" fill="#FFFFFF" stroke="#F68E1F" d="
		M479.67,869.338c0,1.618-1.312,2.93-2.929,2.93c-1.618,0-2.93-1.312-2.93-2.93c0-1.617,1.312-2.929,2.93-2.929
		C478.359,866.409,479.67,867.721,479.67,869.338L479.67,869.338z"/>
	
		<path id="path3795-934-773-08-9-1" sodipodi:ry="2.6785715" sodipodi:rx="2.6785715" sodipodi:cy="913.79077" sodipodi:cx="173.03572" sodipodi:type="arc" fill="#FFFFFF" stroke="#F68E1F" d="
		M468.349,869.586c0,1.617-1.312,2.929-2.929,2.929c-1.618,0-2.93-1.312-2.93-2.929c0-1.618,1.312-2.93,2.93-2.93
		C467.037,866.656,468.349,867.968,468.349,869.586L468.349,869.586z"/>
	
		<path id="path3795-934-773-08-6-1" sodipodi:ry="2.6785715" sodipodi:rx="2.6785715" sodipodi:cy="913.79077" sodipodi:cx="173.03572" sodipodi:type="arc" fill="#FFFFFF" stroke="#F68E1F" d="
		M484.708,851.093c0,1.617-1.312,2.929-2.93,2.929c-1.617,0-2.929-1.312-2.929-2.929c0-1.618,1.312-2.93,2.929-2.93
		C483.397,848.163,484.708,849.475,484.708,851.093L484.708,851.093z"/>
	
		<path id="path3795-934-773-08-5-5" sodipodi:ry="2.6785715" sodipodi:rx="2.6785715" sodipodi:cy="913.79077" sodipodi:cx="173.03572" sodipodi:type="arc" fill="#FFFFFF" stroke="#F68E1F" d="
		M489.679,834.385c0,1.618-1.312,2.93-2.929,2.93c-1.618,0-2.93-1.312-2.93-2.93c0-1.617,1.312-2.929,2.93-2.929
		C488.367,831.456,489.679,832.768,489.679,834.385L489.679,834.385z"/>
	
		<path id="path3795-934-773-08-33-7" sodipodi:ry="2.6785715" sodipodi:rx="2.6785715" sodipodi:cy="913.79077" sodipodi:cx="173.03572" sodipodi:type="arc" fill="#FFFFFF" stroke="#F68E1F" d="
		M460.757,848.516c0,2.341-1.897,4.238-4.238,4.238s-4.238-1.897-4.238-4.238s1.897-4.238,4.238-4.238
		S460.757,846.175,460.757,848.516L460.757,848.516z"/>
	
		<path id="path3795-934-773-08-374-6" sodipodi:ry="2.6785715" sodipodi:rx="2.6785715" sodipodi:cy="913.79077" sodipodi:cx="173.03572" sodipodi:type="arc" fill="#FFFFFF" stroke="#F68E1F" d="
		M521.362,875.006c0,1.617-1.312,2.929-2.929,2.929c-1.618,0-2.93-1.312-2.93-2.929c0-1.618,1.312-2.93,2.93-2.93
		C520.051,872.076,521.362,873.388,521.362,875.006L521.362,875.006z"/>
	
		<path id="path3795-934-773-08-38-1" sodipodi:ry="2.6785715" sodipodi:rx="2.6785715" sodipodi:cy="913.79077" sodipodi:cx="173.03572" sodipodi:type="arc" fill="#FFFFFF" stroke="#F68E1F" d="
		M530.736,877.935c0,1.617-1.312,2.929-2.929,2.929c-1.618,0-2.93-1.312-2.93-2.929s1.312-2.929,2.93-2.929
		C529.424,875.006,530.736,876.317,530.736,877.935L530.736,877.935z"/>
	
		<path id="path3795-934-773-20-7-2" sodipodi:ry="2.6785715" sodipodi:rx="2.6785715" sodipodi:cy="913.79077" sodipodi:cx="173.03572" sodipodi:type="arc" fill="#FFFFFF" stroke="#72A32D" d="
		M459.421,848.466c0,1.617-1.312,2.929-2.929,2.929c-1.618,0-2.93-1.312-2.93-2.929c0-1.618,1.312-2.93,2.93-2.93
		C458.11,845.536,459.421,846.848,459.421,848.466L459.421,848.466z"/>
	
		<path id="path3795-934-773-08-33-4-3" sodipodi:ry="2.6785715" sodipodi:rx="2.6785715" sodipodi:cy="913.79077" sodipodi:cx="173.03572" sodipodi:type="arc" fill="#FFFFFF" stroke="#F68E1F" d="
		M457.578,866.857c0,2.341-1.897,4.238-4.238,4.238s-4.238-1.897-4.238-4.238s1.897-4.239,4.238-4.239
		S457.578,864.516,457.578,866.857L457.578,866.857z"/>
	
		<path id="path3795-934-773-20-7-0-2" sodipodi:ry="2.6785715" sodipodi:rx="2.6785715" sodipodi:cy="913.79077" sodipodi:cx="173.03572" sodipodi:type="arc" fill="#FFFFFF" stroke="#72A32D" d="
		M456.242,866.806c0,1.617-1.312,2.929-2.929,2.929c-1.618,0-2.93-1.312-2.93-2.929s1.312-2.929,2.93-2.929
		C454.931,863.877,456.242,865.189,456.242,866.806L456.242,866.806z"/>
	<path id="path4058-4" inkscape:connector-curvature="0" fill="none" stroke="#F58E20" stroke-width="7.0884" d="M506.953,872.633
		l-2.924,14.619l22.973,2.089"/>
	
		<path id="path3795-934-773-08-73-17-0" sodipodi:ry="2.6785715" sodipodi:rx="2.6785715" sodipodi:cy="913.79077" sodipodi:cx="173.03572" sodipodi:type="arc" fill="#FFFFFF" stroke="#F68E1F" d="
		M507.671,886.488c0,1.689-1.369,3.059-3.059,3.059c-1.688,0-3.058-1.369-3.058-3.059c0-1.688,1.369-3.058,3.058-3.058
		C506.302,883.431,507.671,884.8,507.671,886.488L507.671,886.488z"/>
	
		<path id="path3795-934-773-08-55-2" sodipodi:ry="2.6785715" sodipodi:rx="2.6785715" sodipodi:cy="913.79077" sodipodi:cx="173.03572" sodipodi:type="arc" fill="#FFFFFF" stroke="#F68E1F" d="
		M510.363,872.992c0,1.618-1.312,2.93-2.929,2.93c-1.618,0-2.93-1.312-2.93-2.93c0-1.617,1.312-2.929,2.93-2.929
		C509.052,870.064,510.363,871.375,510.363,872.992L510.363,872.992z"/>
	
		<path id="path3795-934-773-08-08-4" sodipodi:ry="2.6785715" sodipodi:rx="2.6785715" sodipodi:cy="913.79077" sodipodi:cx="173.03572" sodipodi:type="arc" fill="#FFFFFF" stroke="#F68E1F" d="
		M528.365,888.058c0,1.617-1.312,2.929-2.93,2.929c-1.617,0-2.929-1.312-2.929-2.929c0-1.618,1.312-2.93,2.929-2.93
		C527.054,885.128,528.365,886.44,528.365,888.058L528.365,888.058z"/>
</g>
<g id="layer15" transform="translate(0.2,0.19625)" inkscape:label="nombresexpan" inkscape:groupmode="layer" sodipodi:insensitive="true">
	<text transform="matrix(0.9785 -0.2062 0.2062 0.9785 459.5471 844.3585)" font-family="'Verdana'" font-size="4.8729">Hidalgo</text>
	<text transform="matrix(0.9916 -0.129 0.129 0.9916 458.593 864.3633)" font-family="'Verdana'" font-size="4.8729">Juárez</text>
	<text transform="matrix(1 0 0 1 485.6105 851.1006)" font-family="'Verdana'" font-size="4.2638">Bellas Artes</text>
	<text transform="matrix(1 0 0 1 493.2424 830.8106)" font-family="'Verdana'" font-size="4.2638">Teatro Blanquita</text>
	<text transform="matrix(0.9262 -0.377 0.377 0.9262 444.5119 842.7491)" font-family="'Verdana'" font-size="4.2638">Museo de San Carlos</text>
	<text transform="matrix(0.9562 -0.2929 0.2929 0.9562 400.7385 835.8428)" font-family="'Verdana'" font-size="4.2638">Del. Cuauhtémoc</text>
	<text transform="matrix(0.9168 -0.3993 0.3993 0.9168 417.5178 881.9434)" font-family="'Verdana'" font-size="4.2638">Vocacional 5</text>
	<text transform="matrix(0.9129 -0.4081 0.4081 0.9129 409.4269 876.1954)" font-family="'Verdana'" font-size="4.2638">Expo Reforma</text>
	<text transform="matrix(0.9283 -0.3718 0.3718 0.9283 391.7936 874.2413)" font-family="'Verdana'" font-size="4.2638">Glorieta de Colón</text>
	<text transform="matrix(0.9117 -0.4109 0.4109 0.9117 387.6462 865.9366)" font-family="'Verdana'" font-size="4.2638">Plaza de la República</text>
	<text transform="matrix(0.9399 -0.3416 0.3416 0.9399 393.4172 850.3428)" font-family="'Verdana'" font-size="4.2638">Puente de Alvarado</text>
	<text transform="matrix(0.8911 -0.4537 0.4537 0.8911 433.6555 888.7696)" font-family="'Verdana'" font-size="4.2638">Plaza San Juan</text>
	<text transform="matrix(0.859 -0.512 0.512 0.859 455.8039 885.7637)" font-family="'Verdana'" font-size="4.2638">Eje central</text>
	<text transform="matrix(0.854 -0.5202 0.5202 0.854 490.6154 868.5167)" font-family="'Verdana'" font-size="4.2638">El Salvador</text>
	<text transform="matrix(0.8734 -0.4871 0.4871 0.8734 468.0558 892.1612)" font-family="'Verdana'" font-size="4.2638">Isabéla Católica</text>
	<text transform="matrix(1 0 0 1 485.8508 893.9268)" font-family="'Verdana'" font-size="4.2638">Pino Suarez</text>
	<text transform="matrix(0.9258 -0.378 0.378 0.9258 509.4963 869.0303)" font-family="'Verdana'" font-size="4.2638">Museo de la Ciudad</text>
	<text transform="matrix(0.9249 -0.3801 0.3801 0.9249 520.9504 871.9649)" font-family="'Verdana'" font-size="4.2638">Las cruces</text>
	<text transform="matrix(0.9128 -0.4084 0.4084 0.9128 532.4709 877.96)" font-family="'Verdana'" font-size="4.2638">Circunvalación</text>
	<text transform="matrix(1 0 0 1 511.2316 898.6964)" font-family="'Verdana'" font-size="4.2638">La Merced</text>
</g>
</svg>
