<?xml version="1.0" encoding="utf-8"?>
<!-- Generator: Adobe Illustrator 16.0.0, SVG Export Plug-In . SVG Version: 6.00 Build 0)  -->
<!DOCTYPE svg PUBLIC "-//W3C//DTD SVG 1.1//EN" "http://www.w3.org/Graphics/SVG/1.1/DTD/svg11.dtd">
<svg version="1.1"
	 id="svg2" sodipodi:docname="TL.svg" inkscape:version="0.48.2 r9819" xmlns:dc="http://purl.org/dc/elements/1.1/" xmlns:cc="http://creativecommons.org/ns#" xmlns:rdf="http://www.w3.org/1999/02/22-rdf-syntax-ns#" xmlns:svg="http://www.w3.org/2000/svg" xmlns:sodipodi="http://sodipodi.sourceforge.net/DTD/sodipodi-0.dtd" xmlns:inkscape="http://www.inkscape.org/namespaces/inkscape"
	 xmlns="http://www.w3.org/2000/svg" xmlns:xlink="http://www.w3.org/1999/xlink" x="0px" y="0px" width="229.971px"
	 height="296.361px" viewBox="0 0 229.971 296.361" enable-background="new 0 0 229.971 296.361" xml:space="preserve"  >
<g id="zoom" transform="scale(2)"> 
<g id="layer2" transform="translate(-8.6150084,-68.09465)" inkscape:groupmode="layer" inkscape:label="linea">
	
		<path id="path2997" sodipodi:nodetypes="cccscscccccccccccccccc" inkscape:connector-curvature="0" fill="none" stroke="#0472B8" stroke-width="2" d="
		M71.428,75.357L56.072,75l17.857,63.571c0,0,4.286,8.572,1.071,17.143c-3.214,8.571-11.071,32.857-11.071,32.857
		s-3.214,7.5-6.786,11.786c-3.571,4.286-11.071,15.357-11.071,15.357L35.714,225c-1.547,1.19-1.905,3.571-1.071,7.143
		c0.059,4.165-0.132,7.832,0.357,12.857c-0.225,2.482,0.225,4.065,1.429,4.643c11.091,11.44,22.752,22.717,37.143,33.215
		c0.595,1.428,2.857,2.381,6.786,2.857c6.573,1.221,9.583,3.451,11.964,6.07c1.378,1.197,2.615,5.508,4.464,10l5.357,15.357
		c0.922,4.646,2.412,7.019,4.286,7.857l12.5,7.143l5,2.857l35,17.5c2.624,2.725,5.862,3.604,8.929,5l10,1.785"/>
</g>
<g id="layer3" transform="translate(-8.6150084,-68.09465)" inkscape:groupmode="layer" inkscape:label="nodos">
	
		<path id="path3768" data-estacion="las torres" sodipodi:ry="2.3214285" sodipodi:rx="2.3214285" sodipodi:cy="81.071426" sodipodi:cx="57.5" sodipodi:type="arc" fill="#FFFFFF" stroke="#0472B8" d="
		M60.357,81.071c0,1.282-1.04,2.322-2.321,2.322c-1.282,0-2.322-1.04-2.322-2.322c0-1.282,1.04-2.321,2.322-2.321
		C59.318,78.75,60.357,79.789,60.357,81.071z"/>
	
		<path id="path3768-1" data-estacion="ciudad jardín" sodipodi:ry="2.3214285" sodipodi:rx="2.3214285" sodipodi:cy="81.071426" sodipodi:cx="57.5" sodipodi:type="arc" fill="#FFFFFF" stroke="#0472B8" d="
		M65.536,100.536c0,1.282-1.04,2.322-2.322,2.322c-1.282,0-2.321-1.04-2.321-2.322c0-1.282,1.04-2.321,2.321-2.321
		C64.496,98.214,65.536,99.254,65.536,100.536z"/>
	
		<path id="path3768-7" data-estacion="la virgen" sodipodi:ry="2.3214285" sodipodi:rx="2.3214285" sodipodi:cy="81.071426" sodipodi:cx="57.5" sodipodi:type="arc" fill="#FFFFFF" stroke="#0472B8" d="
		M69.822,112.857c0,1.282-1.04,2.321-2.322,2.321c-1.282,0-2.321-1.04-2.321-2.321c0-1.282,1.04-2.322,2.321-2.322
		C68.782,110.536,69.822,111.575,69.822,112.857z"/>
	
		<path id="path3768-4" data-estacion="xotepingo" sodipodi:ry="2.3214285" sodipodi:rx="2.3214285" sodipodi:cy="81.071426" sodipodi:cx="57.5" sodipodi:type="arc" fill="#FFFFFF" stroke="#0472B8" d="
		M73.214,128.036c0,1.282-1.039,2.322-2.321,2.322s-2.321-1.04-2.321-2.322c0-1.282,1.039-2.321,2.321-2.321
		S73.214,126.754,73.214,128.036z"/>
	
		<path id="path3768-0" data-estacion="nezahualpilli" sodipodi:ry="2.3214285" sodipodi:rx="2.3214285" sodipodi:cy="81.071426" sodipodi:cx="57.5" sodipodi:type="arc" fill="#FFFFFF" stroke="#0472B8" d="
		M77.678,141.071c0,1.282-1.039,2.322-2.321,2.322s-2.321-1.04-2.321-2.322c0-1.282,1.039-2.321,2.321-2.321
		S77.678,139.789,77.678,141.071z"/>
	
		<path id="path3768-9" data-estacion="registro federal" sodipodi:ry="2.3214285" sodipodi:rx="2.3214285" sodipodi:cy="81.071426" sodipodi:cx="57.5" sodipodi:type="arc" fill="#FFFFFF" stroke="#0472B8" d="
		M75.178,160.179c0,1.282-1.039,2.321-2.321,2.321s-2.321-1.039-2.321-2.321s1.039-2.321,2.321-2.321S75.178,158.896,75.178,160.179
		z"/>
	
		<path id="path3768-48" data-estacion="textitlán" sodipodi:ry="2.3214285" sodipodi:rx="2.3214285" sodipodi:cy="81.071426" sodipodi:cx="57.5" sodipodi:type="arc" fill="#FFFFFF" stroke="#0472B8" d="
		M69.643,177.5c0,1.282-1.04,2.321-2.321,2.321c-1.282,0-2.322-1.039-2.322-2.321s1.04-2.321,2.322-2.321
		C68.603,175.179,69.643,176.218,69.643,177.5z"/>
	
		<path id="path3768-8" data-estacion="el vergel" sodipodi:ry="2.3214285" sodipodi:rx="2.3214285" sodipodi:cy="81.071426" sodipodi:cx="57.5" sodipodi:type="arc" fill="#FFFFFF" stroke="#0472B8" d="
		M61.786,196.607c0,1.282-1.04,2.321-2.322,2.321c-1.282,0-2.321-1.04-2.321-2.321c0-1.282,1.04-2.322,2.321-2.322
		C60.746,194.286,61.786,195.325,61.786,196.607z"/>
	
		<path id="path3768-2" data-estacion="estadio azteca" sodipodi:ry="2.3214285" sodipodi:rx="2.3214285" sodipodi:cy="81.071426" sodipodi:cx="57.5" sodipodi:type="arc" fill="#FFFFFF" stroke="#0472B8" d="
		M49.107,214.107c0,1.282-1.04,2.321-2.321,2.321c-1.282,0-2.322-1.04-2.322-2.321c0-1.282,1.04-2.322,2.322-2.322
		C48.068,211.786,49.107,212.825,49.107,214.107z"/>
	
		<path id="path3768-45" data-estacion="huipulco" sodipodi:ry="2.3214285" sodipodi:rx="2.3214285" sodipodi:cy="81.071426" sodipodi:cx="57.5" sodipodi:type="arc" fill="#FFFFFF" stroke="#0472B8" d="
		M36.607,230.179c0,1.282-1.04,2.321-2.321,2.321c-1.282,0-2.322-1.039-2.322-2.321s1.04-2.321,2.322-2.321
		C35.568,227.857,36.607,228.896,36.607,230.179z"/>
	
		<path id="path3768-5" data-estacion="xomali" sodipodi:ry="2.3214285" sodipodi:rx="2.3214285" sodipodi:cy="81.071426" sodipodi:cx="57.5" sodipodi:type="arc" fill="#FFFFFF" stroke="#0472B8" d="
		M48.928,259.285c0,1.283-1.039,2.322-2.321,2.322s-2.321-1.039-2.321-2.322c0-1.281,1.039-2.32,2.321-2.32
		S48.928,258.004,48.928,259.285z"/>
	
		<path id="path3768-17" data-estacion="periferico" sodipodi:ry="2.3214285" sodipodi:rx="2.3214285" sodipodi:cy="81.071426" sodipodi:cx="57.5" sodipodi:type="arc" fill="#FFFFFF" stroke="#0472B8" d="
		M71.264,278.783c0,1.281-1.04,2.321-2.321,2.321c-1.282,0-2.322-1.04-2.322-2.321c0-1.282,1.04-2.322,2.322-2.322
		C70.225,276.461,71.264,277.501,71.264,278.783z"/>
	
		<path id="path3768-11" data-estacion="tepepan" sodipodi:ry="2.3214285" sodipodi:rx="2.3214285" sodipodi:cy="81.071426" sodipodi:cx="57.5" sodipodi:type="arc" fill="#FFFFFF" stroke="#0472B8" d="
		M92.225,288.885c0,1.281-1.039,2.321-2.321,2.321s-2.321-1.04-2.321-2.321c0-1.282,1.039-2.322,2.321-2.322
		S92.225,287.602,92.225,288.885z"/>
	
		<path id="path3768-52" data-estacion="la noria" sodipodi:ry="2.3214285" sodipodi:rx="2.3214285" sodipodi:cy="81.071426" sodipodi:cx="57.5" sodipodi:type="arc" fill="#FFFFFF" stroke="#0472B8" d="
		M118.237,330.049c0,1.281-1.04,2.32-2.322,2.32c-1.282,0-2.321-1.039-2.321-2.32c0-1.283,1.04-2.322,2.321-2.322
		C117.197,327.727,118.237,328.766,118.237,330.049z"/>
	
		<path id="path3768-76" data-estacion="huichapan" sodipodi:ry="2.3214285" sodipodi:rx="2.3214285" sodipodi:cy="81.071426" sodipodi:cx="57.5" sodipodi:type="arc" fill="#FFFFFF" stroke="#0472B8" d="
		M140.712,341.918c0,1.281-1.039,2.321-2.32,2.321c-1.283,0-2.322-1.04-2.322-2.321c0-1.282,1.039-2.322,2.322-2.322
		C139.673,339.596,140.712,340.636,140.712,341.918z"/>
	
		<path id="path3768-14" data-estacion="francisco goitia" sodipodi:ry="2.3214285" sodipodi:rx="2.3214285" sodipodi:cy="81.071426" sodipodi:cx="57.5" sodipodi:type="arc" fill="#FFFFFF" stroke="#0472B8" d="
		M163.946,354.545c0,1.281-1.039,2.32-2.322,2.32c-1.281,0-2.32-1.039-2.32-2.32c0-1.283,1.039-2.322,2.32-2.322
		C162.907,352.223,163.946,353.262,163.946,354.545z"/>
	
		<path id="path3768-23" data-estacion="xohimilco" sodipodi:ry="2.3214285" sodipodi:rx="2.3214285" sodipodi:cy="81.071426" sodipodi:cx="57.5" sodipodi:type="arc" fill="#FFFFFF" stroke="#0472B8" d="
		M181.473,358.838c0,2.314-1.877,4.191-4.191,4.191s-4.191-1.877-4.191-4.191c0-2.315,1.877-4.191,4.191-4.191
		S181.473,356.522,181.473,358.838z"/>
	
		<path id="path3768-23-2" data-estacion="tasqueña" sodipodi:ry="2.3214285" sodipodi:rx="2.3214285" sodipodi:cy="81.071426" sodipodi:cx="57.5" sodipodi:type="arc" fill="#FFFFFF" stroke="#0472B8" d="
		M76.165,74.985c0,2.315-1.876,4.191-4.191,4.191s-4.191-1.876-4.191-4.191s1.876-4.191,4.191-4.191S76.165,72.67,76.165,74.985z"/>
</g>
<g id="layer4" transform="translate(-8.6150084,-68.09465)" inkscape:groupmode="layer" inkscape:label="nombres">
	<text transform="matrix(1 0 0 1 76.5188 76.4999)" font-family="'Verdana'" font-size="10">Tasqueña</text>
	<text transform="matrix(1 0 0 1 184.8582 363.1308)" font-family="'Verdana'" font-size="10">Xochimilco</text>
	<text transform="matrix(1 0 0 1 8.3338 83.0663)" font-family="'Verdana'" font-size="8">Las Torres</text>
	<text transform="matrix(1 0 0 1 68.9431 101.5009)" font-family="'Verdana'" font-size="8">Ciudad Jardin</text>
	<text transform="matrix(1 0 0 1 72.2258 112.8652)" font-family="'Verdana'" font-size="8">La Virgen</text>
	<text transform="matrix(1 0 0 1 76.7717 131.5536)" font-family="'Verdana'" font-size="8">Xotepingo</text>
	<text transform="matrix(1 0 0 1 80.8123 146.2001)" font-family="'Verdana'" font-size="8">Nezahualpilli</text>
	<text transform="matrix(1 0 0 1 77.5291 166.1513)" font-family="'Verdana'" font-size="8">Registro Federal</text>
	<text transform="matrix(1 0 0 1 72.7312 181.3036)" font-family="'Verdana'" font-size="8">Textitlan</text>
	<text transform="matrix(1 0 0 1 63.387 202.7685)" font-family="'Verdana'" font-size="8">El Vergel</text>
	<text transform="matrix(1 0 0 1 52.5281 220.1943)" font-family="'Verdana'" font-size="8">Estadio Azteca</text>
	<text transform="matrix(1 0 0 1 40.1536 235.3466)" font-family="'Verdana'" font-size="8">Huipulco</text>
	<text transform="matrix(1 0 0 1 53.033 261.6103)" font-family="'Verdana'" font-size="8">Xomali</text>
	<text transform="matrix(1 0 0 1 30.3045 287.3691)" font-family="'Verdana'" font-size="8">Periférico</text>
	<text transform="matrix(1 0 0 1 96.7219 293.4306)" font-family="'Verdana'" font-size="8">Tepepan</text>
	<text transform="matrix(1 0 0 1 79.802 336.8671)" font-family="'Verdana'" font-size="8">La Noria</text>
	<text transform="matrix(1 0 0 1 142.4314 340.1494)" font-family="'Verdana'" font-size="8">Huichapan</text>
	<text transform="matrix(1 0 0 1 94.4495 359.8476)" font-family="'Verdana'" font-size="8">Francisco Goitia</text>
</g>
</g>
</svg>
